<?xml version="1.0" encoding="UTF-8" standalone="no"?>
<!DOCTYPE svg PUBLIC "-//W3C//DTD SVG 1.1//EN"
 "http://www.w3.org/Graphics/SVG/1.1/DTD/svg11.dtd">
<!-- Generated by graphviz version 3.0.0 (20220226.1711)
 -->
<!-- Title: noname Pages: 1 -->
<svg width="4184pt" height="1124pt"
 viewBox="0.00 0.00 4183.52 1124.00" xmlns="http://www.w3.org/2000/svg" xmlns:xlink="http://www.w3.org/1999/xlink">
<g id="graph0" class="graph" transform="scale(1 1) rotate(0) translate(4 1120)">
<title>noname</title>
<polygon fill="white" stroke="transparent" points="-4,4 -4,-1120 4179.52,-1120 4179.52,4 -4,4"/>
<!-- 1 -->
<g id="node1" class="node">
<title>1</title>
<ellipse fill="none" stroke="black" cx="2078.38" cy="-162" rx="31.7" ry="18"/>
<text text-anchor="start" x="2061.88" y="-158.3" font-family="Times,serif" font-size="14.00">Thing</text>
</g>
<!-- 24 -->
<g id="node24" class="node">
<title>24</title>
<ellipse fill="none" stroke="black" cx="1665.38" cy="-90" rx="104.78" ry="18"/>
<text text-anchor="start" x="1592.88" y="-86.3" font-family="Times,serif" font-size="14.00">wordnetDomain_factotum</text>
</g>
<!-- 1&#45;&#45;24 -->
<g id="edge1" class="edge">
<title>1&#45;&#45;24</title>
<path fill="none" stroke="black" d="M2053.38,-150.66C2046.65,-148.18 2039.32,-145.75 2032.38,-144 1921.84,-116.08 1891.2,-124.48 1778.38,-108 1766.31,-106.24 1753.52,-104.34 1741.04,-102.47"/>
</g>
<!-- 26 -->
<g id="node26" class="node">
<title>26</title>
<ellipse fill="none" stroke="black" cx="2104.38" cy="-90" rx="105.08" ry="18"/>
<text text-anchor="start" x="2031.38" y="-86.3" font-family="Times,serif" font-size="14.00">wordnetDomain_medicine</text>
</g>
<!-- 1&#45;&#45;26 -->
<g id="edge2" class="edge">
<title>1&#45;&#45;26</title>
<path fill="none" stroke="black" d="M2084.68,-144.05C2088.7,-133.21 2093.91,-119.18 2097.97,-108.28"/>
</g>
<!-- 29 -->
<g id="node29" class="node">
<title>29</title>
<ellipse fill="none" stroke="black" cx="1884.38" cy="-90" rx="96.68" ry="18"/>
<text text-anchor="start" x="1817.88" y="-86.3" font-family="Times,serif" font-size="14.00">wordnetDomain_quality</text>
</g>
<!-- 1&#45;&#45;29 -->
<g id="edge3" class="edge">
<title>1&#45;&#45;29</title>
<path fill="none" stroke="black" d="M2052.61,-151.42C2046.02,-148.99 2038.94,-146.39 2032.38,-144 1996.99,-131.12 1956.75,-116.73 1927.17,-106.19"/>
</g>
<!-- 2 -->
<g id="node2" class="node">
<title>2</title>
<ellipse fill="none" stroke="black" cx="2132.38" cy="-1098" rx="75.29" ry="18"/>
<text text-anchor="start" x="2082.38" y="-1094.3" font-family="Times,serif" font-size="14.00">Abraham_Lincoln</text>
</g>
<!-- 3 -->
<g id="node3" class="node">
<title>3</title>
<ellipse fill="none" stroke="black" cx="1614.38" cy="-1026" rx="197.66" ry="18"/>
<text text-anchor="start" x="1470.38" y="-1022.3" font-family="Times,serif" font-size="14.00">wikicategory_American_people_of_English_descent</text>
</g>
<!-- 2&#45;&#45;3 -->
<g id="edge4" class="edge">
<title>2&#45;&#45;3</title>
<path fill="none" stroke="black" d="M2068.61,-1088.38C1981.66,-1076.63 1824.81,-1055.44 1720.13,-1041.29"/>
</g>
<!-- 4 -->
<g id="node4" class="node">
<title>4</title>
<ellipse fill="none" stroke="black" cx="2022.38" cy="-1026" rx="192.27" ry="18"/>
<text text-anchor="start" x="1882.38" y="-1022.3" font-family="Times,serif" font-size="14.00">wikicategory_American_people_of_Welsh_descent</text>
</g>
<!-- 2&#45;&#45;4 -->
<g id="edge5" class="edge">
<title>2&#45;&#45;4</title>
<path fill="none" stroke="black" d="M2107.15,-1080.94C2089.77,-1069.88 2066.71,-1055.21 2049.03,-1043.96"/>
</g>
<!-- 5 -->
<g id="node5" class="node">
<title>5</title>
<ellipse fill="none" stroke="black" cx="3316.38" cy="-1026" rx="200.36" ry="18"/>
<text text-anchor="start" x="3170.38" y="-1022.3" font-family="Times,serif" font-size="14.00">wikicategory_Assassinated_United_States_Presidents</text>
</g>
<!-- 2&#45;&#45;5 -->
<g id="edge6" class="edge">
<title>2&#45;&#45;5</title>
<path fill="none" stroke="black" d="M2205.73,-1093.61C2367.63,-1086 2767.72,-1066.43 3102.38,-1044 3125.81,-1042.43 3150.67,-1040.6 3174.83,-1038.74"/>
</g>
<!-- 6 -->
<g id="node6" class="node">
<title>6</title>
<ellipse fill="none" stroke="black" cx="2315.38" cy="-954" rx="117.78" ry="18"/>
<text text-anchor="start" x="2232.88" y="-950.3" font-family="Times,serif" font-size="14.00">wikicategory_Illinois_lawyers</text>
</g>
<!-- 2&#45;&#45;6 -->
<g id="edge7" class="edge">
<title>2&#45;&#45;6</title>
<path fill="none" stroke="black" d="M2179.8,-1083.98C2204.53,-1075.49 2234.17,-1062.51 2256.38,-1044 2280.31,-1024.06 2298.24,-991.96 2307.74,-972.25"/>
</g>
<!-- 7 -->
<g id="node7" class="node">
<title>7</title>
<ellipse fill="none" stroke="black" cx="2130.38" cy="-882" rx="192.27" ry="18"/>
<text text-anchor="start" x="1990.38" y="-878.3" font-family="Times,serif" font-size="14.00">wikicategory_People_from_Coles_County,_Illinois</text>
</g>
<!-- 2&#45;&#45;7 -->
<g id="edge8" class="edge">
<title>2&#45;&#45;7</title>
<path fill="none" stroke="black" d="M2175.25,-1083.07C2193.48,-1074.77 2212.9,-1062.23 2223.38,-1044 2231.36,-1030.13 2229.4,-1022.82 2223.38,-1008 2214.99,-987.32 2202.32,-989.43 2188.38,-972 2169.49,-948.38 2151,-918.49 2140.15,-900.07"/>
</g>
<!-- 8 -->
<g id="node8" class="node">
<title>8</title>
<ellipse fill="none" stroke="black" cx="205.38" cy="-954" rx="205.26" ry="18"/>
<text text-anchor="start" x="55.38" y="-950.3" font-family="Times,serif" font-size="14.00">wikicategory_People_from_LaRue_County,_Kentucky</text>
</g>
<!-- 2&#45;&#45;8 -->
<g id="edge9" class="edge">
<title>2&#45;&#45;8</title>
<path fill="none" stroke="black" d="M2057.02,-1097.21C1850.24,-1097.09 1256.77,-1092.24 766.38,-1044 593.66,-1027.01 393.27,-991.31 284.89,-970.66"/>
</g>
<!-- 9 -->
<g id="node9" class="node">
<title>9</title>
<ellipse fill="none" stroke="black" cx="626.38" cy="-954" rx="197.66" ry="18"/>
<text text-anchor="start" x="482.38" y="-950.3" font-family="Times,serif" font-size="14.00">wikicategory_People_from_Macon_County,_Illinois</text>
</g>
<!-- 2&#45;&#45;9 -->
<g id="edge10" class="edge">
<title>2&#45;&#45;9</title>
<path fill="none" stroke="black" d="M2057.02,-1096.45C1824.83,-1094.35 1122.55,-1084.69 898.38,-1044 813.32,-1028.56 718.23,-992.99 666.04,-971.79"/>
</g>
<!-- 10 -->
<g id="node10" class="node">
<title>10</title>
<ellipse fill="none" stroke="black" cx="1044.38" cy="-954" rx="202.26" ry="18"/>
<text text-anchor="start" x="896.88" y="-950.3" font-family="Times,serif" font-size="14.00">wikicategory_People_from_Spencer_County,_Indiana</text>
</g>
<!-- 2&#45;&#45;10 -->
<g id="edge11" class="edge">
<title>2&#45;&#45;10</title>
<path fill="none" stroke="black" d="M2056.86,-1096.57C1796.36,-1094.73 949.16,-1085.54 909.38,-1044 898.32,-1032.44 900.37,-1021.22 909.38,-1008 921.58,-990.11 940.82,-978.26 960.99,-970.4"/>
</g>
<!-- 11 -->
<g id="node11" class="node">
<title>11</title>
<ellipse fill="none" stroke="black" cx="1101.38" cy="-1026" rx="182.77" ry="18"/>
<text text-anchor="start" x="968.88" y="-1022.3" font-family="Times,serif" font-size="14.00">wikicategory_People_from_Springfield,_Illinois</text>
</g>
<!-- 2&#45;&#45;11 -->
<g id="edge12" class="edge">
<title>2&#45;&#45;11</title>
<path fill="none" stroke="black" d="M2059.83,-1092.94C1915.01,-1084.72 1579.78,-1065.08 1298.38,-1044 1276.73,-1042.38 1253.75,-1040.52 1231.42,-1038.64"/>
</g>
<!-- 12 -->
<g id="node12" class="node">
<title>12</title>
<ellipse fill="none" stroke="black" cx="1521.38" cy="-810" rx="204.96" ry="18"/>
<text text-anchor="start" x="1371.88" y="-806.3" font-family="Times,serif" font-size="14.00">wikicategory_People_murdered_in_Washington,_D.C.</text>
</g>
<!-- 2&#45;&#45;12 -->
<g id="edge13" class="edge">
<title>2&#45;&#45;12</title>
<path fill="none" stroke="black" d="M2057.03,-1096.3C1877.44,-1093.97 1435.2,-1084.19 1382.38,-1044 1316.21,-993.65 1281.1,-930.22 1331.38,-864 1343.83,-847.6 1386.51,-834.91 1428.27,-826.07"/>
</g>
<!-- 13 -->
<g id="node13" class="node">
<title>13</title>
<ellipse fill="none" stroke="black" cx="1573.38" cy="-882" rx="232.86" ry="18"/>
<text text-anchor="start" x="1402.38" y="-878.3" font-family="Times,serif" font-size="14.00">wikicategory_People_of_Illinois_in_the_American_Civil_War</text>
</g>
<!-- 2&#45;&#45;13 -->
<g id="edge14" class="edge">
<title>2&#45;&#45;13</title>
<path fill="none" stroke="black" d="M2056.85,-1097.27C1877.56,-1097.12 1437.91,-1091.84 1393.38,-1044 1368.84,-1017.64 1411.85,-945.2 1421.38,-936 1439.58,-918.44 1463.91,-906.67 1487.76,-898.79"/>
</g>
<!-- 14 -->
<g id="node14" class="node">
<title>14</title>
<ellipse fill="none" stroke="black" cx="1611.38" cy="-954" rx="180.87" ry="18"/>
<text text-anchor="start" x="1480.38" y="-950.3" font-family="Times,serif" font-size="14.00">wikicategory_People_of_the_Black_Hawk_War</text>
</g>
<!-- 2&#45;&#45;14 -->
<g id="edge15" class="edge">
<title>2&#45;&#45;14</title>
<path fill="none" stroke="black" d="M2056.98,-1097.16C1880.26,-1096.74 1450.93,-1090.85 1407.38,-1044 1370.16,-1003.95 1436.41,-980.99 1503.12,-968.45"/>
</g>
<!-- 15 -->
<g id="node15" class="node">
<title>15</title>
<ellipse fill="none" stroke="black" cx="2449.38" cy="-1026" rx="103.18" ry="18"/>
<text text-anchor="start" x="2377.88" y="-1022.3" font-family="Times,serif" font-size="14.00">wikicategory_Postmasters</text>
</g>
<!-- 2&#45;&#45;15 -->
<g id="edge16" class="edge">
<title>2&#45;&#45;15</title>
<path fill="none" stroke="black" d="M2185.8,-1085.2C2241.73,-1072.85 2329.45,-1053.48 2388.14,-1040.52"/>
</g>
<!-- 16 -->
<g id="node16" class="node">
<title>16</title>
<ellipse fill="none" stroke="black" cx="3712.38" cy="-1026" rx="177.37" ry="18"/>
<text text-anchor="start" x="3583.88" y="-1022.3" font-family="Times,serif" font-size="14.00">wikicategory_Presidents_of_the_United_States</text>
</g>
<!-- 2&#45;&#45;16 -->
<g id="edge17" class="edge">
<title>2&#45;&#45;16</title>
<path fill="none" stroke="black" d="M2207.2,-1095.54C2415.95,-1091.16 3022.43,-1076.41 3525.38,-1044 3546.28,-1042.65 3568.47,-1040.91 3589.99,-1039.06"/>
</g>
<!-- 17 -->
<g id="node17" class="node">
<title>17</title>
<ellipse fill="none" stroke="black" cx="2815.38" cy="-1026" rx="245.06" ry="18"/>
<text text-anchor="start" x="2634.88" y="-1022.3" font-family="Times,serif" font-size="14.00">wikicategory_Republican_Party_Presidents_of_the_United_States</text>
</g>
<!-- 2&#45;&#45;17 -->
<g id="edge18" class="edge">
<title>2&#45;&#45;17</title>
<path fill="none" stroke="black" d="M2200.05,-1090.06C2311.09,-1078.68 2534.06,-1055.83 2678.9,-1040.99"/>
</g>
<!-- 18 -->
<g id="node18" class="node">
<title>18</title>
<ellipse fill="none" stroke="black" cx="2524.38" cy="-882" rx="145.67" ry="18"/>
<text text-anchor="start" x="2420.38" y="-878.3" font-family="Times,serif" font-size="14.00">wikicategory_Union_political_leaders</text>
</g>
<!-- 2&#45;&#45;18 -->
<g id="edge19" class="edge">
<title>2&#45;&#45;18</title>
<path fill="none" stroke="black" d="M2180.99,-1084.12C2212.04,-1074.97 2252.65,-1061.26 2286.38,-1044 2311.08,-1031.36 2312.68,-1020.63 2337.38,-1008 2381.31,-985.55 2401.07,-998.97 2442.38,-972 2472.11,-952.59 2498.33,-920.02 2512.71,-900.13"/>
</g>
<!-- 42 -->
<g id="node42" class="node">
<title>42</title>
<ellipse fill="none" stroke="black" cx="3899.38" cy="-882" rx="130.78" ry="18"/>
<text text-anchor="start" x="3806.88" y="-878.3" font-family="Times,serif" font-size="14.00">wordnet_officeholder_110371450</text>
</g>
<!-- 2&#45;&#45;42 -->
<g id="edge20" class="edge">
<title>2&#45;&#45;42</title>
<path fill="none" stroke="black" d="M2207.41,-1096.16C2540.27,-1092.24 3868.4,-1074.71 3898.38,-1044 3936.17,-1005.3 3917.4,-933.12 3905.99,-900.18"/>
</g>
<!-- 50 -->
<g id="node50" class="node">
<title>50</title>
<ellipse fill="none" stroke="black" cx="3121.38" cy="-954" rx="120.48" ry="18"/>
<text text-anchor="start" x="3036.88" y="-950.3" font-family="Times,serif" font-size="14.00">wordnet_president_110467179</text>
</g>
<!-- 2&#45;&#45;50 -->
<g id="edge21" class="edge">
<title>2&#45;&#45;50</title>
<path fill="none" stroke="black" d="M2207.82,-1096.79C2417.5,-1095.65 2996.73,-1088.47 3069.38,-1044 3095.63,-1027.93 3110.08,-993.28 3116.74,-972.27"/>
</g>
<!-- 46 -->
<g id="node46" class="node">
<title>46</title>
<ellipse fill="none" stroke="black" cx="1876.38" cy="-594" rx="111.28" ry="18"/>
<text text-anchor="start" x="1798.88" y="-590.3" font-family="Times,serif" font-size="14.00">wordnet_person_100007846</text>
</g>
<!-- 3&#45;&#45;46 -->
<g id="edge22" class="edge">
<title>3&#45;&#45;46</title>
<path fill="none" stroke="black" d="M1715.24,-1010.48C1787.6,-993.7 1872.38,-958.03 1872.38,-883 1872.38,-883 1872.38,-883 1872.38,-737 1872.38,-691.87 1874.43,-638.7 1875.59,-612.04"/>
</g>
<!-- 4&#45;&#45;46 -->
<g id="edge23" class="edge">
<title>4&#45;&#45;46</title>
<path fill="none" stroke="black" d="M1996.12,-1008.05C1963.02,-984.39 1910.38,-938.1 1910.38,-883 1910.38,-883 1910.38,-883 1910.38,-737 1910.38,-690.86 1893.2,-638.56 1883.26,-612.17"/>
</g>
<!-- 5&#45;&#45;50 -->
<g id="edge24" class="edge">
<title>5&#45;&#45;50</title>
<path fill="none" stroke="black" d="M3270.17,-1008.41C3238.52,-997.05 3196.8,-982.07 3165.59,-970.87"/>
</g>
<!-- 36 -->
<g id="node36" class="node">
<title>36</title>
<ellipse fill="none" stroke="black" cx="2145.38" cy="-810" rx="111.58" ry="18"/>
<text text-anchor="start" x="2067.38" y="-806.3" font-family="Times,serif" font-size="14.00">wordnet_lawyer_110249950</text>
</g>
<!-- 6&#45;&#45;36 -->
<g id="edge25" class="edge">
<title>6&#45;&#45;36</title>
<path fill="none" stroke="black" d="M2325.57,-935.8C2335.56,-916.42 2347.18,-884.93 2331.38,-864 2317.73,-845.91 2266.75,-832.16 2221.61,-823.2"/>
</g>
<!-- 7&#45;&#45;46 -->
<g id="edge26" class="edge">
<title>7&#45;&#45;46</title>
<path fill="none" stroke="black" d="M2082.76,-864.45C2063,-855.86 2040.88,-843.79 2024.38,-828 1958.28,-764.71 1977.67,-722.4 1924.38,-648 1915.13,-635.08 1903.13,-621.83 1893.44,-611.81"/>
</g>
<!-- 8&#45;&#45;46 -->
<g id="edge27" class="edge">
<title>8&#45;&#45;46</title>
<path fill="none" stroke="black" d="M277.27,-937.14C339.77,-918.61 420.38,-881.12 420.38,-811 420.38,-811 420.38,-811 420.38,-737 420.38,-602 1424.79,-593.29 1765.15,-594.22"/>
</g>
<!-- 9&#45;&#45;46 -->
<g id="edge28" class="edge">
<title>9&#45;&#45;46</title>
<path fill="none" stroke="black" d="M729.54,-938.59C802.49,-921.91 887.38,-886.31 887.38,-811 887.38,-811 887.38,-811 887.38,-737 887.38,-608.96 1035.74,-672.69 1161.38,-648 1372.22,-606.57 1623.83,-596.91 1765.35,-595.02"/>
</g>
<!-- 10&#45;&#45;46 -->
<g id="edge29" class="edge">
<title>10&#45;&#45;46</title>
<path fill="none" stroke="black" d="M1066.17,-935.83C1094.49,-911.39 1140.38,-863.67 1140.38,-811 1140.38,-811 1140.38,-811 1140.38,-737 1140.38,-670.6 1198.28,-671.51 1260.38,-648 1350.16,-614 1615.22,-601.64 1766.79,-597.28"/>
</g>
<!-- 11&#45;&#45;46 -->
<g id="edge30" class="edge">
<title>11&#45;&#45;46</title>
<path fill="none" stroke="black" d="M1192.79,-1010.28C1216.06,-1002.44 1239.07,-990.42 1255.38,-972 1282.2,-941.72 1274.38,-923.45 1274.38,-883 1274.38,-883 1274.38,-883 1274.38,-737 1274.38,-636.6 1595.6,-607.11 1768.76,-598.5"/>
</g>
<!-- 12&#45;&#45;46 -->
<g id="edge31" class="edge">
<title>12&#45;&#45;46</title>
<path fill="none" stroke="black" d="M1545.31,-792C1588.73,-761.47 1683.83,-696.07 1768.38,-648 1791.99,-634.58 1819.47,-621.12 1840.8,-611.13"/>
</g>
<!-- 13&#45;&#45;46 -->
<g id="edge32" class="edge">
<title>13&#45;&#45;46</title>
<path fill="none" stroke="black" d="M1663.78,-865.4C1689.17,-857.53 1715.3,-845.72 1735.38,-828 1801.73,-769.47 1768.47,-719.64 1820.38,-648 1830.2,-634.45 1843.78,-621.5 1855.11,-611.79"/>
</g>
<!-- 14&#45;&#45;46 -->
<g id="edge33" class="edge">
<title>14&#45;&#45;46</title>
<path fill="none" stroke="black" d="M1704.54,-938.55C1750.56,-929.55 1799.57,-916.52 1815.38,-900 1843.35,-870.78 1834.38,-851.45 1834.38,-811 1834.38,-811 1834.38,-811 1834.38,-737 1834.38,-690.21 1855.61,-638.18 1867.88,-612.01"/>
</g>
<!-- 49 -->
<g id="node49" class="node">
<title>49</title>
<ellipse fill="none" stroke="black" cx="2814.38" cy="-882" rx="126.18" ry="18"/>
<text text-anchor="start" x="2725.38" y="-878.3" font-family="Times,serif" font-size="14.00">wordnet_postmaster_110459575</text>
</g>
<!-- 15&#45;&#45;49 -->
<g id="edge34" class="edge">
<title>15&#45;&#45;49</title>
<path fill="none" stroke="black" d="M2489.49,-1009.4C2559.3,-982.24 2702.46,-926.54 2773.09,-899.06"/>
</g>
<!-- 16&#45;&#45;50 -->
<g id="edge35" class="edge">
<title>16&#45;&#45;50</title>
<path fill="none" stroke="black" d="M3601.57,-1011.87C3489.26,-998.57 3317.56,-978.24 3212.78,-965.83"/>
</g>
<!-- 17&#45;&#45;50 -->
<g id="edge36" class="edge">
<title>17&#45;&#45;50</title>
<path fill="none" stroke="black" d="M2886.35,-1008.76C2938.44,-996.85 3008.53,-980.82 3058.58,-969.37"/>
</g>
<!-- 48 -->
<g id="node48" class="node">
<title>48</title>
<ellipse fill="none" stroke="black" cx="2415.38" cy="-738" rx="120.78" ry="18"/>
<text text-anchor="start" x="2330.38" y="-734.3" font-family="Times,serif" font-size="14.00">wordnet_politician_110450303</text>
</g>
<!-- 18&#45;&#45;48 -->
<g id="edge37" class="edge">
<title>18&#45;&#45;48</title>
<path fill="none" stroke="black" d="M2511.23,-863.87C2490.28,-836.58 2449.56,-783.52 2428.58,-756.19"/>
</g>
<!-- 19 -->
<g id="node19" class="node">
<title>19</title>
<ellipse fill="none" stroke="black" cx="2276.38" cy="-18" rx="68.49" ry="18"/>
<text text-anchor="start" x="2231.88" y="-14.3" font-family="Times,serif" font-size="14.00">wordnetDomain</text>
</g>
<!-- 20 -->
<g id="node20" class="node">
<title>20</title>
<ellipse fill="none" stroke="black" cx="4051.38" cy="-738" rx="124.28" ry="18"/>
<text text-anchor="start" x="3963.88" y="-734.3" font-family="Times,serif" font-size="14.00">wordnetDomain_administration</text>
</g>
<!-- 20&#45;&#45;19 -->
<g id="edge38" class="edge">
<title>20&#45;&#45;19</title>
<path fill="none" stroke="black" d="M4020.96,-720.54C3983.39,-697.73 3924.38,-652.71 3924.38,-595 3924.38,-595 3924.38,-595 3924.38,-161 3924.38,-124.78 4528.2,-191.38 3466.38,-72 3041.75,-24.26 2527.35,-19.06 2344.72,-18.83"/>
</g>
<!-- 21 -->
<g id="node21" class="node">
<title>21</title>
<ellipse fill="none" stroke="black" cx="1423.38" cy="-450" rx="99.38" ry="18"/>
<text text-anchor="start" x="1354.88" y="-446.3" font-family="Times,serif" font-size="14.00">wordnetDomain_biology</text>
</g>
<!-- 21&#45;&#45;19 -->
<g id="edge39" class="edge">
<title>21&#45;&#45;19</title>
<path fill="none" stroke="black" d="M1432.49,-432.06C1445.64,-405.98 1468.38,-354.07 1468.38,-307 1468.38,-307 1468.38,-307 1468.38,-161 1468.38,-106.91 1502.6,-95.36 1551.38,-72 1609.79,-44.03 2040.58,-26.84 2209.09,-21.13"/>
</g>
<!-- 22 -->
<g id="node22" class="node">
<title>22</title>
<ellipse fill="none" stroke="black" cx="3488.38" cy="-378" rx="105.08" ry="18"/>
<text text-anchor="start" x="3415.38" y="-374.3" font-family="Times,serif" font-size="14.00">wordnetDomain_economy</text>
</g>
<!-- 22&#45;&#45;19 -->
<g id="edge40" class="edge">
<title>22&#45;&#45;19</title>
<path fill="none" stroke="black" d="M3453.53,-360.85C3411.77,-338.82 3347.38,-295.1 3347.38,-235 3347.38,-235 3347.38,-235 3347.38,-161 3347.38,-59.36 2579.62,-28.04 2344.19,-20.82"/>
</g>
<!-- 23 -->
<g id="node23" class="node">
<title>23</title>
<ellipse fill="none" stroke="black" cx="3748.38" cy="-162" rx="105.88" ry="18"/>
<text text-anchor="start" x="3674.88" y="-158.3" font-family="Times,serif" font-size="14.00">wordnetDomain_exchange</text>
</g>
<!-- 23&#45;&#45;19 -->
<g id="edge41" class="edge">
<title>23&#45;&#45;19</title>
<path fill="none" stroke="black" d="M3697.28,-146.19C3623.73,-125.58 3483.45,-88.88 3361.38,-72 3163.36,-44.61 2549.23,-26.24 2343.97,-20.73"/>
</g>
<!-- 24&#45;&#45;19 -->
<g id="edge42" class="edge">
<title>24&#45;&#45;19</title>
<path fill="none" stroke="black" d="M1739.78,-77.34C1752.64,-75.46 1765.89,-73.6 1778.38,-72 1934.26,-51.99 2118.28,-33.81 2213,-24.86"/>
</g>
<!-- 25 -->
<g id="node25" class="node">
<title>25</title>
<ellipse fill="none" stroke="black" cx="2101.38" cy="-594" rx="85.29" ry="18"/>
<text text-anchor="start" x="2043.88" y="-590.3" font-family="Times,serif" font-size="14.00">wordnetDomain_law</text>
</g>
<!-- 25&#45;&#45;19 -->
<g id="edge43" class="edge">
<title>25&#45;&#45;19</title>
<path fill="none" stroke="black" d="M2129.14,-576.96C2164.86,-554 2222.38,-508.17 2222.38,-451 2222.38,-451 2222.38,-451 2222.38,-305 2222.38,-201.41 2257.01,-80.33 2270.81,-36.2"/>
</g>
<!-- 26&#45;&#45;19 -->
<g id="edge44" class="edge">
<title>26&#45;&#45;19</title>
<path fill="none" stroke="black" d="M2143.41,-73.12C2172.65,-61.22 2212.34,-45.06 2240.73,-33.51"/>
</g>
<!-- 27 -->
<g id="node27" class="node">
<title>27</title>
<ellipse fill="none" stroke="black" cx="2895.38" cy="-522" rx="96.38" ry="18"/>
<text text-anchor="start" x="2829.38" y="-518.3" font-family="Times,serif" font-size="14.00">wordnetDomain_person</text>
</g>
<!-- 27&#45;&#45;19 -->
<g id="edge45" class="edge">
<title>27&#45;&#45;19</title>
<path fill="none" stroke="black" d="M2826.15,-509.45C2756.83,-493.47 2660.38,-457.18 2660.38,-379 2660.38,-379 2660.38,-379 2660.38,-161 2660.38,-92.14 2440.43,-46.17 2333.46,-27.89"/>
</g>
<!-- 28 -->
<g id="node28" class="node">
<title>28</title>
<ellipse fill="none" stroke="black" cx="2349.38" cy="-234" rx="98.58" ry="18"/>
<text text-anchor="start" x="2281.38" y="-230.3" font-family="Times,serif" font-size="14.00">wordnetDomain_politics</text>
</g>
<!-- 28&#45;&#45;19 -->
<g id="edge46" class="edge">
<title>28&#45;&#45;19</title>
<path fill="none" stroke="black" d="M2343.53,-215.85C2329.83,-175.68 2295.79,-75.89 2282.16,-35.94"/>
</g>
<!-- 29&#45;&#45;19 -->
<g id="edge47" class="edge">
<title>29&#45;&#45;19</title>
<path fill="none" stroke="black" d="M1951.77,-76.97C2028.06,-63.34 2150.89,-41.41 2221.55,-28.79"/>
</g>
<!-- 30 -->
<g id="node30" class="node">
<title>30</title>
<ellipse fill="none" stroke="black" cx="2127.38" cy="-666" rx="105.08" ry="18"/>
<text text-anchor="start" x="2054.38" y="-662.3" font-family="Times,serif" font-size="14.00">wordnet_adult_109605289</text>
</g>
<!-- 30&#45;&#45;27 -->
<g id="edge49" class="edge">
<title>30&#45;&#45;27</title>
<path fill="none" stroke="black" d="M2149.61,-648.25C2178.81,-627.27 2232.47,-592.12 2284.38,-576 2378.38,-546.81 2655.26,-532.14 2801.86,-526.24"/>
</g>
<!-- 30&#45;&#45;46 -->
<g id="edge48" class="edge">
<title>30&#45;&#45;46</title>
<path fill="none" stroke="black" d="M2074.76,-650.33C2032.21,-638.46 1972.56,-621.82 1929.79,-609.9"/>
</g>
<!-- 31 -->
<g id="node31" class="node">
<title>31</title>
<ellipse fill="none" stroke="black" cx="2023.38" cy="-306" rx="133.48" ry="18"/>
<text text-anchor="start" x="1928.88" y="-302.3" font-family="Times,serif" font-size="14.00">wordnet_causal_agent_100007347</text>
</g>
<!-- 31&#45;&#45;24 -->
<g id="edge51" class="edge">
<title>31&#45;&#45;24</title>
<path fill="none" stroke="black" d="M2023.24,-287.73C2022.15,-268 2017.47,-235.89 1999.38,-216 1961.16,-173.98 1806.12,-127.97 1721.38,-105.29"/>
</g>
<!-- 47 -->
<g id="node47" class="node">
<title>47</title>
<ellipse fill="none" stroke="black" cx="1848.38" cy="-234" rx="141.88" ry="18"/>
<text text-anchor="start" x="1747.38" y="-230.3" font-family="Times,serif" font-size="14.00">wordnet_physical_entity_100001930</text>
</g>
<!-- 31&#45;&#45;47 -->
<g id="edge50" class="edge">
<title>31&#45;&#45;47</title>
<path fill="none" stroke="black" d="M1982.79,-288.76C1954.62,-277.5 1917.24,-262.54 1889.05,-251.27"/>
</g>
<!-- 32 -->
<g id="node32" class="node">
<title>32</title>
<ellipse fill="none" stroke="black" cx="2778.38" cy="-666" rx="139.98" ry="18"/>
<text text-anchor="start" x="2678.88" y="-662.3" font-family="Times,serif" font-size="14.00">wordnet_communicator_109610660</text>
</g>
<!-- 32&#45;&#45;27 -->
<g id="edge53" class="edge">
<title>32&#45;&#45;27</title>
<path fill="none" stroke="black" d="M2792.49,-647.87C2814.98,-620.58 2858.7,-567.52 2881.22,-540.19"/>
</g>
<!-- 32&#45;&#45;46 -->
<g id="edge52" class="edge">
<title>32&#45;&#45;46</title>
<path fill="none" stroke="black" d="M2661.91,-655.99C2627.01,-653.34 2588.65,-650.49 2553.38,-648 2310.79,-630.84 2249.42,-635.66 2007.38,-612 1991.29,-610.43 1974.13,-608.43 1957.7,-606.36"/>
</g>
<!-- 33 -->
<g id="node33" class="node">
<title>33</title>
<ellipse fill="none" stroke="black" cx="2675.38" cy="-738" rx="121.58" ry="18"/>
<text text-anchor="start" x="2589.88" y="-734.3" font-family="Times,serif" font-size="14.00">wordnet_employer_110054657</text>
</g>
<!-- 33&#45;&#45;27 -->
<g id="edge55" class="edge">
<title>33&#45;&#45;27</title>
<path fill="none" stroke="black" d="M2636.36,-720.82C2621.01,-712.29 2605.01,-700.18 2596.38,-684 2573.79,-641.65 2565.54,-612.78 2596.38,-576 2622.38,-544.99 2724.7,-532.11 2802.47,-526.77"/>
</g>
<!-- 37 -->
<g id="node37" class="node">
<title>37</title>
<ellipse fill="none" stroke="black" cx="2435.38" cy="-666" rx="109.38" ry="18"/>
<text text-anchor="start" x="2359.38" y="-662.3" font-family="Times,serif" font-size="14.00">wordnet_leader_109623038</text>
</g>
<!-- 33&#45;&#45;37 -->
<g id="edge54" class="edge">
<title>33&#45;&#45;37</title>
<path fill="none" stroke="black" d="M2623.01,-721.72C2582.6,-709.94 2526.99,-693.72 2486.82,-682"/>
</g>
<!-- 34 -->
<g id="node34" class="node">
<title>34</title>
<ellipse fill="none" stroke="black" cx="3154.38" cy="-882" rx="136.48" ry="18"/>
<text text-anchor="start" x="3057.38" y="-878.3" font-family="Times,serif" font-size="14.00">wordnet_head_of_state_110164747</text>
</g>
<!-- 34&#45;&#45;27 -->
<g id="edge57" class="edge">
<title>34&#45;&#45;27</title>
<path fill="none" stroke="black" d="M3239.36,-867.88C3262.64,-860.09 3285.53,-847.7 3300.38,-828 3329.31,-789.63 3335.3,-757.6 3305.38,-720 3261.08,-664.32 3212.96,-715.96 3149.38,-684 3083.18,-650.72 3085.55,-614.73 3022.38,-576 2996.72,-560.26 2965.55,-547.18 2940.52,-537.95"/>
</g>
<!-- 52 -->
<g id="node52" class="node">
<title>52</title>
<ellipse fill="none" stroke="black" cx="3154.38" cy="-810" rx="137.28" ry="18"/>
<text text-anchor="start" x="3056.88" y="-806.3" font-family="Times,serif" font-size="14.00">wordnet_representative_110522035</text>
</g>
<!-- 34&#45;&#45;52 -->
<g id="edge56" class="edge">
<title>34&#45;&#45;52</title>
<path fill="none" stroke="black" d="M3154.38,-863.7C3154.38,-852.85 3154.38,-838.92 3154.38,-828.1"/>
</g>
<!-- 35 -->
<g id="node35" class="node">
<title>35</title>
<ellipse fill="none" stroke="black" cx="3462.38" cy="-738" rx="110.48" ry="18"/>
<text text-anchor="start" x="3385.38" y="-734.3" font-family="Times,serif" font-size="14.00">wordnet_holder_110180178</text>
</g>
<!-- 35&#45;&#45;23 -->
<g id="edge59" class="edge">
<title>35&#45;&#45;23</title>
<path fill="none" stroke="black" d="M3533.52,-724.19C3586.89,-713.74 3654.79,-698.41 3679.38,-684 3726.05,-656.66 3762.38,-649.09 3762.38,-595 3762.38,-595 3762.38,-595 3762.38,-305 3762.38,-259.67 3755.23,-206.58 3751.15,-180"/>
</g>
<!-- 45 -->
<g id="node45" class="node">
<title>45</title>
<ellipse fill="none" stroke="black" cx="3268.38" cy="-666" rx="109.68" ry="18"/>
<text text-anchor="start" x="3191.88" y="-662.3" font-family="Times,serif" font-size="14.00">wordnet_owner_110389398</text>
</g>
<!-- 35&#45;&#45;45 -->
<g id="edge58" class="edge">
<title>35&#45;&#45;45</title>
<path fill="none" stroke="black" d="M3418.84,-721.29C3386.89,-709.76 3343.69,-694.17 3311.77,-682.66"/>
</g>
<!-- 36&#45;&#45;25 -->
<g id="edge61" class="edge">
<title>36&#45;&#45;25</title>
<path fill="none" stroke="black" d="M2067.03,-797.07C2043.28,-789.38 2019.71,-776.74 2005.38,-756 1994,-739.53 2002.92,-664.33 2013.38,-648 2024.35,-630.88 2043,-618.5 2060.31,-610.03"/>
</g>
<!-- 51 -->
<g id="node51" class="node">
<title>51</title>
<ellipse fill="none" stroke="black" cx="2145.38" cy="-738" rx="130.78" ry="18"/>
<text text-anchor="start" x="2052.88" y="-734.3" font-family="Times,serif" font-size="14.00">wordnet_professional_110480253</text>
</g>
<!-- 36&#45;&#45;51 -->
<g id="edge60" class="edge">
<title>36&#45;&#45;51</title>
<path fill="none" stroke="black" d="M2145.38,-791.7C2145.38,-780.85 2145.38,-766.92 2145.38,-756.1"/>
</g>
<!-- 37&#45;&#45;27 -->
<g id="edge63" class="edge">
<title>37&#45;&#45;27</title>
<path fill="none" stroke="black" d="M2452.88,-648.12C2475.35,-627.52 2516.47,-593.29 2558.38,-576 2636.4,-543.82 2731.98,-531.04 2801.4,-526.04"/>
</g>
<!-- 37&#45;&#45;46 -->
<g id="edge62" class="edge">
<title>37&#45;&#45;46</title>
<path fill="none" stroke="black" d="M2350.5,-654.64C2264.13,-644.06 2126.41,-627.09 2007.38,-612 1992.02,-610.05 1975.66,-607.95 1959.88,-605.91"/>
</g>
<!-- 38 -->
<g id="node38" class="node">
<title>38</title>
<ellipse fill="none" stroke="black" cx="1719.38" cy="-450" rx="130.78" ry="18"/>
<text text-anchor="start" x="1626.88" y="-446.3" font-family="Times,serif" font-size="14.00">wordnet_living_thing_100004258</text>
</g>
<!-- 38&#45;&#45;24 -->
<g id="edge65" class="edge">
<title>38&#45;&#45;24</title>
<path fill="none" stroke="black" d="M1662.5,-433.69C1642.35,-425.58 1621.27,-413.54 1607.38,-396 1582.28,-364.29 1588.38,-347.45 1588.38,-307 1588.38,-307 1588.38,-307 1588.38,-233 1588.38,-182.8 1626.03,-133.38 1648.67,-108.19"/>
</g>
<!-- 54 -->
<g id="node54" class="node">
<title>54</title>
<ellipse fill="none" stroke="black" cx="1725.38" cy="-378" rx="109.38" ry="18"/>
<text text-anchor="start" x="1649.38" y="-374.3" font-family="Times,serif" font-size="14.00">wordnet_whole_100003553</text>
</g>
<!-- 38&#45;&#45;54 -->
<g id="edge64" class="edge">
<title>38&#45;&#45;54</title>
<path fill="none" stroke="black" d="M1720.86,-431.7C1721.79,-420.85 1722.99,-406.92 1723.92,-396.1"/>
</g>
<!-- 39 -->
<g id="node39" class="node">
<title>39</title>
<ellipse fill="none" stroke="black" cx="2806.38" cy="-810" rx="111.58" ry="18"/>
<text text-anchor="start" x="2728.38" y="-806.3" font-family="Times,serif" font-size="14.00">wordnet_master_110298647</text>
</g>
<!-- 39&#45;&#45;27 -->
<g id="edge67" class="edge">
<title>39&#45;&#45;27</title>
<path fill="none" stroke="black" d="M2812.2,-791.81C2817.67,-772.15 2822.81,-740.1 2806.38,-720 2755.59,-657.84 2680.18,-746.16 2629.38,-684 2619.26,-671.61 2620.81,-661.51 2629.38,-648 2672.19,-580.59 2762.07,-548.88 2825.47,-534.42"/>
</g>
<!-- 39&#45;&#45;33 -->
<g id="edge66" class="edge">
<title>39&#45;&#45;33</title>
<path fill="none" stroke="black" d="M2775.67,-792.59C2754.8,-781.43 2727.28,-766.73 2706.36,-755.55"/>
</g>
<!-- 40 -->
<g id="node40" class="node">
<title>40</title>
<ellipse fill="none" stroke="black" cx="3173.38" cy="-738" rx="123.48" ry="18"/>
<text text-anchor="start" x="3086.38" y="-734.3" font-family="Times,serif" font-size="14.00">wordnet_negotiator_110351874</text>
</g>
<!-- 40&#45;&#45;22 -->
<g id="edge69" class="edge">
<title>40&#45;&#45;22</title>
<path fill="none" stroke="black" d="M3272.01,-727.12C3401.22,-713.95 3613.37,-691.42 3629.38,-684 3681.87,-659.66 3724.38,-652.86 3724.38,-595 3724.38,-595 3724.38,-595 3724.38,-521 3724.38,-443.66 3630.17,-407.36 3560.79,-391.12"/>
</g>
<!-- 40&#45;&#45;32 -->
<g id="edge68" class="edge">
<title>40&#45;&#45;32</title>
<path fill="none" stroke="black" d="M3098.16,-723.67C3029.1,-711.43 2927.17,-693.37 2857.05,-680.94"/>
</g>
<!-- 41 -->
<g id="node41" class="node">
<title>41</title>
<ellipse fill="none" stroke="black" cx="1763.38" cy="-306" rx="109.38" ry="18"/>
<text text-anchor="start" x="1687.38" y="-302.3" font-family="Times,serif" font-size="14.00">wordnet_object_100002684</text>
</g>
<!-- 41&#45;&#45;24 -->
<g id="edge71" class="edge">
<title>41&#45;&#45;24</title>
<path fill="none" stroke="black" d="M1734.7,-288.56C1721.35,-279.46 1706.45,-266.95 1697.38,-252 1669.3,-205.7 1665.28,-139.44 1665.07,-108.35"/>
</g>
<!-- 41&#45;&#45;47 -->
<g id="edge70" class="edge">
<title>41&#45;&#45;47</title>
<path fill="none" stroke="black" d="M1783.96,-288.05C1797.22,-277.13 1814.41,-262.97 1827.7,-252.03"/>
</g>
<!-- 42&#45;&#45;20 -->
<g id="edge74" class="edge">
<title>42&#45;&#45;20</title>
<path fill="none" stroke="black" d="M3917.42,-864.15C3946.67,-836.82 4004.13,-783.14 4033.37,-755.82"/>
</g>
<!-- 42&#45;&#45;27 -->
<g id="edge75" class="edge">
<title>42&#45;&#45;27</title>
<path fill="none" stroke="black" d="M3902.79,-863.72C3908.07,-831.56 3914.38,-762 3880.38,-720 3768.68,-581.99 3211.49,-538.89 2988.17,-527.03"/>
</g>
<!-- 42&#45;&#45;35 -->
<g id="edge72" class="edge">
<title>42&#45;&#45;35</title>
<path fill="none" stroke="black" d="M3808.58,-868.99C3757.14,-860.64 3692.12,-847.46 3636.38,-828 3581.6,-808.88 3522.37,-775.59 3489.07,-755.6"/>
</g>
<!-- 43 -->
<g id="node43" class="node">
<title>43</title>
<ellipse fill="none" stroke="black" cx="3758.38" cy="-810" rx="113.18" ry="18"/>
<text text-anchor="start" x="3679.38" y="-806.3" font-family="Times,serif" font-size="14.00">wordnet_official_110372373</text>
</g>
<!-- 42&#45;&#45;43 -->
<g id="edge73" class="edge">
<title>42&#45;&#45;43</title>
<path fill="none" stroke="black" d="M3865.97,-864.41C3843.49,-853.25 3813.98,-838.6 3791.56,-827.47"/>
</g>
<!-- 43&#45;&#45;20 -->
<g id="edge77" class="edge">
<title>43&#45;&#45;20</title>
<path fill="none" stroke="black" d="M3818.38,-794.67C3868.44,-782.71 3939.49,-765.73 3989.95,-753.68"/>
</g>
<!-- 53 -->
<g id="node53" class="node">
<title>53</title>
<ellipse fill="none" stroke="black" cx="3731.38" cy="-738" rx="140.28" ry="18"/>
<text text-anchor="start" x="3631.38" y="-734.3" font-family="Times,serif" font-size="14.00">wordnet_skilled_worker_110605985</text>
</g>
<!-- 43&#45;&#45;53 -->
<g id="edge76" class="edge">
<title>43&#45;&#45;53</title>
<path fill="none" stroke="black" d="M3751.71,-791.7C3747.52,-780.85 3742.15,-766.92 3737.98,-756.1"/>
</g>
<!-- 44 -->
<g id="node44" class="node">
<title>44</title>
<ellipse fill="none" stroke="black" cx="1719.38" cy="-522" rx="120.78" ry="18"/>
<text text-anchor="start" x="1634.38" y="-518.3" font-family="Times,serif" font-size="14.00">wordnet_organism_100004475</text>
</g>
<!-- 44&#45;&#45;24 -->
<g id="edge79" class="edge">
<title>44&#45;&#45;24</title>
<path fill="none" stroke="black" d="M1648.21,-507.36C1623.62,-499.49 1597.68,-487.18 1579.38,-468 1550.66,-437.9 1550.38,-420.6 1550.38,-379 1550.38,-379 1550.38,-379 1550.38,-233 1550.38,-177.17 1604.74,-130.99 1638.71,-107.58"/>
</g>
<!-- 44&#45;&#45;38 -->
<g id="edge78" class="edge">
<title>44&#45;&#45;38</title>
<path fill="none" stroke="black" d="M1719.38,-503.7C1719.38,-492.85 1719.38,-478.92 1719.38,-468.1"/>
</g>
<!-- 45&#45;&#45;27 -->
<g id="edge81" class="edge">
<title>45&#45;&#45;27</title>
<path fill="none" stroke="black" d="M3250.16,-648.14C3227.23,-627.87 3185.83,-594.32 3144.38,-576 3091.12,-552.46 3026.73,-539.11 2976.77,-531.7"/>
</g>
<!-- 45&#45;&#45;46 -->
<g id="edge80" class="edge">
<title>45&#45;&#45;46</title>
<path fill="none" stroke="black" d="M3165.43,-659.58C3097.78,-656.09 3007.32,-651.56 2927.38,-648 2518.58,-629.81 2415.14,-646.37 2007.38,-612 1990.81,-610.6 1973.12,-608.63 1956.27,-606.53"/>
</g>
<!-- 46&#45;&#45;21 -->
<g id="edge85" class="edge">
<title>46&#45;&#45;21</title>
<path fill="none" stroke="black" d="M1785.65,-583.54C1728.24,-575.79 1653.09,-562.35 1589.38,-540 1536.31,-521.38 1479.62,-487.61 1448.13,-467.44"/>
</g>
<!-- 46&#45;&#45;27 -->
<g id="edge86" class="edge">
<title>46&#45;&#45;27</title>
<path fill="none" stroke="black" d="M1957.34,-581.6C1973.88,-579.52 1991.17,-577.53 2007.38,-576 2296.44,-548.65 2639.85,-532.89 2801.89,-526.44"/>
</g>
<!-- 46&#45;&#45;31 -->
<g id="edge82" class="edge">
<title>46&#45;&#45;31</title>
<path fill="none" stroke="black" d="M1883.34,-575.81C1899.5,-536.48 1941.74,-437.38 1987.38,-360 1994.62,-347.74 2003.62,-334.49 2010.81,-324.3"/>
</g>
<!-- 46&#45;&#45;44 -->
<g id="edge83" class="edge">
<title>46&#45;&#45;44</title>
<path fill="none" stroke="black" d="M1840.36,-576.94C1815.01,-565.64 1781.21,-550.57 1755.78,-539.23"/>
</g>
<!-- 56 -->
<g id="node56" class="node">
<title>56</title>
<ellipse fill="none" stroke="black" cx="1991.38" cy="-522" rx="67.69" ry="18"/>
<text text-anchor="start" x="1947.38" y="-518.3" font-family="Times,serif" font-size="14.00">yagoLegalActor</text>
</g>
<!-- 46&#45;&#45;56 -->
<g id="edge84" class="edge">
<title>46&#45;&#45;56</title>
<path fill="none" stroke="black" d="M1903.64,-576.41C1922.37,-565.01 1947.08,-549.97 1965.51,-538.75"/>
</g>
<!-- 47&#45;&#45;1 -->
<g id="edge87" class="edge">
<title>47&#45;&#45;1</title>
<path fill="none" stroke="black" d="M1900.29,-217.2C1947.05,-202.97 2013.99,-182.6 2051.05,-171.32"/>
</g>
<!-- 48&#45;&#45;28 -->
<g id="edge89" class="edge">
<title>48&#45;&#45;28</title>
<path fill="none" stroke="black" d="M2375.06,-720.88C2329.14,-699.55 2260.38,-657.22 2260.38,-595 2260.38,-595 2260.38,-595 2260.38,-377 2260.38,-324.92 2303.89,-276.25 2330.07,-251.68"/>
</g>
<!-- 48&#45;&#45;37 -->
<g id="edge88" class="edge">
<title>48&#45;&#45;37</title>
<path fill="none" stroke="black" d="M2420.33,-719.7C2423.43,-708.85 2427.41,-694.92 2430.49,-684.1"/>
</g>
<!-- 49&#45;&#45;27 -->
<g id="edge91" class="edge">
<title>49&#45;&#45;27</title>
<path fill="none" stroke="black" d="M2871.47,-865.91C2891.88,-857.82 2913.3,-845.73 2927.38,-828 2952.54,-796.33 2946.38,-779.45 2946.38,-739 2946.38,-739 2946.38,-739 2946.38,-665 2946.38,-617.59 2920.89,-566.23 2905.95,-540.21"/>
</g>
<!-- 49&#45;&#45;39 -->
<g id="edge90" class="edge">
<title>49&#45;&#45;39</title>
<path fill="none" stroke="black" d="M2812.4,-863.7C2811.16,-852.85 2809.57,-838.92 2808.34,-828.1"/>
</g>
<!-- 50&#45;&#45;27 -->
<g id="edge93" class="edge">
<title>50&#45;&#45;27</title>
<path fill="none" stroke="black" d="M3066.82,-937.91C3046.24,-929.73 3024.23,-917.59 3009.38,-900 2982.87,-868.61 2984.38,-852.09 2984.38,-811 2984.38,-811 2984.38,-811 2984.38,-665 2984.38,-612.92 2940.87,-564.25 2914.69,-539.68"/>
</g>
<!-- 50&#45;&#45;34 -->
<g id="edge92" class="edge">
<title>50&#45;&#45;34</title>
<path fill="none" stroke="black" d="M3129.54,-935.7C3134.65,-924.85 3141.22,-910.92 3146.32,-900.1"/>
</g>
<!-- 51&#45;&#45;27 -->
<g id="edge95" class="edge">
<title>51&#45;&#45;27</title>
<path fill="none" stroke="black" d="M2175.42,-720.4C2209.42,-701.85 2266.7,-671.36 2317.38,-648 2394.51,-612.45 2412.29,-597.74 2494.38,-576 2598.92,-548.32 2722.8,-534.76 2804.92,-528.35"/>
</g>
<!-- 51&#45;&#45;30 -->
<g id="edge94" class="edge">
<title>51&#45;&#45;30</title>
<path fill="none" stroke="black" d="M2140.93,-719.7C2138.14,-708.85 2134.56,-694.92 2131.78,-684.1"/>
</g>
<!-- 52&#45;&#45;27 -->
<g id="edge97" class="edge">
<title>52&#45;&#45;27</title>
<path fill="none" stroke="black" d="M3097.23,-793.62C3076.93,-785.5 3055.61,-773.48 3041.38,-756 2989.45,-692.22 3049.14,-640.72 2998.38,-576 2984.48,-558.28 2963.03,-545.92 2943.29,-537.62"/>
</g>
<!-- 52&#45;&#45;40 -->
<g id="edge96" class="edge">
<title>52&#45;&#45;40</title>
<path fill="none" stroke="black" d="M3159.08,-791.7C3162.02,-780.85 3165.8,-766.92 3168.74,-756.1"/>
</g>
<!-- 53&#45;&#45;27 -->
<g id="edge99" class="edge">
<title>53&#45;&#45;27</title>
<path fill="none" stroke="black" d="M3717.04,-719.95C3698.84,-699.49 3665.44,-665.74 3629.38,-648 3515.64,-592.05 3145.37,-548.46 2978.39,-531.13"/>
</g>
<!-- 55 -->
<g id="node55" class="node">
<title>55</title>
<ellipse fill="none" stroke="black" cx="3508.38" cy="-666" rx="112.38" ry="18"/>
<text text-anchor="start" x="3429.88" y="-662.3" font-family="Times,serif" font-size="14.00">wordnet_worker_109632518</text>
</g>
<!-- 53&#45;&#45;55 -->
<g id="edge98" class="edge">
<title>53&#45;&#45;55</title>
<path fill="none" stroke="black" d="M3680.78,-721.12C3643.77,-709.5 3593.85,-693.83 3557.25,-682.34"/>
</g>
<!-- 54&#45;&#45;24 -->
<g id="edge101" class="edge">
<title>54&#45;&#45;24</title>
<path fill="none" stroke="black" d="M1686.3,-361.16C1670.63,-352.64 1654.21,-340.44 1645.38,-324 1606.58,-251.75 1641.46,-148.45 1657.91,-108.08"/>
</g>
<!-- 54&#45;&#45;41 -->
<g id="edge100" class="edge">
<title>54&#45;&#45;41</title>
<path fill="none" stroke="black" d="M1734.58,-360.05C1740.47,-349.21 1748.08,-335.18 1754,-324.28"/>
</g>
<!-- 55&#45;&#45;27 -->
<g id="edge103" class="edge">
<title>55&#45;&#45;27</title>
<path fill="none" stroke="black" d="M3458.97,-649.79C3396.24,-630.83 3284.49,-598.23 3187.38,-576 3112.67,-558.9 3026.2,-543.78 2966.85,-534.11"/>
</g>
<!-- 55&#45;&#45;46 -->
<g id="edge102" class="edge">
<title>55&#45;&#45;46</title>
<path fill="none" stroke="black" d="M3431.39,-652.85C3416.81,-650.93 3401.65,-649.18 3387.38,-648 2775.94,-597.24 2619.08,-659.54 2007.38,-612 1990.69,-610.7 1972.87,-608.76 1955.91,-606.65"/>
</g>
<!-- 57 -->
<g id="node57" class="node">
<title>57</title>
<ellipse fill="none" stroke="black" cx="2079.38" cy="-378" rx="82.59" ry="18"/>
<text text-anchor="start" x="2023.88" y="-374.3" font-family="Times,serif" font-size="14.00">yagoLegalActorGeo</text>
</g>
<!-- 56&#45;&#45;57 -->
<g id="edge104" class="edge">
<title>56&#45;&#45;57</title>
<path fill="none" stroke="black" d="M2001.82,-504.15C2018.67,-476.97 2051.67,-423.72 2068.68,-396.27"/>
</g>
<!-- 57&#45;&#45;1 -->
<g id="edge105" class="edge">
<title>57&#45;&#45;1</title>
<path fill="none" stroke="black" d="M2120.41,-362.28C2137.51,-353.88 2155.63,-341.46 2165.38,-324 2173.18,-310.03 2170.17,-303.27 2165.38,-288 2151.29,-243.09 2114.74,-200.2 2093.77,-178.24"/>
</g>
</g>
</svg>
