<?xml version="1.0" encoding="UTF-8" standalone="no"?>
<!DOCTYPE svg PUBLIC "-//W3C//DTD SVG 1.1//EN"
 "http://www.w3.org/Graphics/SVG/1.1/DTD/svg11.dtd">
<!-- Generated by graphviz version 3.0.0 (20220226.1711)
 -->
<!-- Title: noname Pages: 1 -->
<svg width="1090pt" height="1064pt"
 viewBox="0.00 0.00 1089.63 1064.00" xmlns="http://www.w3.org/2000/svg" xmlns:xlink="http://www.w3.org/1999/xlink">
<g id="graph0" class="graph" transform="scale(1 1) rotate(0) translate(4 1060)">
<title>noname</title>
<polygon fill="white" stroke="transparent" points="-4,4 -4,-1060 1085.63,-1060 1085.63,4 -4,4"/>
<!-- 1 -->
<g id="node1" class="node">
<title>1</title>
<ellipse fill="none" stroke="black" cx="486.79" cy="-192" rx="31.7" ry="18"/>
<text text-anchor="start" x="470.29" y="-188.3" font-family="Times,serif" font-size="14.00">Thing</text>
</g>
<!-- 6 -->
<g id="node6" class="node">
<title>6</title>
<ellipse fill="none" stroke="black" cx="239.79" cy="-105" rx="104.78" ry="18"/>
<text text-anchor="start" x="167.29" y="-101.3" font-family="Times,serif" font-size="14.00">wordnetDomain_factotum</text>
</g>
<!-- 1&#45;&#45;6 -->
<g id="edge1" class="edge">
<title>1&#45;&#45;6</title>
<path fill="none" stroke="black" d="M457.95,-183.83C432.64,-177.31 394.95,-167.04 362.79,-156 333.14,-145.82 300.28,-132.35 275.99,-121.95"/>
<text text-anchor="start" x="362.79" y="-144.8" font-family="Times,serif" font-size="14.00">hasWordnetDomain</text>
</g>
<!-- 8 -->
<g id="node8" class="node">
<title>8</title>
<ellipse fill="none" stroke="black" cx="467.79" cy="-105" rx="105.08" ry="18"/>
<text text-anchor="start" x="394.79" y="-101.3" font-family="Times,serif" font-size="14.00">wordnetDomain_medicine</text>
</g>
<!-- 1&#45;&#45;8 -->
<g id="edge2" class="edge">
<title>1&#45;&#45;8</title>
<path fill="none" stroke="black" d="M482.95,-173.8C479.65,-159.05 474.93,-137.92 471.63,-123.18"/>
<text text-anchor="start" x="477.79" y="-144.8" font-family="Times,serif" font-size="14.00">hasWordnetDomain</text>
</g>
<!-- 12 -->
<g id="node12" class="node">
<title>12</title>
<ellipse fill="none" stroke="black" cx="687.79" cy="-105" rx="96.68" ry="18"/>
<text text-anchor="start" x="621.29" y="-101.3" font-family="Times,serif" font-size="14.00">wordnetDomain_quality</text>
</g>
<!-- 1&#45;&#45;12 -->
<g id="edge3" class="edge">
<title>1&#45;&#45;12</title>
<path fill="none" stroke="black" d="M514.58,-182.9C535.78,-176.43 565.53,-166.69 590.79,-156 614.35,-146.03 640.03,-132.67 659.05,-122.27"/>
<text text-anchor="start" x="619.79" y="-144.8" font-family="Times,serif" font-size="14.00">hasWordnetDomain</text>
</g>
<!-- 2 -->
<g id="node2" class="node">
<title>2</title>
<ellipse fill="none" stroke="black" cx="577.79" cy="-1038" rx="87.18" ry="18"/>
<text text-anchor="start" x="518.79" y="-1034.3" font-family="Times,serif" font-size="14.00">American_Civil_War</text>
</g>
<!-- 3 -->
<g id="node3" class="node">
<title>3</title>
<ellipse fill="none" stroke="black" cx="360.79" cy="-951" rx="178.97" ry="18"/>
<text text-anchor="start" x="231.29" y="-947.3" font-family="Times,serif" font-size="14.00">wikicategory_Rebellions_in_the_United_States</text>
</g>
<!-- 2&#45;&#45;3 -->
<g id="edge4" class="edge">
<title>2&#45;&#45;3</title>
<path fill="none" stroke="black" d="M539,-1021.8C500.72,-1006.81 442.36,-983.95 402.96,-968.52"/>
<text text-anchor="start" x="481.79" y="-990.8" font-family="Times,serif" font-size="14.00">type</text>
</g>
<!-- 4 -->
<g id="node4" class="node">
<title>4</title>
<ellipse fill="none" stroke="black" cx="805.79" cy="-951" rx="185.77" ry="18"/>
<text text-anchor="start" x="670.79" y="-947.3" font-family="Times,serif" font-size="14.00">wikicategory_Wars_involving_the_United_States</text>
</g>
<!-- 2&#45;&#45;4 -->
<g id="edge5" class="edge">
<title>2&#45;&#45;4</title>
<path fill="none" stroke="black" d="M618.03,-1022C658.17,-1007.03 719.7,-984.1 761.28,-968.59"/>
<text text-anchor="start" x="704.79" y="-990.8" font-family="Times,serif" font-size="14.00">type</text>
</g>
<!-- 21 -->
<g id="node21" class="node">
<title>21</title>
<ellipse fill="none" stroke="black" cx="805.79" cy="-864" rx="100.98" ry="18"/>
<text text-anchor="start" x="736.29" y="-860.3" font-family="Times,serif" font-size="14.00">wordnet_war_100973077</text>
</g>
<!-- 2&#45;&#45;21 -->
<g id="edge6" class="edge">
<title>2&#45;&#45;21</title>
<path fill="none" stroke="black" d="M573.95,-1019.77C570,-997.23 566.9,-957.7 586.79,-933 616.88,-895.64 667.17,-878.38 711.97,-870.58"/>
<text text-anchor="start" x="586.79" y="-947.3" font-family="Times,serif" font-size="14.00">type</text>
</g>
<!-- 19 -->
<g id="node19" class="node">
<title>19</title>
<ellipse fill="none" stroke="black" cx="348.79" cy="-864" rx="118.88" ry="18"/>
<text text-anchor="start" x="265.29" y="-860.3" font-family="Times,serif" font-size="14.00">wordnet_rebellion_101177327</text>
</g>
<!-- 3&#45;&#45;19 -->
<g id="edge7" class="edge">
<title>3&#45;&#45;19</title>
<path fill="none" stroke="black" d="M358.36,-932.8C356.28,-918.05 353.3,-896.92 351.22,-882.18"/>
<text text-anchor="start" x="355.79" y="-903.8" font-family="Times,serif" font-size="14.00">subClassOf</text>
</g>
<!-- 4&#45;&#45;21 -->
<g id="edge8" class="edge">
<title>4&#45;&#45;21</title>
<path fill="none" stroke="black" d="M805.79,-932.8C805.79,-918.05 805.79,-896.92 805.79,-882.18"/>
<text text-anchor="start" x="805.79" y="-903.8" font-family="Times,serif" font-size="14.00">subClassOf</text>
</g>
<!-- 5 -->
<g id="node5" class="node">
<title>5</title>
<ellipse fill="none" stroke="black" cx="687.79" cy="-18" rx="68.49" ry="18"/>
<text text-anchor="start" x="643.29" y="-14.3" font-family="Times,serif" font-size="14.00">wordnetDomain</text>
</g>
<!-- 6&#45;&#45;5 -->
<g id="edge9" class="edge">
<title>6&#45;&#45;5</title>
<path fill="none" stroke="black" d="M307.35,-91.18C396.69,-74.23 552.35,-44.7 634.12,-29.18"/>
<text text-anchor="start" x="489.79" y="-57.8" font-family="Times,serif" font-size="14.00">type</text>
</g>
<!-- 7 -->
<g id="node7" class="node">
<title>7</title>
<ellipse fill="none" stroke="black" cx="984.79" cy="-723" rx="96.68" ry="18"/>
<text text-anchor="start" x="918.29" y="-719.3" font-family="Times,serif" font-size="14.00">wordnetDomain_history</text>
</g>
<!-- 7&#45;&#45;5 -->
<g id="edge10" class="edge">
<title>7&#45;&#45;5</title>
<path fill="none" stroke="black" d="M985.37,-704.75C985.96,-685.63 986.79,-653.86 986.79,-626.5 986.79,-626.5 986.79,-626.5 986.79,-104 986.79,-55.57 839.79,-33.26 751.93,-24.26"/>
<text text-anchor="start" x="986.79" y="-404.3" font-family="Times,serif" font-size="14.00">type</text>
</g>
<!-- 8&#45;&#45;5 -->
<g id="edge11" class="edge">
<title>8&#45;&#45;5</title>
<path fill="none" stroke="black" d="M508.4,-88.31C549.25,-72.53 611.67,-48.41 651.08,-33.19"/>
<text text-anchor="start" x="590.79" y="-57.8" font-family="Times,serif" font-size="14.00">type</text>
</g>
<!-- 9 -->
<g id="node9" class="node">
<title>9</title>
<ellipse fill="none" stroke="black" cx="832.79" cy="-669" rx="100.98" ry="18"/>
<text text-anchor="start" x="763.29" y="-665.3" font-family="Times,serif" font-size="14.00">wordnetDomain_military</text>
</g>
<!-- 9&#45;&#45;5 -->
<g id="edge12" class="edge">
<title>9&#45;&#45;5</title>
<path fill="none" stroke="black" d="M877.65,-652.74C907.33,-639.49 940.79,-617 940.79,-583 940.79,-583 940.79,-583 940.79,-104 940.79,-63.4 822.23,-38.55 747.43,-26.92"/>
<text text-anchor="start" x="940.79" y="-350.3" font-family="Times,serif" font-size="14.00">type</text>
</g>
<!-- 10 -->
<g id="node10" class="node">
<title>10</title>
<ellipse fill="none" stroke="black" cx="98.79" cy="-669" rx="98.58" ry="18"/>
<text text-anchor="start" x="30.79" y="-665.3" font-family="Times,serif" font-size="14.00">wordnetDomain_politics</text>
</g>
<!-- 10&#45;&#45;5 -->
<g id="edge13" class="edge">
<title>10&#45;&#45;5</title>
<path fill="none" stroke="black" d="M98.15,-650.75C97.56,-633.58 96.79,-606.47 96.79,-583 96.79,-583 96.79,-583 96.79,-104 96.79,-51.55 466.13,-28.91 620.86,-21.72"/>
<text text-anchor="start" x="96.79" y="-350.3" font-family="Times,serif" font-size="14.00">type</text>
</g>
<!-- 11 -->
<g id="node11" class="node">
<title>11</title>
<ellipse fill="none" stroke="black" cx="667.79" cy="-246" rx="113.18" ry="18"/>
<text text-anchor="start" x="588.79" y="-242.3" font-family="Times,serif" font-size="14.00">wordnetDomain_psychology</text>
</g>
<!-- 11&#45;&#45;5 -->
<g id="edge14" class="edge">
<title>11&#45;&#45;5</title>
<path fill="none" stroke="black" d="M695.15,-228.36C725.81,-207.92 773.83,-170.1 793.79,-123 800.03,-108.27 801.46,-101.04 793.79,-87 779.63,-61.1 750.93,-43.61 726.96,-32.86"/>
<text text-anchor="start" x="783.79" y="-144.8" font-family="Times,serif" font-size="14.00">type</text>
</g>
<!-- 12&#45;&#45;5 -->
<g id="edge15" class="edge">
<title>12&#45;&#45;5</title>
<path fill="none" stroke="black" d="M687.79,-86.8C687.79,-72.05 687.79,-50.92 687.79,-36.18"/>
<text text-anchor="start" x="687.79" y="-57.8" font-family="Times,serif" font-size="14.00">type</text>
</g>
<!-- 13 -->
<g id="node13" class="node">
<title>13</title>
<ellipse fill="none" stroke="black" cx="492.79" cy="-300" rx="126.18" ry="18"/>
<text text-anchor="start" x="403.79" y="-296.3" font-family="Times,serif" font-size="14.00">wordnet_abstraction_100002137</text>
</g>
<!-- 13&#45;&#45;1 -->
<g id="edge16" class="edge">
<title>13&#45;&#45;1</title>
<path fill="none" stroke="black" d="M486.84,-281.76C485.18,-276.16 483.62,-269.88 482.79,-264 480.22,-245.66 482.04,-224.44 483.98,-210"/>
<text text-anchor="start" x="482.79" y="-242.3" font-family="Times,serif" font-size="14.00">subClassOf</text>
</g>
<!-- 13&#45;&#45;6 -->
<g id="edge17" class="edge">
<title>13&#45;&#45;6</title>
<path fill="none" stroke="black" d="M457.44,-282.68C424.52,-266.63 374.94,-240.18 336.79,-210 303.1,-183.34 270.4,-144.88 252.9,-122.97"/>
<text text-anchor="start" x="336.79" y="-188.3" font-family="Times,serif" font-size="14.00">hasWordnetDomain</text>
</g>
<!-- 14 -->
<g id="node14" class="node">
<title>14</title>
<ellipse fill="none" stroke="black" cx="304.79" cy="-582" rx="98.28" ry="18"/>
<text text-anchor="start" x="237.29" y="-578.3" font-family="Times,serif" font-size="14.00">wordnet_act_100030358</text>
</g>
<!-- 14&#45;&#45;6 -->
<g id="edge19" class="edge">
<title>14&#45;&#45;6</title>
<path fill="none" stroke="black" d="M305.69,-563.76C306.63,-526.62 303.38,-438.51 255.79,-390 234.8,-368.6 208.94,-395.86 190.79,-372 131.94,-294.64 200.3,-168.47 228.62,-123"/>
<text text-anchor="start" x="190.79" y="-350.3" font-family="Times,serif" font-size="14.00">hasWordnetDomain</text>
</g>
<!-- 15 -->
<g id="node15" class="node">
<title>15</title>
<ellipse fill="none" stroke="black" cx="438.79" cy="-495" rx="106.68" ry="18"/>
<text text-anchor="start" x="364.79" y="-491.3" font-family="Times,serif" font-size="14.00">wordnet_event_100029378</text>
</g>
<!-- 14&#45;&#45;15 -->
<g id="edge18" class="edge">
<title>14&#45;&#45;15</title>
<path fill="none" stroke="black" d="M321.68,-563.81C332.5,-553.42 347.19,-540.43 361.79,-531 373.14,-523.67 386.28,-517.09 398.45,-511.67"/>
<text text-anchor="start" x="361.79" y="-534.8" font-family="Times,serif" font-size="14.00">subClassOf</text>
</g>
<!-- 15&#45;&#45;6 -->
<g id="edge22" class="edge">
<title>15&#45;&#45;6</title>
<path fill="none" stroke="black" d="M403.89,-477.91C381.96,-466.25 354.57,-448.57 336.79,-426 310.43,-392.53 334.44,-365.59 303.79,-336 285.29,-318.14 264.33,-338.5 248.79,-318 204.07,-258.98 224.03,-161.95 234.67,-122.98"/>
<text text-anchor="start" x="248.79" y="-296.3" font-family="Times,serif" font-size="14.00">hasWordnetDomain</text>
</g>
<!-- 18 -->
<g id="node18" class="node">
<title>18</title>
<ellipse fill="none" stroke="black" cx="510.79" cy="-408" rx="165.17" ry="18"/>
<text text-anchor="start" x="391.79" y="-404.3" font-family="Times,serif" font-size="14.00">wordnet_psychological_feature_100023100</text>
</g>
<!-- 15&#45;&#45;18 -->
<g id="edge20" class="edge">
<title>15&#45;&#45;18</title>
<path fill="none" stroke="black" d="M453.36,-476.8C465.85,-462.05 483.76,-440.92 496.24,-426.18"/>
<text text-anchor="start" x="478.79" y="-447.8" font-family="Times,serif" font-size="14.00">subClassOf</text>
</g>
<!-- 22 -->
<g id="node22" class="node">
<title>22</title>
<ellipse fill="none" stroke="black" cx="795.79" cy="-354" rx="122.38" ry="18"/>
<text text-anchor="start" x="709.79" y="-350.3" font-family="Times,serif" font-size="14.00">yagoPermanentlyLocatedEntity</text>
</g>
<!-- 15&#45;&#45;22 -->
<g id="edge21" class="edge">
<title>15&#45;&#45;22</title>
<path fill="none" stroke="black" d="M506.44,-481.03C556.94,-470 626.92,-451.8 684.79,-426 717.8,-411.28 752.35,-387.69 773.96,-371.78"/>
<text text-anchor="start" x="637.79" y="-447.8" font-family="Times,serif" font-size="14.00">subClassOf</text>
</g>
<!-- 16 -->
<g id="node16" class="node">
<title>16</title>
<ellipse fill="none" stroke="black" cx="349.79" cy="-669" rx="133.78" ry="18"/>
<text text-anchor="start" x="254.79" y="-665.3" font-family="Times,serif" font-size="14.00">wordnet_group_action_101080366</text>
</g>
<!-- 16&#45;&#45;6 -->
<g id="edge25" class="edge">
<title>16&#45;&#45;6</title>
<path fill="none" stroke="black" d="M281.44,-653.52C221.14,-638.72 142.79,-613.59 142.79,-583 142.79,-583 142.79,-583 142.79,-191 142.79,-158.53 173.91,-135.58 200.9,-121.77"/>
<text text-anchor="start" x="142.79" y="-404.3" font-family="Times,serif" font-size="14.00">hasWordnetDomain</text>
</g>
<!-- 16&#45;&#45;14 -->
<g id="edge23" class="edge">
<title>16&#45;&#45;14</title>
<path fill="none" stroke="black" d="M340.68,-650.8C332.88,-636.05 321.69,-614.92 313.88,-600.18"/>
<text text-anchor="start" x="330.79" y="-621.8" font-family="Times,serif" font-size="14.00">subClassOf</text>
</g>
<!-- 16&#45;&#45;15 -->
<g id="edge24" class="edge">
<title>16&#45;&#45;15</title>
<path fill="none" stroke="black" d="M377.88,-651.39C385.05,-646.18 392.28,-639.95 397.79,-633 426.5,-596.83 435.14,-540.9 437.71,-513.02"/>
<text text-anchor="start" x="427.79" y="-578.3" font-family="Times,serif" font-size="14.00">subClassOf</text>
</g>
<!-- 17 -->
<g id="node17" class="node">
<title>17</title>
<ellipse fill="none" stroke="black" cx="654.79" cy="-777" rx="141.88" ry="18"/>
<text text-anchor="start" x="553.79" y="-773.3" font-family="Times,serif" font-size="14.00">wordnet_military_action_100952963</text>
</g>
<!-- 17&#45;&#45;9 -->
<g id="edge27" class="edge">
<title>17&#45;&#45;9</title>
<path fill="none" stroke="black" d="M663.83,-758.82C673.21,-742.61 689.38,-718.8 709.79,-705 725.33,-694.49 744.02,-687.11 762.07,-681.93"/>
<text text-anchor="start" x="709.79" y="-719.3" font-family="Times,serif" font-size="14.00">hasWordnetDomain</text>
</g>
<!-- 17&#45;&#45;16 -->
<g id="edge26" class="edge">
<title>17&#45;&#45;16</title>
<path fill="none" stroke="black" d="M608.47,-759.9C550.98,-739.92 453.51,-706.05 396.05,-686.08"/>
<text text-anchor="start" x="546.79" y="-719.3" font-family="Times,serif" font-size="14.00">subClassOf</text>
</g>
<!-- 18&#45;&#45;11 -->
<g id="edge29" class="edge">
<title>18&#45;&#45;11</title>
<path fill="none" stroke="black" d="M524.94,-390.03C529.3,-384.45 533.96,-378.11 537.79,-372 547.3,-356.85 541.84,-347.19 555.79,-336 581.52,-315.36 601.56,-338 627.79,-318 645.68,-304.36 656.78,-280.28 662.62,-263.98"/>
<text text-anchor="start" x="555.79" y="-350.3" font-family="Times,serif" font-size="14.00">hasWordnetDomain</text>
</g>
<!-- 18&#45;&#45;13 -->
<g id="edge28" class="edge">
<title>18&#45;&#45;13</title>
<path fill="none" stroke="black" d="M487.73,-389.97C482.5,-384.83 477.64,-378.74 474.79,-372 468.56,-357.26 471.03,-351.55 474.79,-336 476.27,-329.89 479.01,-323.65 481.92,-318.17"/>
<text text-anchor="start" x="474.79" y="-350.3" font-family="Times,serif" font-size="14.00">subClassOf</text>
</g>
<!-- 19&#45;&#45;10 -->
<g id="edge31" class="edge">
<title>19&#45;&#45;10</title>
<path fill="none" stroke="black" d="M269.71,-850.54C207.99,-839.07 129.36,-820.06 108.79,-795 83.52,-764.2 89.27,-713.56 94.6,-687.18"/>
<text text-anchor="start" x="108.79" y="-773.3" font-family="Times,serif" font-size="14.00">hasWordnetDomain</text>
</g>
<!-- 20 -->
<g id="node20" class="node">
<title>20</title>
<ellipse fill="none" stroke="black" cx="348.79" cy="-777" rx="122.38" ry="18"/>
<text text-anchor="start" x="262.79" y="-773.3" font-family="Times,serif" font-size="14.00">wordnet_resistance_101169317</text>
</g>
<!-- 19&#45;&#45;20 -->
<g id="edge30" class="edge">
<title>19&#45;&#45;20</title>
<path fill="none" stroke="black" d="M348.79,-845.8C348.79,-831.05 348.79,-809.92 348.79,-795.18"/>
<text text-anchor="start" x="348.79" y="-816.8" font-family="Times,serif" font-size="14.00">subClassOf</text>
</g>
<!-- 20&#45;&#45;10 -->
<g id="edge33" class="edge">
<title>20&#45;&#45;10</title>
<path fill="none" stroke="black" d="M293.72,-760.85C275.37,-755.26 254.98,-748.46 236.79,-741 197.53,-724.9 154.34,-701.74 126.92,-686.3"/>
<text text-anchor="start" x="236.79" y="-719.3" font-family="Times,serif" font-size="14.00">hasWordnetDomain</text>
</g>
<!-- 20&#45;&#45;16 -->
<g id="edge32" class="edge">
<title>20&#45;&#45;16</title>
<path fill="none" stroke="black" d="M348.95,-758.97C349.14,-739.31 349.44,-707.13 349.63,-687.34"/>
<text text-anchor="start" x="349.79" y="-719.3" font-family="Times,serif" font-size="14.00">subClassOf</text>
</g>
<!-- 21&#45;&#45;7 -->
<g id="edge35" class="edge">
<title>21&#45;&#45;7</title>
<path fill="none" stroke="black" d="M853.66,-848.14C882.98,-837.15 919.75,-819.77 945.79,-795 961.69,-779.88 972.69,-756.82 978.86,-741.12"/>
<text text-anchor="start" x="921.79" y="-816.8" font-family="Times,serif" font-size="14.00">hasWordnetDomain</text>
</g>
<!-- 21&#45;&#45;9 -->
<g id="edge36" class="edge">
<title>21&#45;&#45;9</title>
<path fill="none" stroke="black" d="M808.19,-845.87C813.31,-809.25 825.28,-723.68 830.4,-687.09"/>
<text text-anchor="start" x="819.79" y="-773.3" font-family="Times,serif" font-size="14.00">hasWordnetDomain</text>
</g>
<!-- 21&#45;&#45;17 -->
<g id="edge34" class="edge">
<title>21&#45;&#45;17</title>
<path fill="none" stroke="black" d="M776.68,-846.61C750.11,-831.66 711.03,-809.66 684.33,-794.63"/>
<text text-anchor="start" x="738.79" y="-816.8" font-family="Times,serif" font-size="14.00">subClassOf</text>
</g>
<!-- 22&#45;&#45;1 -->
<g id="edge37" class="edge">
<title>22&#45;&#45;1</title>
<path fill="none" stroke="black" d="M799.81,-335.66C804.95,-308.61 810.11,-256.5 781.79,-228 763.46,-209.55 590.8,-198.44 518.45,-194.56"/>
<text text-anchor="start" x="803.79" y="-296.3" font-family="Times,serif" font-size="14.00">subClassOf</text>
</g>
</g>
</svg>
