<?xml version="1.0" encoding="UTF-8" standalone="no"?>
<!DOCTYPE svg PUBLIC "-//W3C//DTD SVG 1.1//EN"
 "http://www.w3.org/Graphics/SVG/1.1/DTD/svg11.dtd">
<!-- Generated by graphviz version 3.0.0 (20220226.1711)
 -->
<!-- Title: noname Pages: 1 -->
<svg width="1781pt" height="1085pt"
 viewBox="0.00 0.00 1781.14 1085.00" xmlns="http://www.w3.org/2000/svg" xmlns:xlink="http://www.w3.org/1999/xlink">
<g id="graph0" class="graph" transform="scale(1 1) rotate(0) translate(4 1081)">
<title>noname</title>
<polygon fill="white" stroke="transparent" points="-4,4 -4,-1081 1777.14,-1081 1777.14,4 -4,4"/>
<!-- 1 -->
<g id="node1" class="node">
<title>1</title>
<ellipse fill="none" stroke="black" cx="631" cy="-192" rx="31.7" ry="18"/>
<text text-anchor="start" x="614.5" y="-188.3" font-family="Times,serif" font-size="14.00">Thing</text>
</g>
<!-- 9 -->
<g id="node9" class="node">
<title>9</title>
<ellipse fill="none" stroke="black" cx="253" cy="-105" rx="104.78" ry="18"/>
<text text-anchor="start" x="180.5" y="-101.3" font-family="Times,serif" font-size="14.00">wordnetDomain_factotum</text>
</g>
<!-- 1&#45;&#45;9 -->
<g id="edge1" class="edge">
<title>1&#45;&#45;9</title>
<path fill="none" stroke="black" d="M599.16,-189.83C548.48,-187.3 446.75,-179.51 364,-156 335.33,-147.86 304.57,-133.52 282.72,-122.27"/>
<text text-anchor="start" x="364" y="-144.8" font-family="Times,serif" font-size="14.00">hasWordnetDomain</text>
</g>
<!-- 11 -->
<g id="node11" class="node">
<title>11</title>
<ellipse fill="none" stroke="black" cx="840" cy="-105" rx="105.08" ry="18"/>
<text text-anchor="start" x="767" y="-101.3" font-family="Times,serif" font-size="14.00">wordnetDomain_medicine</text>
</g>
<!-- 1&#45;&#45;11 -->
<g id="edge2" class="edge">
<title>1&#45;&#45;11</title>
<path fill="none" stroke="black" d="M658.92,-183.18C680.97,-176.71 712.35,-166.85 739,-156 763.46,-146.04 790.21,-132.68 810.04,-122.28"/>
<text text-anchor="start" x="770" y="-144.8" font-family="Times,serif" font-size="14.00">hasWordnetDomain</text>
</g>
<!-- 14 -->
<g id="node14" class="node">
<title>14</title>
<ellipse fill="none" stroke="black" cx="620" cy="-105" rx="96.68" ry="18"/>
<text text-anchor="start" x="553.5" y="-101.3" font-family="Times,serif" font-size="14.00">wordnetDomain_quality</text>
</g>
<!-- 1&#45;&#45;14 -->
<g id="edge3" class="edge">
<title>1&#45;&#45;14</title>
<path fill="none" stroke="black" d="M628.77,-173.8C626.87,-159.05 624.13,-137.92 622.22,-123.18"/>
<text text-anchor="start" x="626" y="-144.8" font-family="Times,serif" font-size="14.00">hasWordnetDomain</text>
</g>
<!-- 2 -->
<g id="node2" class="node">
<title>2</title>
<ellipse fill="none" stroke="black" cx="683" cy="-1059" rx="115.08" ry="18"/>
<text text-anchor="start" x="602.5" y="-1055.3" font-family="Times,serif" font-size="14.00">Battle_of_the_Little_Bighorn</text>
</g>
<!-- 3 -->
<g id="node3" class="node">
<title>3</title>
<ellipse fill="none" stroke="black" cx="882" cy="-972" rx="172.77" ry="18"/>
<text text-anchor="start" x="757" y="-968.3" font-family="Times,serif" font-size="14.00">wikicategory_Battles_involving_the_Arapaho</text>
</g>
<!-- 2&#45;&#45;3 -->
<g id="edge4" class="edge">
<title>2&#45;&#45;3</title>
<path fill="none" stroke="black" d="M720.9,-1041.81C755.97,-1026.83 807.88,-1004.66 843.22,-989.56"/>
<text text-anchor="start" x="794" y="-1011.8" font-family="Times,serif" font-size="14.00">type</text>
</g>
<!-- 4 -->
<g id="node4" class="node">
<title>4</title>
<ellipse fill="none" stroke="black" cx="1251" cy="-972" rx="178.17" ry="18"/>
<text text-anchor="start" x="1122" y="-968.3" font-family="Times,serif" font-size="14.00">wikicategory_Battles_involving_the_Cheyenne</text>
</g>
<!-- 2&#45;&#45;4 -->
<g id="edge5" class="edge">
<title>2&#45;&#45;4</title>
<path fill="none" stroke="black" d="M763.18,-1046C866.38,-1030.56 1045.49,-1003.75 1155.6,-987.28"/>
<text text-anchor="start" x="1001" y="-1011.8" font-family="Times,serif" font-size="14.00">type</text>
</g>
<!-- 5 -->
<g id="node5" class="node">
<title>5</title>
<ellipse fill="none" stroke="black" cx="1610" cy="-972" rx="163.27" ry="18"/>
<text text-anchor="start" x="1492.5" y="-968.3" font-family="Times,serif" font-size="14.00">wikicategory_Battles_involving_the_Sioux</text>
</g>
<!-- 2&#45;&#45;5 -->
<g id="edge6" class="edge">
<title>2&#45;&#45;5</title>
<path fill="none" stroke="black" d="M780.76,-1049.47C924.71,-1036.84 1202.16,-1012.28 1438,-990 1455.92,-988.31 1474.89,-986.47 1493.44,-984.66"/>
<text text-anchor="start" x="1230" y="-1011.8" font-family="Times,serif" font-size="14.00">type</text>
</g>
<!-- 6 -->
<g id="node6" class="node">
<title>6</title>
<ellipse fill="none" stroke="black" cx="404" cy="-972" rx="226.66" ry="18"/>
<text text-anchor="start" x="237.5" y="-968.3" font-family="Times,serif" font-size="14.00">wikicategory_Battles_of_the_Great_Sioux_War_of_1876–77</text>
</g>
<!-- 2&#45;&#45;6 -->
<g id="edge7" class="edge">
<title>2&#45;&#45;6</title>
<path fill="none" stroke="black" d="M632.8,-1042.71C583.69,-1027.75 509.12,-1005.03 458.57,-989.62"/>
<text text-anchor="start" x="560" y="-1011.8" font-family="Times,serif" font-size="14.00">type</text>
</g>
<!-- 7 -->
<g id="node7" class="node">
<title>7</title>
<ellipse fill="none" stroke="black" cx="149" cy="-918" rx="126.18" ry="18"/>
<text text-anchor="start" x="60" y="-914.3" font-family="Times,serif" font-size="14.00">wikicategory_Conflicts_in_1876</text>
</g>
<!-- 2&#45;&#45;7 -->
<g id="edge8" class="edge">
<title>2&#45;&#45;7</title>
<path fill="none" stroke="black" d="M568.37,-1057.28C435.04,-1054.04 225.79,-1040.71 168,-990 152.75,-976.62 149.11,-952.47 148.55,-936.09"/>
<text text-anchor="start" x="239" y="-1011.8" font-family="Times,serif" font-size="14.00">type</text>
</g>
<!-- 17 -->
<g id="node17" class="node">
<title>17</title>
<ellipse fill="none" stroke="black" cx="882" cy="-864" rx="107.48" ry="18"/>
<text text-anchor="start" x="807.5" y="-860.3" font-family="Times,serif" font-size="14.00">wordnet_battle_100953559</text>
</g>
<!-- 2&#45;&#45;17 -->
<g id="edge9" class="edge">
<title>2&#45;&#45;17</title>
<path fill="none" stroke="black" d="M675.98,-1040.92C668.15,-1018.9 658.7,-980.31 676,-954 704.62,-910.46 759.57,-888.12 805.52,-876.71"/>
<text text-anchor="start" x="676" y="-968.3" font-family="Times,serif" font-size="14.00">type</text>
</g>
<!-- 3&#45;&#45;17 -->
<g id="edge10" class="edge">
<title>3&#45;&#45;17</title>
<path fill="none" stroke="black" d="M882,-953.97C882,-934.31 882,-902.13 882,-882.34"/>
<text text-anchor="start" x="882" y="-914.3" font-family="Times,serif" font-size="14.00">subClassOf</text>
</g>
<!-- 4&#45;&#45;17 -->
<g id="edge11" class="edge">
<title>4&#45;&#45;17</title>
<path fill="none" stroke="black" d="M1194.96,-954.9C1123.89,-934.49 1002.34,-899.57 933.5,-879.79"/>
<text text-anchor="start" x="1121" y="-914.3" font-family="Times,serif" font-size="14.00">subClassOf</text>
</g>
<!-- 5&#45;&#45;17 -->
<g id="edge12" class="edge">
<title>5&#45;&#45;17</title>
<path fill="none" stroke="black" d="M1530.08,-956.26C1445.36,-940.94 1307.54,-916.88 1188,-900 1115.33,-889.74 1032.63,-880.42 971.54,-873.98"/>
<text text-anchor="start" x="1407" y="-914.3" font-family="Times,serif" font-size="14.00">subClassOf</text>
</g>
<!-- 6&#45;&#45;17 -->
<g id="edge13" class="edge">
<title>6&#45;&#45;17</title>
<path fill="none" stroke="black" d="M440.2,-954.13C477.07,-937.67 536.31,-913.25 590,-900 653.08,-884.43 725.59,-875.69 782.58,-870.84"/>
<text text-anchor="start" x="590" y="-914.3" font-family="Times,serif" font-size="14.00">subClassOf</text>
</g>
<!-- 18 -->
<g id="node18" class="node">
<title>18</title>
<ellipse fill="none" stroke="black" cx="149" cy="-777" rx="114.28" ry="18"/>
<text text-anchor="start" x="69" y="-773.3" font-family="Times,serif" font-size="14.00">wordnet_conflict_100958896</text>
</g>
<!-- 7&#45;&#45;18 -->
<g id="edge14" class="edge">
<title>7&#45;&#45;18</title>
<path fill="none" stroke="black" d="M149,-899.96C149,-873.28 149,-821.95 149,-795.18"/>
<text text-anchor="start" x="149" y="-860.3" font-family="Times,serif" font-size="14.00">subClassOf</text>
</g>
<!-- 8 -->
<g id="node8" class="node">
<title>8</title>
<ellipse fill="none" stroke="black" cx="757" cy="-18" rx="68.49" ry="18"/>
<text text-anchor="start" x="712.5" y="-14.3" font-family="Times,serif" font-size="14.00">wordnetDomain</text>
</g>
<!-- 9&#45;&#45;8 -->
<g id="edge15" class="edge">
<title>9&#45;&#45;8</title>
<path fill="none" stroke="black" d="M305.03,-89.35C346.02,-78.27 404.78,-63.41 457,-54 537.76,-39.45 631.9,-29.61 692.87,-24.16"/>
<text text-anchor="start" x="457" y="-57.8" font-family="Times,serif" font-size="14.00">type</text>
</g>
<!-- 10 -->
<g id="node10" class="node">
<title>10</title>
<ellipse fill="none" stroke="black" cx="1019" cy="-723" rx="96.68" ry="18"/>
<text text-anchor="start" x="952.5" y="-719.3" font-family="Times,serif" font-size="14.00">wordnetDomain_history</text>
</g>
<!-- 10&#45;&#45;8 -->
<g id="edge16" class="edge">
<title>10&#45;&#45;8</title>
<path fill="none" stroke="black" d="M1019,-704.75C1019,-685.62 1019,-653.86 1019,-626.5 1019,-626.5 1019,-626.5 1019,-104 1019,-61.92 895.16,-37.52 817.77,-26.39"/>
<text text-anchor="start" x="1019" y="-404.3" font-family="Times,serif" font-size="14.00">type</text>
</g>
<!-- 11&#45;&#45;8 -->
<g id="edge17" class="edge">
<title>11&#45;&#45;8</title>
<path fill="none" stroke="black" d="M823.6,-87.21C809.05,-72.31 787.9,-50.65 773.36,-35.76"/>
<text text-anchor="start" x="803" y="-57.8" font-family="Times,serif" font-size="14.00">type</text>
</g>
<!-- 12 -->
<g id="node12" class="node">
<title>12</title>
<ellipse fill="none" stroke="black" cx="882" cy="-669" rx="100.98" ry="18"/>
<text text-anchor="start" x="812.5" y="-665.3" font-family="Times,serif" font-size="14.00">wordnetDomain_military</text>
</g>
<!-- 12&#45;&#45;8 -->
<g id="edge18" class="edge">
<title>12&#45;&#45;8</title>
<path fill="none" stroke="black" d="M917.7,-652.03C943.2,-637.93 973,-614.67 973,-583 973,-583 973,-583 973,-104 973,-69.24 874.93,-42.73 810.95,-29.14"/>
<text text-anchor="start" x="973" y="-350.3" font-family="Times,serif" font-size="14.00">type</text>
</g>
<!-- 13 -->
<g id="node13" class="node">
<title>13</title>
<ellipse fill="none" stroke="black" cx="495" cy="-246" rx="113.18" ry="18"/>
<text text-anchor="start" x="416" y="-242.3" font-family="Times,serif" font-size="14.00">wordnetDomain_psychology</text>
</g>
<!-- 13&#45;&#45;8 -->
<g id="edge19" class="edge">
<title>13&#45;&#45;8</title>
<path fill="none" stroke="black" d="M491.49,-227.86C486.05,-196.01 479.47,-127.27 514,-87 537.95,-59.06 635.12,-38.51 699.09,-27.68"/>
<text text-anchor="start" x="489" y="-144.8" font-family="Times,serif" font-size="14.00">type</text>
</g>
<!-- 14&#45;&#45;8 -->
<g id="edge20" class="edge">
<title>14&#45;&#45;8</title>
<path fill="none" stroke="black" d="M646.41,-87.61C670.99,-72.37 707.35,-49.8 731.59,-34.76"/>
<text text-anchor="start" x="696" y="-57.8" font-family="Times,serif" font-size="14.00">type</text>
</g>
<!-- 15 -->
<g id="node15" class="node">
<title>15</title>
<ellipse fill="none" stroke="black" cx="506" cy="-300" rx="126.18" ry="18"/>
<text text-anchor="start" x="417" y="-296.3" font-family="Times,serif" font-size="14.00">wordnet_abstraction_100002137</text>
</g>
<!-- 15&#45;&#45;1 -->
<g id="edge21" class="edge">
<title>15&#45;&#45;1</title>
<path fill="none" stroke="black" d="M576.57,-284.99C588.58,-279.99 600.04,-273.2 609,-264 623.13,-249.48 628.2,-226.07 630.01,-210.13"/>
<text text-anchor="start" x="626" y="-242.3" font-family="Times,serif" font-size="14.00">subClassOf</text>
</g>
<!-- 15&#45;&#45;9 -->
<g id="edge22" class="edge">
<title>15&#45;&#45;9</title>
<path fill="none" stroke="black" d="M423.23,-286.28C405.7,-281.17 387.99,-274.02 373,-264 317.59,-226.96 277.39,-155.64 261.06,-123.03"/>
<text text-anchor="start" x="315" y="-188.3" font-family="Times,serif" font-size="14.00">hasWordnetDomain</text>
</g>
<!-- 16 -->
<g id="node16" class="node">
<title>16</title>
<ellipse fill="none" stroke="black" cx="262" cy="-582" rx="98.28" ry="18"/>
<text text-anchor="start" x="194.5" y="-578.3" font-family="Times,serif" font-size="14.00">wordnet_act_100030358</text>
</g>
<!-- 16&#45;&#45;9 -->
<g id="edge24" class="edge">
<title>16&#45;&#45;9</title>
<path fill="none" stroke="black" d="M264.56,-563.9C268.97,-528.16 274.24,-444.34 237,-390 227.56,-376.22 212.53,-386.37 204,-372 195.83,-358.24 202.68,-351.95 204,-336 210.02,-263.26 218.47,-245.91 231,-174 233.56,-159.31 232.53,-155.22 237,-141 238.88,-135.01 241.54,-128.7 244.15,-123.11"/>
<text text-anchor="start" x="204" y="-350.3" font-family="Times,serif" font-size="14.00">hasWordnetDomain</text>
</g>
<!-- 19 -->
<g id="node19" class="node">
<title>19</title>
<ellipse fill="none" stroke="black" cx="396" cy="-495" rx="106.68" ry="18"/>
<text text-anchor="start" x="322" y="-491.3" font-family="Times,serif" font-size="14.00">wordnet_event_100029378</text>
</g>
<!-- 16&#45;&#45;19 -->
<g id="edge23" class="edge">
<title>16&#45;&#45;19</title>
<path fill="none" stroke="black" d="M278.89,-563.81C289.7,-553.42 304.4,-540.43 319,-531 330.35,-523.67 343.49,-517.09 355.66,-511.67"/>
<text text-anchor="start" x="319" y="-534.8" font-family="Times,serif" font-size="14.00">subClassOf</text>
</g>
<!-- 17&#45;&#45;10 -->
<g id="edge26" class="edge">
<title>17&#45;&#45;10</title>
<path fill="none" stroke="black" d="M922.24,-847.3C946.38,-836.02 975.98,-818.64 995,-795 1007.64,-779.29 1013.77,-756.57 1016.64,-741.1"/>
<text text-anchor="start" x="977" y="-816.8" font-family="Times,serif" font-size="14.00">hasWordnetDomain</text>
</g>
<!-- 17&#45;&#45;12 -->
<g id="edge27" class="edge">
<title>17&#45;&#45;12</title>
<path fill="none" stroke="black" d="M882,-845.87C882,-809.25 882,-723.68 882,-687.09"/>
<text text-anchor="start" x="882" y="-773.3" font-family="Times,serif" font-size="14.00">hasWordnetDomain</text>
</g>
<!-- 21 -->
<g id="node21" class="node">
<title>21</title>
<ellipse fill="none" stroke="black" cx="704" cy="-777" rx="141.88" ry="18"/>
<text text-anchor="start" x="603" y="-773.3" font-family="Times,serif" font-size="14.00">wordnet_military_action_100952963</text>
</g>
<!-- 17&#45;&#45;21 -->
<g id="edge25" class="edge">
<title>17&#45;&#45;21</title>
<path fill="none" stroke="black" d="M845.85,-846.86C832.92,-841.01 818.27,-834.3 805,-828 782.2,-817.18 756.73,-804.57 737.07,-794.72"/>
<text text-anchor="start" x="805" y="-816.8" font-family="Times,serif" font-size="14.00">subClassOf</text>
</g>
<!-- 18&#45;&#45;9 -->
<g id="edge29" class="edge">
<title>18&#45;&#45;9</title>
<path fill="none" stroke="black" d="M93.94,-761.17C51.5,-746.01 0,-717.78 0,-670 0,-670 0,-670 0,-191 0,-153.64 100.38,-129.62 174.68,-116.96"/>
<text text-anchor="start" x="0" y="-447.8" font-family="Times,serif" font-size="14.00">hasWordnetDomain</text>
</g>
<!-- 20 -->
<g id="node20" class="node">
<title>20</title>
<ellipse fill="none" stroke="black" cx="262" cy="-669" rx="133.78" ry="18"/>
<text text-anchor="start" x="167" y="-665.3" font-family="Times,serif" font-size="14.00">wordnet_group_action_101080366</text>
</g>
<!-- 18&#45;&#45;20 -->
<g id="edge28" class="edge">
<title>18&#45;&#45;20</title>
<path fill="none" stroke="black" d="M166.91,-759.2C187.94,-739.47 222.65,-706.92 243.8,-687.07"/>
<text text-anchor="start" x="223" y="-719.3" font-family="Times,serif" font-size="14.00">subClassOf</text>
</g>
<!-- 19&#45;&#45;9 -->
<g id="edge32" class="edge">
<title>19&#45;&#45;9</title>
<path fill="none" stroke="black" d="M382.87,-477.11C372.92,-463.77 359.42,-444.4 350,-426 330.59,-388.08 347.65,-365.59 317,-336 298.5,-318.14 277.53,-338.5 262,-318 217.28,-258.98 237.24,-161.95 247.88,-122.98"/>
<text text-anchor="start" x="262" y="-296.3" font-family="Times,serif" font-size="14.00">hasWordnetDomain</text>
</g>
<!-- 22 -->
<g id="node22" class="node">
<title>22</title>
<ellipse fill="none" stroke="black" cx="524" cy="-408" rx="165.17" ry="18"/>
<text text-anchor="start" x="405" y="-404.3" font-family="Times,serif" font-size="14.00">wordnet_psychological_feature_100023100</text>
</g>
<!-- 19&#45;&#45;22 -->
<g id="edge30" class="edge">
<title>19&#45;&#45;22</title>
<path fill="none" stroke="black" d="M420.98,-477.41C443.39,-462.53 476.12,-440.8 498.64,-425.84"/>
<text text-anchor="start" x="467" y="-447.8" font-family="Times,serif" font-size="14.00">subClassOf</text>
</g>
<!-- 23 -->
<g id="node23" class="node">
<title>23</title>
<ellipse fill="none" stroke="black" cx="828" cy="-354" rx="122.38" ry="18"/>
<text text-anchor="start" x="742" y="-350.3" font-family="Times,serif" font-size="14.00">yagoPermanentlyLocatedEntity</text>
</g>
<!-- 19&#45;&#45;23 -->
<g id="edge31" class="edge">
<title>19&#45;&#45;23</title>
<path fill="none" stroke="black" d="M473.74,-482.62C535.78,-472.1 624.21,-453.83 698,-426 736.26,-411.57 777.14,-387.68 802.63,-371.64"/>
<text text-anchor="start" x="640" y="-447.8" font-family="Times,serif" font-size="14.00">subClassOf</text>
</g>
<!-- 20&#45;&#45;9 -->
<g id="edge35" class="edge">
<title>20&#45;&#45;9</title>
<path fill="none" stroke="black" d="M195.43,-653.36C160.14,-641.26 124,-619.86 124,-583 124,-583 124,-583 124,-191 124,-154.12 161.21,-132.34 195.67,-120.07"/>
<text text-anchor="start" x="124" y="-404.3" font-family="Times,serif" font-size="14.00">hasWordnetDomain</text>
</g>
<!-- 20&#45;&#45;16 -->
<g id="edge33" class="edge">
<title>20&#45;&#45;16</title>
<path fill="none" stroke="black" d="M262,-650.8C262,-636.05 262,-614.92 262,-600.18"/>
<text text-anchor="start" x="262" y="-621.8" font-family="Times,serif" font-size="14.00">subClassOf</text>
</g>
<!-- 20&#45;&#45;19 -->
<g id="edge34" class="edge">
<title>20&#45;&#45;19</title>
<path fill="none" stroke="black" d="M304.14,-651.82C327.11,-640.76 353.86,-623.76 369,-600 386.35,-572.79 392.58,-534.86 394.8,-513.13"/>
<text text-anchor="start" x="385" y="-578.3" font-family="Times,serif" font-size="14.00">subClassOf</text>
</g>
<!-- 21&#45;&#45;12 -->
<g id="edge37" class="edge">
<title>21&#45;&#45;12</title>
<path fill="none" stroke="black" d="M713.04,-758.82C722.42,-742.61 738.59,-718.8 759,-705 774.54,-694.49 793.23,-687.11 811.28,-681.93"/>
<text text-anchor="start" x="759" y="-719.3" font-family="Times,serif" font-size="14.00">hasWordnetDomain</text>
</g>
<!-- 21&#45;&#45;20 -->
<g id="edge36" class="edge">
<title>21&#45;&#45;20</title>
<path fill="none" stroke="black" d="M640.67,-760.81C556.41,-740.6 408.34,-705.09 324.5,-684.99"/>
<text text-anchor="start" x="548" y="-719.3" font-family="Times,serif" font-size="14.00">subClassOf</text>
</g>
<!-- 22&#45;&#45;13 -->
<g id="edge39" class="edge">
<title>22&#45;&#45;13</title>
<path fill="none" stroke="black" d="M550.63,-389.99C557.5,-384.78 564.49,-378.64 570,-372 581.41,-358.23 574.52,-347.76 588,-336 606.75,-319.65 626.51,-338.22 641,-318 650.32,-304.99 650.91,-294.56 641,-282 632.61,-271.36 606.94,-263.59 579.41,-258.11"/>
<text text-anchor="start" x="588" y="-350.3" font-family="Times,serif" font-size="14.00">hasWordnetDomain</text>
</g>
<!-- 22&#45;&#45;15 -->
<g id="edge38" class="edge">
<title>22&#45;&#45;15</title>
<path fill="none" stroke="black" d="M513.78,-389.76C511.04,-384.27 508.44,-378.05 507,-372 502.73,-354.01 503.12,-332.73 504.18,-318.18"/>
<text text-anchor="start" x="507" y="-350.3" font-family="Times,serif" font-size="14.00">subClassOf</text>
</g>
<!-- 23&#45;&#45;1 -->
<g id="edge40" class="edge">
<title>23&#45;&#45;1</title>
<path fill="none" stroke="black" d="M812.05,-335.88C787.85,-310.46 739.7,-262.08 693,-228 680.82,-219.11 666.17,-210.74 654.17,-204.42"/>
<text text-anchor="start" x="793" y="-296.3" font-family="Times,serif" font-size="14.00">subClassOf</text>
</g>
</g>
</svg>
