<?xml version="1.0" encoding="UTF-8" standalone="no"?>
<!DOCTYPE svg PUBLIC "-//W3C//DTD SVG 1.1//EN"
 "http://www.w3.org/Graphics/SVG/1.1/DTD/svg11.dtd">
<!-- Generated by graphviz version 3.0.0 (20220226.1711)
 -->
<!-- Title: noname Pages: 1 -->
<svg width="3161pt" height="1388pt"
 viewBox="0.00 0.00 3161.48 1388.00" xmlns="http://www.w3.org/2000/svg" xmlns:xlink="http://www.w3.org/1999/xlink">
<g id="graph0" class="graph" transform="scale(1 1) rotate(0) translate(4 1384)">
<title>noname</title>
<polygon fill="white" stroke="transparent" points="-4,4 -4,-1384 3157.48,-1384 3157.48,4 -4,4"/>
<!-- 1 -->
<g id="node1" class="node">
<title>1</title>
<ellipse fill="none" stroke="black" cx="2100.48" cy="-192" rx="31.7" ry="18"/>
<text text-anchor="start" x="2083.98" y="-188.3" font-family="Times,serif" font-size="14.00">Thing</text>
</g>
<!-- 16 -->
<g id="node16" class="node">
<title>16</title>
<ellipse fill="none" stroke="black" cx="2492.48" cy="-105" rx="104.78" ry="18"/>
<text text-anchor="start" x="2419.98" y="-101.3" font-family="Times,serif" font-size="14.00">wordnetDomain_factotum</text>
</g>
<!-- 1&#45;&#45;16 -->
<g id="edge1" class="edge">
<title>1&#45;&#45;16</title>
<path fill="none" stroke="black" d="M2129.31,-184.11C2151.99,-178.16 2184.05,-168.54 2210.48,-156 2221.51,-150.77 2222.02,-145.19 2233.48,-141 2294.89,-118.56 2314.71,-131.86 2379.48,-123 2391.77,-121.32 2404.79,-119.45 2417.46,-117.57"/>
<text text-anchor="start" x="2233.48" y="-144.8" font-family="Times,serif" font-size="14.00">hasWordnetDomain</text>
</g>
<!-- 18 -->
<g id="node18" class="node">
<title>18</title>
<ellipse fill="none" stroke="black" cx="2053.48" cy="-105" rx="105.08" ry="18"/>
<text text-anchor="start" x="1980.48" y="-101.3" font-family="Times,serif" font-size="14.00">wordnetDomain_medicine</text>
</g>
<!-- 1&#45;&#45;18 -->
<g id="edge2" class="edge">
<title>1&#45;&#45;18</title>
<path fill="none" stroke="black" d="M2069.57,-187.09C2034.81,-181.98 1981.6,-171.78 1969.48,-156 1957.29,-140.12 1974.18,-128.25 1995.94,-120.08"/>
<text text-anchor="start" x="1969.48" y="-144.8" font-family="Times,serif" font-size="14.00">hasWordnetDomain</text>
</g>
<!-- 21 -->
<g id="node21" class="node">
<title>21</title>
<ellipse fill="none" stroke="black" cx="2273.48" cy="-105" rx="96.68" ry="18"/>
<text text-anchor="start" x="2206.98" y="-101.3" font-family="Times,serif" font-size="14.00">wordnetDomain_quality</text>
</g>
<!-- 1&#45;&#45;21 -->
<g id="edge3" class="edge">
<title>1&#45;&#45;21</title>
<path fill="none" stroke="black" d="M2095.87,-173.84C2094.11,-163.22 2094.03,-149.94 2101.48,-141 2104.98,-136.8 2158.6,-126.31 2205.05,-117.9"/>
<text text-anchor="start" x="2101.48" y="-144.8" font-family="Times,serif" font-size="14.00">hasWordnetDomain</text>
</g>
<!-- 2 -->
<g id="node2" class="node">
<title>2</title>
<ellipse fill="none" stroke="black" cx="1825.48" cy="-1362" rx="55.49" ry="18"/>
<text text-anchor="start" x="1790.98" y="-1358.3" font-family="Times,serif" font-size="14.00">Bill_Murray</text>
</g>
<!-- 3 -->
<g id="node3" class="node">
<title>3</title>
<ellipse fill="none" stroke="black" cx="1187.48" cy="-1275" rx="171.67" ry="18"/>
<text text-anchor="start" x="1063.48" y="-1271.3" font-family="Times,serif" font-size="14.00">wikicategory_Actors_from_Chicago,_Illinois</text>
</g>
<!-- 2&#45;&#45;3 -->
<g id="edge4" class="edge">
<title>2&#45;&#45;3</title>
<path fill="none" stroke="black" d="M1775.42,-1354.33C1670.92,-1340.41 1427.79,-1308.02 1289.13,-1289.54"/>
<text text-anchor="start" x="1545.48" y="-1314.8" font-family="Times,serif" font-size="14.00">type</text>
</g>
<!-- 4 -->
<g id="node4" class="node">
<title>4</title>
<ellipse fill="none" stroke="black" cx="559.48" cy="-1275" rx="138.38" ry="18"/>
<text text-anchor="start" x="460.98" y="-1271.3" font-family="Times,serif" font-size="14.00">wikicategory_American_comedians</text>
</g>
<!-- 2&#45;&#45;4 -->
<g id="edge5" class="edge">
<title>2&#45;&#45;4</title>
<path fill="none" stroke="black" d="M1770.95,-1358.91C1608.66,-1352.42 1114.68,-1330.76 706.48,-1293 690.37,-1291.51 673.28,-1289.72 656.68,-1287.88"/>
<text text-anchor="start" x="1137.48" y="-1314.8" font-family="Times,serif" font-size="14.00">type</text>
</g>
<!-- 5 -->
<g id="node5" class="node">
<title>5</title>
<ellipse fill="none" stroke="black" cx="201.48" cy="-1275" rx="201.46" ry="18"/>
<text text-anchor="start" x="54.48" y="-1271.3" font-family="Times,serif" font-size="14.00">wikicategory_American_comedians_of_Irish_descent</text>
</g>
<!-- 2&#45;&#45;5 -->
<g id="edge6" class="edge">
<title>2&#45;&#45;5</title>
<path fill="none" stroke="black" d="M1770.81,-1359.37C1630.19,-1355.07 1244.52,-1342.59 923.48,-1326 696.2,-1314.25 639.47,-1309.47 412.48,-1293 390.21,-1291.38 366.63,-1289.58 343.62,-1287.76"/>
<text text-anchor="start" x="923.48" y="-1314.8" font-family="Times,serif" font-size="14.00">type</text>
</g>
<!-- 6 -->
<g id="node6" class="node">
<title>6</title>
<ellipse fill="none" stroke="black" cx="856.48" cy="-1275" rx="141.07" ry="18"/>
<text text-anchor="start" x="755.98" y="-1271.3" font-family="Times,serif" font-size="14.00">wikicategory_American_film_actors</text>
</g>
<!-- 2&#45;&#45;6 -->
<g id="edge7" class="edge">
<title>2&#45;&#45;6</title>
<path fill="none" stroke="black" d="M1772.25,-1357.14C1641.67,-1347.54 1295.09,-1321.33 1006.48,-1293 990.31,-1291.41 973.17,-1289.6 956.49,-1287.76"/>
<text text-anchor="start" x="1366.48" y="-1314.8" font-family="Times,serif" font-size="14.00">type</text>
</g>
<!-- 7 -->
<g id="node7" class="node">
<title>7</title>
<ellipse fill="none" stroke="black" cx="2229.48" cy="-1275" rx="147.57" ry="18"/>
<text text-anchor="start" x="2123.98" y="-1271.3" font-family="Times,serif" font-size="14.00">wikicategory_American_screenwriters</text>
</g>
<!-- 2&#45;&#45;7 -->
<g id="edge8" class="edge">
<title>2&#45;&#45;7</title>
<path fill="none" stroke="black" d="M1870.65,-1351.5C1940.66,-1336.77 2075.92,-1308.31 2158.9,-1290.85"/>
<text text-anchor="start" x="2051.48" y="-1314.8" font-family="Times,serif" font-size="14.00">type</text>
</g>
<!-- 8 -->
<g id="node8" class="node">
<title>8</title>
<ellipse fill="none" stroke="black" cx="1536.48" cy="-1275" rx="159.77" ry="18"/>
<text text-anchor="start" x="1421.48" y="-1271.3" font-family="Times,serif" font-size="14.00">wikicategory_American_television_actors</text>
</g>
<!-- 2&#45;&#45;8 -->
<g id="edge9" class="edge">
<title>2&#45;&#45;8</title>
<path fill="none" stroke="black" d="M1783.46,-1350.29C1757.7,-1343.6 1724.09,-1334.63 1694.48,-1326 1657.88,-1315.33 1616.85,-1302.31 1585.77,-1292.23"/>
<text text-anchor="start" x="1694.48" y="-1314.8" font-family="Times,serif" font-size="14.00">type</text>
</g>
<!-- 9 -->
<g id="node9" class="node">
<title>9</title>
<ellipse fill="none" stroke="black" cx="1919.48" cy="-1275" rx="144.87" ry="18"/>
<text text-anchor="start" x="1815.98" y="-1271.3" font-family="Times,serif" font-size="14.00">wikicategory_American_voice_actors</text>
</g>
<!-- 2&#45;&#45;9 -->
<g id="edge10" class="edge">
<title>2&#45;&#45;9</title>
<path fill="none" stroke="black" d="M1843.61,-1344.61C1860.04,-1329.75 1884.16,-1307.94 1900.77,-1292.92"/>
<text text-anchor="start" x="1878.48" y="-1314.8" font-family="Times,serif" font-size="14.00">type</text>
</g>
<!-- 10 -->
<g id="node10" class="node">
<title>10</title>
<ellipse fill="none" stroke="black" cx="2532.48" cy="-1113" rx="112.38" ry="18"/>
<text text-anchor="start" x="2453.98" y="-1109.3" font-family="Times,serif" font-size="14.00">wikicategory_Living_people</text>
</g>
<!-- 2&#45;&#45;10 -->
<g id="edge11" class="edge">
<title>2&#45;&#45;10</title>
<path fill="none" stroke="black" d="M1880.72,-1361.13C2019.87,-1360.99 2376.78,-1357.52 2419.48,-1326 2466.44,-1291.34 2437.42,-1254.18 2465.48,-1203 2480.27,-1176.04 2502.53,-1148.23 2517.28,-1131.04"/>
<text text-anchor="start" x="2450.48" y="-1271.3" font-family="Times,serif" font-size="14.00">type</text>
</g>
<!-- 11 -->
<g id="node11" class="node">
<title>11</title>
<ellipse fill="none" stroke="black" cx="2642.48" cy="-1221" rx="176.27" ry="18"/>
<text text-anchor="start" x="2514.98" y="-1217.3" font-family="Times,serif" font-size="14.00">wikicategory_People_from_Wilmette,_Illinois</text>
</g>
<!-- 2&#45;&#45;11 -->
<g id="edge12" class="edge">
<title>2&#45;&#45;11</title>
<path fill="none" stroke="black" d="M1881.02,-1361.31C2015.77,-1361.53 2356.95,-1358.73 2465.48,-1326 2527.07,-1307.42 2589.8,-1263.34 2621.45,-1238.95"/>
<text text-anchor="start" x="2502.48" y="-1314.8" font-family="Times,serif" font-size="14.00">type</text>
</g>
<!-- 12 -->
<g id="node12" class="node">
<title>12</title>
<ellipse fill="none" stroke="black" cx="2959.48" cy="-1221" rx="135.68" ry="18"/>
<text text-anchor="start" x="2862.98" y="-1217.3" font-family="Times,serif" font-size="14.00">wikicategory_Second_City_alumni</text>
</g>
<!-- 2&#45;&#45;12 -->
<g id="edge13" class="edge">
<title>2&#45;&#45;12</title>
<path fill="none" stroke="black" d="M1881.12,-1361.78C2000.67,-1362.68 2290.64,-1360.71 2530.48,-1326 2669.09,-1305.94 2828.42,-1261.52 2908.26,-1237.74"/>
<text text-anchor="start" x="2614.48" y="-1314.8" font-family="Times,serif" font-size="14.00">type</text>
</g>
<!-- 24 -->
<g id="node24" class="node">
<title>24</title>
<ellipse fill="none" stroke="black" cx="1536.48" cy="-1167" rx="105.08" ry="18"/>
<text text-anchor="start" x="1463.48" y="-1163.3" font-family="Times,serif" font-size="14.00">wordnet_actor_109765278</text>
</g>
<!-- 2&#45;&#45;24 -->
<g id="edge14" class="edge">
<title>2&#45;&#45;24</title>
<path fill="none" stroke="black" d="M1804.61,-1345.1C1787.31,-1331.67 1762.26,-1311.71 1741.48,-1293 1724.67,-1277.86 1723.68,-1270.44 1705.48,-1257 1664.22,-1226.53 1648.88,-1226.88 1603.48,-1203 1591.87,-1196.89 1579.1,-1190.21 1567.86,-1184.35"/>
<text text-anchor="start" x="1741.48" y="-1271.3" font-family="Times,serif" font-size="14.00">type</text>
</g>
<!-- 35 -->
<g id="node35" class="node">
<title>35</title>
<ellipse fill="none" stroke="black" cx="2405.48" cy="-777" rx="111.28" ry="18"/>
<text text-anchor="start" x="2327.98" y="-773.3" font-family="Times,serif" font-size="14.00">wordnet_person_100007846</text>
</g>
<!-- 2&#45;&#45;35 -->
<g id="edge15" class="edge">
<title>2&#45;&#45;35</title>
<path fill="none" stroke="black" d="M1880.05,-1358.69C2024.43,-1351.85 2405.48,-1328.79 2405.48,-1276 2405.48,-1276 2405.48,-1276 2405.48,-863 2405.48,-839.54 2405.48,-812.43 2405.48,-795.26"/>
<text text-anchor="start" x="2405.48" y="-1055.3" font-family="Times,serif" font-size="14.00">type</text>
</g>
<!-- 3&#45;&#45;24 -->
<g id="edge16" class="edge">
<title>3&#45;&#45;24</title>
<path fill="none" stroke="black" d="M1240.87,-1257.79C1307.99,-1237.4 1422.27,-1202.69 1487.33,-1182.93"/>
<text text-anchor="start" x="1414.48" y="-1217.3" font-family="Times,serif" font-size="14.00">subClassOf</text>
</g>
<!-- 27 -->
<g id="node27" class="node">
<title>27</title>
<ellipse fill="none" stroke="black" cx="883.48" cy="-1167" rx="122.38" ry="18"/>
<text text-anchor="start" x="797.48" y="-1163.3" font-family="Times,serif" font-size="14.00">wordnet_comedian_109940146</text>
</g>
<!-- 4&#45;&#45;27 -->
<g id="edge17" class="edge">
<title>4&#45;&#45;27</title>
<path fill="none" stroke="black" d="M607.99,-1258.13C669.42,-1238.03 774.62,-1203.62 835.7,-1183.63"/>
<text text-anchor="start" x="769.48" y="-1217.3" font-family="Times,serif" font-size="14.00">subClassOf</text>
</g>
<!-- 5&#45;&#45;27 -->
<g id="edge18" class="edge">
<title>5&#45;&#45;27</title>
<path fill="none" stroke="black" d="M283.34,-1258.52C365.2,-1243.32 494.8,-1219.99 607.48,-1203 668.26,-1193.84 736.81,-1185.14 790.39,-1178.7"/>
<text text-anchor="start" x="607.48" y="-1217.3" font-family="Times,serif" font-size="14.00">subClassOf</text>
</g>
<!-- 6&#45;&#45;24 -->
<g id="edge19" class="edge">
<title>6&#45;&#45;24</title>
<path fill="none" stroke="black" d="M928.3,-1259.43C1005.82,-1244.04 1133.05,-1219.71 1243.48,-1203 1312.24,-1192.6 1390.47,-1183.38 1448.79,-1177.03"/>
<text text-anchor="start" x="1243.48" y="-1217.3" font-family="Times,serif" font-size="14.00">subClassOf</text>
</g>
<!-- 38 -->
<g id="node38" class="node">
<title>38</title>
<ellipse fill="none" stroke="black" cx="2132.48" cy="-1167" rx="131.08" ry="18"/>
<text text-anchor="start" x="2039.48" y="-1163.3" font-family="Times,serif" font-size="14.00">wordnet_screenwriter_110564400</text>
</g>
<!-- 7&#45;&#45;38 -->
<g id="edge20" class="edge">
<title>7&#45;&#45;38</title>
<path fill="none" stroke="black" d="M2213.9,-1256.97C2195.8,-1237.19 2166.11,-1204.75 2148.03,-1184.99"/>
<text text-anchor="start" x="2194.48" y="-1217.3" font-family="Times,serif" font-size="14.00">subClassOf</text>
</g>
<!-- 8&#45;&#45;24 -->
<g id="edge21" class="edge">
<title>8&#45;&#45;24</title>
<path fill="none" stroke="black" d="M1536.48,-1256.97C1536.48,-1237.31 1536.48,-1205.13 1536.48,-1185.34"/>
<text text-anchor="start" x="1536.48" y="-1217.3" font-family="Times,serif" font-size="14.00">subClassOf</text>
</g>
<!-- 9&#45;&#45;24 -->
<g id="edge22" class="edge">
<title>9&#45;&#45;24</title>
<path fill="none" stroke="black" d="M1885.5,-1257.38C1851.19,-1241.25 1796.29,-1217.18 1746.48,-1203 1705.96,-1191.47 1659.88,-1183.26 1621.23,-1177.71"/>
<text text-anchor="start" x="1842.48" y="-1217.3" font-family="Times,serif" font-size="14.00">subClassOf</text>
</g>
<!-- 10&#45;&#45;35 -->
<g id="edge23" class="edge">
<title>10&#45;&#45;35</title>
<path fill="none" stroke="black" d="M2522.57,-1095.01C2511.61,-1074.58 2495.48,-1038.94 2495.48,-1006 2495.48,-1006 2495.48,-1006 2495.48,-863 2495.48,-831.51 2466.01,-808.23 2440.79,-794.07"/>
<text text-anchor="start" x="2495.48" y="-947.3" font-family="Times,serif" font-size="14.00">subClassOf</text>
</g>
<!-- 11&#45;&#45;35 -->
<g id="edge24" class="edge">
<title>11&#45;&#45;35</title>
<path fill="none" stroke="black" d="M2646.95,-1202.88C2651.99,-1182.03 2659.48,-1145.68 2659.48,-1114 2659.48,-1114 2659.48,-1114 2659.48,-863 2659.48,-825.92 2560.88,-802.05 2486.55,-789.32"/>
<text text-anchor="start" x="2659.48" y="-1001.3" font-family="Times,serif" font-size="14.00">subClassOf</text>
</g>
<!-- 25 -->
<g id="node25" class="node">
<title>25</title>
<ellipse fill="none" stroke="black" cx="2959.48" cy="-1059" rx="118.08" ry="18"/>
<text text-anchor="start" x="2876.48" y="-1055.3" font-family="Times,serif" font-size="14.00">wordnet_alumnus_109786338</text>
</g>
<!-- 12&#45;&#45;25 -->
<g id="edge25" class="edge">
<title>12&#45;&#45;25</title>
<path fill="none" stroke="black" d="M2959.48,-1202.88C2959.48,-1172.24 2959.48,-1108.38 2959.48,-1077.48"/>
<text text-anchor="start" x="2959.48" y="-1163.3" font-family="Times,serif" font-size="14.00">subClassOf</text>
</g>
<!-- 13 -->
<g id="node13" class="node">
<title>13</title>
<ellipse fill="none" stroke="black" cx="2162.48" cy="-18" rx="68.49" ry="18"/>
<text text-anchor="start" x="2117.98" y="-14.3" font-family="Times,serif" font-size="14.00">wordnetDomain</text>
</g>
<!-- 14 -->
<g id="node14" class="node">
<title>14</title>
<ellipse fill="none" stroke="black" cx="1493.48" cy="-864" rx="81.79" ry="18"/>
<text text-anchor="start" x="1438.48" y="-860.3" font-family="Times,serif" font-size="14.00">wordnetDomain_art</text>
</g>
<!-- 14&#45;&#45;13 -->
<g id="edge26" class="edge">
<title>14&#45;&#45;13</title>
<path fill="none" stroke="black" d="M1559.22,-853.15C1601.46,-842.66 1648.48,-821.27 1648.48,-778 1648.48,-778 1648.48,-778 1648.48,-104 1648.48,-59.06 1958.29,-32.67 2096.86,-23.11"/>
<text text-anchor="start" x="1648.48" y="-405.8" font-family="Times,serif" font-size="14.00">type</text>
</g>
<!-- 15 -->
<g id="node15" class="node">
<title>15</title>
<ellipse fill="none" stroke="black" cx="2778.48" cy="-615" rx="99.38" ry="18"/>
<text text-anchor="start" x="2709.98" y="-611.3" font-family="Times,serif" font-size="14.00">wordnetDomain_biology</text>
</g>
<!-- 15&#45;&#45;13 -->
<g id="edge27" class="edge">
<title>15&#45;&#45;13</title>
<path fill="none" stroke="black" d="M2784.53,-596.99C2791.34,-576.25 2801.48,-540.01 2801.48,-508 2801.48,-508 2801.48,-508 2801.48,-104 2801.48,-46.82 2394.22,-26.76 2229.96,-21"/>
<text text-anchor="start" x="2801.48" y="-318.8" font-family="Times,serif" font-size="14.00">type</text>
</g>
<!-- 16&#45;&#45;13 -->
<g id="edge28" class="edge">
<title>16&#45;&#45;13</title>
<path fill="none" stroke="black" d="M2436.88,-89.68C2373.04,-73.24 2269.46,-46.55 2209.49,-31.11"/>
<text text-anchor="start" x="2346.48" y="-57.8" font-family="Times,serif" font-size="14.00">type</text>
</g>
<!-- 17 -->
<g id="node17" class="node">
<title>17</title>
<ellipse fill="none" stroke="black" cx="1975.48" cy="-864" rx="104.78" ry="18"/>
<text text-anchor="start" x="1902.98" y="-860.3" font-family="Times,serif" font-size="14.00">wordnetDomain_literature</text>
</g>
<!-- 17&#45;&#45;13 -->
<g id="edge29" class="edge">
<title>17&#45;&#45;13</title>
<path fill="none" stroke="black" d="M1938.06,-847.05C1911.85,-833.09 1881.48,-810.01 1881.48,-778 1881.48,-778 1881.48,-778 1881.48,-104 1881.48,-58.7 2016.95,-35.33 2099.77,-25.27"/>
<text text-anchor="start" x="1881.48" y="-405.8" font-family="Times,serif" font-size="14.00">type</text>
</g>
<!-- 18&#45;&#45;13 -->
<g id="edge30" class="edge">
<title>18&#45;&#45;13</title>
<path fill="none" stroke="black" d="M2075.02,-87.21C2094.37,-72.11 2122.62,-50.09 2141.73,-35.18"/>
<text text-anchor="start" x="2114.48" y="-57.8" font-family="Times,serif" font-size="14.00">type</text>
</g>
<!-- 19 -->
<g id="node19" class="node">
<title>19</title>
<ellipse fill="none" stroke="black" cx="2885.48" cy="-723" rx="106.68" ry="18"/>
<text text-anchor="start" x="2811.48" y="-719.3" font-family="Times,serif" font-size="14.00">wordnetDomain_pedagogy</text>
</g>
<!-- 19&#45;&#45;13 -->
<g id="edge31" class="edge">
<title>19&#45;&#45;13</title>
<path fill="none" stroke="black" d="M2887.32,-704.76C2889.4,-683.81 2892.48,-647.35 2892.48,-616 2892.48,-616 2892.48,-616 2892.48,-104 2892.48,-37.73 2411.73,-23.04 2230.5,-19.86"/>
<text text-anchor="start" x="2892.48" y="-362.3" font-family="Times,serif" font-size="14.00">type</text>
</g>
<!-- 20 -->
<g id="node20" class="node">
<title>20</title>
<ellipse fill="none" stroke="black" cx="2005.48" cy="-669" rx="96.38" ry="18"/>
<text text-anchor="start" x="1939.48" y="-665.3" font-family="Times,serif" font-size="14.00">wordnetDomain_person</text>
</g>
<!-- 20&#45;&#45;13 -->
<g id="edge32" class="edge">
<title>20&#45;&#45;13</title>
<path fill="none" stroke="black" d="M1979.98,-651.42C1954.94,-632.91 1920.48,-600.45 1920.48,-562 1920.48,-562 1920.48,-562 1920.48,-104 1920.48,-65.15 2032.92,-39.77 2104.52,-27.55"/>
<text text-anchor="start" x="1920.48" y="-318.8" font-family="Times,serif" font-size="14.00">type</text>
</g>
<!-- 21&#45;&#45;13 -->
<g id="edge33" class="edge">
<title>21&#45;&#45;13</title>
<path fill="none" stroke="black" d="M2251.82,-87.41C2232.13,-72.34 2203.26,-50.23 2183.72,-35.26"/>
<text text-anchor="start" x="2224.48" y="-57.8" font-family="Times,serif" font-size="14.00">type</text>
</g>
<!-- 22 -->
<g id="node22" class="node">
<title>22</title>
<ellipse fill="none" stroke="black" cx="3054.48" cy="-864" rx="95.58" ry="18"/>
<text text-anchor="start" x="2988.98" y="-860.3" font-family="Times,serif" font-size="14.00">wordnetDomain_school</text>
</g>
<!-- 22&#45;&#45;13 -->
<g id="edge34" class="edge">
<title>22&#45;&#45;13</title>
<path fill="none" stroke="black" d="M3046.62,-845.82C3039.62,-828.93 3030.48,-802.23 3030.48,-778 3030.48,-778 3030.48,-778 3030.48,-104 3030.48,-23.8 2435.92,-18.13 2230.95,-18.56"/>
<text text-anchor="start" x="3030.48" y="-405.8" font-family="Times,serif" font-size="14.00">type</text>
</g>
<!-- 23 -->
<g id="node23" class="node">
<title>23</title>
<ellipse fill="none" stroke="black" cx="1715.48" cy="-1005" rx="96.68" ry="18"/>
<text text-anchor="start" x="1648.98" y="-1001.3" font-family="Times,serif" font-size="14.00">wordnetDomain_theatre</text>
</g>
<!-- 23&#45;&#45;13 -->
<g id="edge35" class="edge">
<title>23&#45;&#45;13</title>
<path fill="none" stroke="black" d="M1784.66,-992.31C1798.95,-987.14 1812.87,-979.71 1823.48,-969 1843.32,-948.98 1842.48,-936.68 1842.48,-908.5 1842.48,-908.5 1842.48,-908.5 1842.48,-104 1842.48,-51.84 2003.33,-30.91 2096.95,-23.15"/>
<text text-anchor="start" x="1842.48" y="-503.3" font-family="Times,serif" font-size="14.00">type</text>
</g>
<!-- 24&#45;&#45;23 -->
<g id="edge37" class="edge">
<title>24&#45;&#45;23</title>
<path fill="none" stroke="black" d="M1559.31,-1149.37C1566.82,-1143.7 1575.13,-1137.22 1582.48,-1131 1626.02,-1094.15 1674.08,-1047.32 1698.79,-1022.77"/>
<text text-anchor="start" x="1623.48" y="-1109.3" font-family="Times,serif" font-size="14.00">hasWordnetDomain</text>
</g>
<!-- 34 -->
<g id="node34" class="node">
<title>34</title>
<ellipse fill="none" stroke="black" cx="1474.48" cy="-1059" rx="123.48" ry="18"/>
<text text-anchor="start" x="1387.48" y="-1055.3" font-family="Times,serif" font-size="14.00">wordnet_performer_110415638</text>
</g>
<!-- 24&#45;&#45;34 -->
<g id="edge36" class="edge">
<title>24&#45;&#45;34</title>
<path fill="none" stroke="black" d="M1526.52,-1148.97C1514.95,-1129.19 1495.98,-1096.75 1484.42,-1076.99"/>
<text text-anchor="start" x="1515.48" y="-1109.3" font-family="Times,serif" font-size="14.00">subClassOf</text>
</g>
<!-- 25&#45;&#45;22 -->
<g id="edge39" class="edge">
<title>25&#45;&#45;22</title>
<path fill="none" stroke="black" d="M2987.12,-1041.4C2994.14,-1036.19 3001.18,-1029.96 3006.48,-1023 3039.48,-979.66 3049.94,-913.62 3053.14,-882.45"/>
<text text-anchor="start" x="3044.48" y="-947.3" font-family="Times,serif" font-size="14.00">hasWordnetDomain</text>
</g>
<!-- 37 -->
<g id="node37" class="node">
<title>37</title>
<ellipse fill="none" stroke="black" cx="2905.48" cy="-951" rx="113.18" ry="18"/>
<text text-anchor="start" x="2826.48" y="-947.3" font-family="Times,serif" font-size="14.00">wordnet_scholar_110557854</text>
</g>
<!-- 25&#45;&#45;37 -->
<g id="edge38" class="edge">
<title>25&#45;&#45;37</title>
<path fill="none" stroke="black" d="M2950.81,-1040.97C2940.73,-1021.19 2924.2,-988.75 2914.14,-968.99"/>
<text text-anchor="start" x="2939.48" y="-1001.3" font-family="Times,serif" font-size="14.00">subClassOf</text>
</g>
<!-- 26 -->
<g id="node26" class="node">
<title>26</title>
<ellipse fill="none" stroke="black" cx="2180.48" cy="-366" rx="133.48" ry="18"/>
<text text-anchor="start" x="2085.98" y="-362.3" font-family="Times,serif" font-size="14.00">wordnet_causal_agent_100007347</text>
</g>
<!-- 26&#45;&#45;16 -->
<g id="edge41" class="edge">
<title>26&#45;&#45;16</title>
<path fill="none" stroke="black" d="M2262.67,-351.74C2275.56,-346.66 2287.79,-339.65 2297.48,-330 2331.06,-296.57 2301.22,-266.75 2328.48,-228 2362.69,-179.39 2422.34,-142.16 2459.5,-122.23"/>
<text text-anchor="start" x="2328.48" y="-231.8" font-family="Times,serif" font-size="14.00">hasWordnetDomain</text>
</g>
<!-- 36 -->
<g id="node36" class="node">
<title>36</title>
<ellipse fill="none" stroke="black" cx="2141.48" cy="-279" rx="141.88" ry="18"/>
<text text-anchor="start" x="2040.48" y="-275.3" font-family="Times,serif" font-size="14.00">wordnet_physical_entity_100001930</text>
</g>
<!-- 26&#45;&#45;36 -->
<g id="edge40" class="edge">
<title>26&#45;&#45;36</title>
<path fill="none" stroke="black" d="M2158.78,-348.07C2153.55,-342.86 2148.58,-336.71 2145.48,-330 2140.81,-319.88 2139.81,-307.38 2139.98,-297.41"/>
<text text-anchor="start" x="2145.48" y="-318.8" font-family="Times,serif" font-size="14.00">subClassOf</text>
</g>
<!-- 27&#45;&#45;14 -->
<g id="edge43" class="edge">
<title>27&#45;&#45;14</title>
<path fill="none" stroke="black" d="M916.71,-1149.6C1023.49,-1096.91 1357,-932.35 1461.7,-880.68"/>
<text text-anchor="start" x="1245.48" y="-1001.3" font-family="Times,serif" font-size="14.00">hasWordnetDomain</text>
</g>
<!-- 27&#45;&#45;34 -->
<g id="edge42" class="edge">
<title>27&#45;&#45;34</title>
<path fill="none" stroke="black" d="M982.79,-1156.41C1037.73,-1150.45 1107.12,-1141.86 1168.48,-1131 1256.29,-1115.47 1356.75,-1090.81 1417.89,-1075.03"/>
<text text-anchor="start" x="1336.48" y="-1109.3" font-family="Times,serif" font-size="14.00">subClassOf</text>
</g>
<!-- 28 -->
<g id="node28" class="node">
<title>28</title>
<ellipse fill="none" stroke="black" cx="2237.48" cy="-864" rx="139.98" ry="18"/>
<text text-anchor="start" x="2137.98" y="-860.3" font-family="Times,serif" font-size="14.00">wordnet_communicator_109610660</text>
</g>
<!-- 28&#45;&#45;20 -->
<g id="edge45" class="edge">
<title>28&#45;&#45;20</title>
<path fill="none" stroke="black" d="M2191.26,-847.01C2144.22,-828.48 2072.29,-793.6 2029.48,-741 2016.75,-725.36 2010.64,-702.63 2007.8,-687.13"/>
<text text-anchor="start" x="2088.48" y="-773.3" font-family="Times,serif" font-size="14.00">hasWordnetDomain</text>
</g>
<!-- 28&#45;&#45;35 -->
<g id="edge44" class="edge">
<title>28&#45;&#45;35</title>
<path fill="none" stroke="black" d="M2266.69,-846.22C2284.39,-836.23 2307.53,-823.5 2328.48,-813 2341.48,-806.49 2355.94,-799.78 2368.79,-794"/>
<text text-anchor="start" x="2328.48" y="-816.8" font-family="Times,serif" font-size="14.00">subClassOf</text>
</g>
<!-- 29 -->
<g id="node29" class="node">
<title>29</title>
<ellipse fill="none" stroke="black" cx="1689.48" cy="-951" rx="125.38" ry="18"/>
<text text-anchor="start" x="1600.98" y="-947.3" font-family="Times,serif" font-size="14.00">wordnet_entertainer_109616922</text>
</g>
<!-- 29&#45;&#45;14 -->
<g id="edge47" class="edge">
<title>29&#45;&#45;14</title>
<path fill="none" stroke="black" d="M1652.15,-933.81C1616.61,-918.4 1563.52,-895.37 1528.69,-880.27"/>
<text text-anchor="start" x="1603.48" y="-903.8" font-family="Times,serif" font-size="14.00">hasWordnetDomain</text>
</g>
<!-- 29&#45;&#45;35 -->
<g id="edge46" class="edge">
<title>29&#45;&#45;35</title>
<path fill="none" stroke="black" d="M1704.93,-932.8C1729.4,-905.99 1776.56,-856.23 1798.48,-846 1821.42,-835.29 2148.02,-802.71 2312.39,-786.85"/>
<text text-anchor="start" x="1798.48" y="-860.3" font-family="Times,serif" font-size="14.00">subClassOf</text>
</g>
<!-- 30 -->
<g id="node30" class="node">
<title>30</title>
<ellipse fill="none" stroke="black" cx="2814.48" cy="-864" rx="126.98" ry="18"/>
<text text-anchor="start" x="2724.98" y="-860.3" font-family="Times,serif" font-size="14.00">wordnet_intellectual_109621545</text>
</g>
<!-- 30&#45;&#45;19 -->
<g id="edge49" class="edge">
<title>30&#45;&#45;19</title>
<path fill="none" stroke="black" d="M2823.19,-845.96C2836.81,-819.28 2863.03,-767.95 2876.7,-741.18"/>
<text text-anchor="start" x="2838.48" y="-816.8" font-family="Times,serif" font-size="14.00">hasWordnetDomain</text>
</g>
<!-- 30&#45;&#45;35 -->
<g id="edge48" class="edge">
<title>30&#45;&#45;35</title>
<path fill="none" stroke="black" d="M2775.95,-846.85C2747.97,-835.74 2708.97,-821.51 2673.48,-813 2617.7,-799.63 2554.08,-791.04 2502.83,-785.73"/>
<text text-anchor="start" x="2720.48" y="-816.8" font-family="Times,serif" font-size="14.00">subClassOf</text>
</g>
<!-- 31 -->
<g id="node31" class="node">
<title>31</title>
<ellipse fill="none" stroke="black" cx="2503.48" cy="-561" rx="130.78" ry="18"/>
<text text-anchor="start" x="2410.98" y="-557.3" font-family="Times,serif" font-size="14.00">wordnet_living_thing_100004258</text>
</g>
<!-- 31&#45;&#45;16 -->
<g id="edge51" class="edge">
<title>31&#45;&#45;16</title>
<path fill="none" stroke="black" d="M2537.09,-543.46C2545.9,-538.25 2555.01,-532 2562.48,-525 2583.71,-505.11 2589.12,-498.19 2599.48,-471 2624.38,-405.68 2574.39,-368.41 2619.48,-315 2637.17,-294.05 2662.17,-319.03 2678.48,-297 2688,-284.14 2685.27,-275.49 2678.48,-261 2647.01,-193.81 2570.52,-145.59 2526.05,-122.12"/>
<text text-anchor="start" x="2619.48" y="-318.8" font-family="Times,serif" font-size="14.00">hasWordnetDomain</text>
</g>
<!-- 40 -->
<g id="node40" class="node">
<title>40</title>
<ellipse fill="none" stroke="black" cx="2481.48" cy="-453" rx="109.38" ry="18"/>
<text text-anchor="start" x="2405.48" y="-449.3" font-family="Times,serif" font-size="14.00">wordnet_whole_100003553</text>
</g>
<!-- 31&#45;&#45;40 -->
<g id="edge50" class="edge">
<title>31&#45;&#45;40</title>
<path fill="none" stroke="black" d="M2499.95,-542.97C2495.87,-523.31 2489.19,-491.13 2485.08,-471.34"/>
<text text-anchor="start" x="2495.48" y="-503.3" font-family="Times,serif" font-size="14.00">subClassOf</text>
</g>
<!-- 32 -->
<g id="node32" class="node">
<title>32</title>
<ellipse fill="none" stroke="black" cx="2440.48" cy="-366" rx="109.38" ry="18"/>
<text text-anchor="start" x="2364.48" y="-362.3" font-family="Times,serif" font-size="14.00">wordnet_object_100002684</text>
</g>
<!-- 32&#45;&#45;16 -->
<g id="edge53" class="edge">
<title>32&#45;&#45;16</title>
<path fill="none" stroke="black" d="M2439.11,-347.91C2437.44,-321.77 2435.79,-270.43 2444.48,-228 2452.47,-188.98 2471.97,-146.3 2483.51,-123.19"/>
<text text-anchor="start" x="2444.48" y="-231.8" font-family="Times,serif" font-size="14.00">hasWordnetDomain</text>
</g>
<!-- 32&#45;&#45;36 -->
<g id="edge52" class="edge">
<title>32&#45;&#45;36</title>
<path fill="none" stroke="black" d="M2388.06,-350.1C2334.3,-334.81 2251.02,-311.14 2196.38,-295.61"/>
<text text-anchor="start" x="2308.48" y="-318.8" font-family="Times,serif" font-size="14.00">subClassOf</text>
</g>
<!-- 33 -->
<g id="node33" class="node">
<title>33</title>
<ellipse fill="none" stroke="black" cx="2503.48" cy="-669" rx="120.78" ry="18"/>
<text text-anchor="start" x="2418.48" y="-665.3" font-family="Times,serif" font-size="14.00">wordnet_organism_100004475</text>
</g>
<!-- 33&#45;&#45;16 -->
<g id="edge55" class="edge">
<title>33&#45;&#45;16</title>
<path fill="none" stroke="black" d="M2566.19,-653.47C2611.4,-638.84 2664.48,-611.19 2664.48,-562 2664.48,-562 2664.48,-562 2664.48,-408.5 2664.48,-380.9 2660.15,-368.63 2678.48,-348 2694.17,-330.34 2714.9,-349.32 2728.48,-330 2749.79,-299.68 2749.36,-338.23 2677.48,-228 2661.31,-203.2 2660.29,-194.02 2638.48,-174 2617.49,-154.72 2609.1,-153.5 2583.48,-141 2568.72,-133.8 2552.09,-127.03 2537.11,-121.4"/>
<text text-anchor="start" x="2678.48" y="-362.3" font-family="Times,serif" font-size="14.00">hasWordnetDomain</text>
</g>
<!-- 33&#45;&#45;31 -->
<g id="edge54" class="edge">
<title>33&#45;&#45;31</title>
<path fill="none" stroke="black" d="M2503.48,-650.97C2503.48,-631.31 2503.48,-599.13 2503.48,-579.34"/>
<text text-anchor="start" x="2503.48" y="-611.3" font-family="Times,serif" font-size="14.00">subClassOf</text>
</g>
<!-- 34&#45;&#45;14 -->
<g id="edge57" class="edge">
<title>34&#45;&#45;14</title>
<path fill="none" stroke="black" d="M1464.98,-1040.78C1452.84,-1016.46 1434.69,-970.79 1446.48,-933 1452.55,-913.55 1466.35,-894.75 1477.43,-881.87"/>
<text text-anchor="start" x="1446.48" y="-947.3" font-family="Times,serif" font-size="14.00">hasWordnetDomain</text>
</g>
<!-- 34&#45;&#45;29 -->
<g id="edge56" class="edge">
<title>34&#45;&#45;29</title>
<path fill="none" stroke="black" d="M1487.16,-1041.01C1500.24,-1024.7 1522.11,-1000.61 1546.48,-987 1564.67,-976.85 1585.77,-969.61 1606.09,-964.46"/>
<text text-anchor="start" x="1546.48" y="-1001.3" font-family="Times,serif" font-size="14.00">subClassOf</text>
</g>
<!-- 35&#45;&#45;15 -->
<g id="edge61" class="edge">
<title>35&#45;&#45;15</title>
<path fill="none" stroke="black" d="M2467.84,-762.07C2489.57,-756.47 2513.9,-749.35 2535.48,-741 2617.12,-709.43 2707.3,-658.44 2751.31,-632.42"/>
<text text-anchor="start" x="2613.48" y="-719.3" font-family="Times,serif" font-size="14.00">hasWordnetDomain</text>
</g>
<!-- 35&#45;&#45;20 -->
<g id="edge62" class="edge">
<title>35&#45;&#45;20</title>
<path fill="none" stroke="black" d="M2298.68,-771.83C2219.2,-767.37 2118.22,-758.43 2080.48,-741 2054.27,-728.9 2031.37,-703.94 2017.97,-687.08"/>
<text text-anchor="start" x="2080.48" y="-719.3" font-family="Times,serif" font-size="14.00">hasWordnetDomain</text>
</g>
<!-- 35&#45;&#45;26 -->
<g id="edge58" class="edge">
<title>35&#45;&#45;26</title>
<path fill="none" stroke="black" d="M2366.52,-760.01C2332.49,-743.15 2288.48,-713.03 2288.48,-670 2288.48,-670 2288.48,-670 2288.48,-452 2288.48,-418.6 2256.18,-396.31 2226.91,-382.96"/>
<text text-anchor="start" x="2288.48" y="-557.3" font-family="Times,serif" font-size="14.00">subClassOf</text>
</g>
<!-- 35&#45;&#45;33 -->
<g id="edge59" class="edge">
<title>35&#45;&#45;33</title>
<path fill="none" stroke="black" d="M2421.23,-758.97C2439.52,-739.19 2469.5,-706.75 2487.78,-686.99"/>
<text text-anchor="start" x="2468.48" y="-719.3" font-family="Times,serif" font-size="14.00">subClassOf</text>
</g>
<!-- 42 -->
<g id="node42" class="node">
<title>42</title>
<ellipse fill="none" stroke="black" cx="2190.48" cy="-669" rx="67.69" ry="18"/>
<text text-anchor="start" x="2146.48" y="-665.3" font-family="Times,serif" font-size="14.00">yagoLegalActor</text>
</g>
<!-- 35&#45;&#45;42 -->
<g id="edge60" class="edge">
<title>35&#45;&#45;42</title>
<path fill="none" stroke="black" d="M2308.93,-768.04C2268.01,-762.79 2226.36,-754.34 2211.48,-741 2196.36,-727.44 2191.9,-703.58 2190.71,-687.29"/>
<text text-anchor="start" x="2211.48" y="-719.3" font-family="Times,serif" font-size="14.00">subClassOf</text>
</g>
<!-- 36&#45;&#45;1 -->
<g id="edge63" class="edge">
<title>36&#45;&#45;1</title>
<path fill="none" stroke="black" d="M2133.19,-260.8C2125.98,-245.86 2115.61,-224.36 2108.49,-209.6"/>
<text text-anchor="start" x="2122.48" y="-231.8" font-family="Times,serif" font-size="14.00">subClassOf</text>
</g>
<!-- 37&#45;&#45;22 -->
<g id="edge65" class="edge">
<title>37&#45;&#45;22</title>
<path fill="none" stroke="black" d="M2910.47,-932.88C2914.48,-922 2921.17,-908.41 2931.48,-900 2945.59,-888.49 2963.28,-880.77 2980.81,-875.58"/>
<text text-anchor="start" x="2931.48" y="-903.8" font-family="Times,serif" font-size="14.00">hasWordnetDomain</text>
</g>
<!-- 37&#45;&#45;30 -->
<g id="edge64" class="edge">
<title>37&#45;&#45;30</title>
<path fill="none" stroke="black" d="M2864.72,-934.01C2855.29,-928.95 2845.87,-922.64 2838.48,-915 2829.65,-905.86 2823.54,-892.85 2819.7,-882.4"/>
<text text-anchor="start" x="2838.48" y="-903.8" font-family="Times,serif" font-size="14.00">subClassOf</text>
</g>
<!-- 38&#45;&#45;17 -->
<g id="edge67" class="edge">
<title>38&#45;&#45;17</title>
<path fill="none" stroke="black" d="M2084.39,-1150.11C2031.93,-1129.87 1950.74,-1089.33 1915.48,-1023 1889.59,-974.29 1934.09,-911.91 1959.55,-882.21"/>
<text text-anchor="start" x="1915.48" y="-1001.3" font-family="Times,serif" font-size="14.00">hasWordnetDomain</text>
</g>
<!-- 39 -->
<g id="node39" class="node">
<title>39</title>
<ellipse fill="none" stroke="black" cx="2132.48" cy="-1059" rx="128.08" ry="18"/>
<text text-anchor="start" x="2041.98" y="-1055.3" font-family="Times,serif" font-size="14.00">wordnet_scriptwriter_110564905</text>
</g>
<!-- 38&#45;&#45;39 -->
<g id="edge66" class="edge">
<title>38&#45;&#45;39</title>
<path fill="none" stroke="black" d="M2132.48,-1148.97C2132.48,-1129.31 2132.48,-1097.13 2132.48,-1077.34"/>
<text text-anchor="start" x="2132.48" y="-1109.3" font-family="Times,serif" font-size="14.00">subClassOf</text>
</g>
<!-- 39&#45;&#45;17 -->
<g id="edge69" class="edge">
<title>39&#45;&#45;17</title>
<path fill="none" stroke="black" d="M2100.77,-1041.56C2073.85,-1026.12 2035.94,-1000.69 2012.48,-969 1992.76,-942.35 1982.79,-904.23 1978.41,-882.3"/>
<text text-anchor="start" x="2012.48" y="-947.3" font-family="Times,serif" font-size="14.00">hasWordnetDomain</text>
</g>
<!-- 41 -->
<g id="node41" class="node">
<title>41</title>
<ellipse fill="none" stroke="black" cx="2239.48" cy="-951" rx="108.58" ry="18"/>
<text text-anchor="start" x="2163.98" y="-947.3" font-family="Times,serif" font-size="14.00">wordnet_writer_110794014</text>
</g>
<!-- 39&#45;&#45;41 -->
<g id="edge68" class="edge">
<title>39&#45;&#45;41</title>
<path fill="none" stroke="black" d="M2149.67,-1040.97C2169.64,-1021.19 2202.38,-988.75 2222.33,-968.99"/>
<text text-anchor="start" x="2201.48" y="-1001.3" font-family="Times,serif" font-size="14.00">subClassOf</text>
</g>
<!-- 40&#45;&#45;16 -->
<g id="edge71" class="edge">
<title>40&#45;&#45;16</title>
<path fill="none" stroke="black" d="M2511.53,-435.63C2529.35,-423.95 2550.05,-406.36 2558.48,-384 2567.24,-360.77 2575.36,-312.75 2553.48,-228 2543.18,-188.1 2518.7,-146.08 2504.08,-123.25"/>
<text text-anchor="start" x="2565.48" y="-275.3" font-family="Times,serif" font-size="14.00">hasWordnetDomain</text>
</g>
<!-- 40&#45;&#45;32 -->
<g id="edge70" class="edge">
<title>40&#45;&#45;32</title>
<path fill="none" stroke="black" d="M2473.19,-434.8C2466.07,-420.05 2455.88,-398.92 2448.77,-384.18"/>
<text text-anchor="start" x="2462.48" y="-405.8" font-family="Times,serif" font-size="14.00">subClassOf</text>
</g>
<!-- 41&#45;&#45;17 -->
<g id="edge73" class="edge">
<title>41&#45;&#45;17</title>
<path fill="none" stroke="black" d="M2189.01,-934.97C2168.89,-928.9 2145.55,-921.74 2124.48,-915 2089.27,-903.74 2049.59,-890.39 2020.04,-880.32"/>
<text text-anchor="start" x="2124.48" y="-903.8" font-family="Times,serif" font-size="14.00">hasWordnetDomain</text>
</g>
<!-- 41&#45;&#45;28 -->
<g id="edge72" class="edge">
<title>41&#45;&#45;28</title>
<path fill="none" stroke="black" d="M2239.08,-932.8C2238.73,-918.05 2238.23,-896.92 2237.89,-882.18"/>
<text text-anchor="start" x="2238.48" y="-903.8" font-family="Times,serif" font-size="14.00">subClassOf</text>
</g>
<!-- 43 -->
<g id="node43" class="node">
<title>43</title>
<ellipse fill="none" stroke="black" cx="2104.48" cy="-507" rx="82.59" ry="18"/>
<text text-anchor="start" x="2048.98" y="-503.3" font-family="Times,serif" font-size="14.00">yagoLegalActorGeo</text>
</g>
<!-- 42&#45;&#45;43 -->
<g id="edge74" class="edge">
<title>42&#45;&#45;43</title>
<path fill="none" stroke="black" d="M2181.28,-650.88C2164.73,-620.08 2130.12,-555.71 2113.62,-525"/>
<text text-anchor="start" x="2169.48" y="-611.3" font-family="Times,serif" font-size="14.00">subClassOf</text>
</g>
<!-- 43&#45;&#45;1 -->
<g id="edge75" class="edge">
<title>43&#45;&#45;1</title>
<path fill="none" stroke="black" d="M2052.7,-492.78C2013.55,-479.31 1966.48,-454.06 1966.48,-410.5 1966.48,-410.5 1966.48,-410.5 1966.48,-278 1966.48,-229.1 2030.9,-207.15 2070.41,-198.28"/>
<text text-anchor="start" x="1966.48" y="-362.3" font-family="Times,serif" font-size="14.00">subClassOf</text>
</g>
</g>
</svg>
