<?xml version="1.0" encoding="UTF-8" standalone="no"?>
<!DOCTYPE svg PUBLIC "-//W3C//DTD SVG 1.1//EN"
 "http://www.w3.org/Graphics/SVG/1.1/DTD/svg11.dtd">
<!-- Generated by graphviz version 3.0.0 (20220226.1711)
 -->
<!-- Title: noname Pages: 1 -->
<svg width="3044pt" height="1052pt"
 viewBox="0.00 0.00 3043.98 1052.00" xmlns="http://www.w3.org/2000/svg" xmlns:xlink="http://www.w3.org/1999/xlink">
<g id="graph0" class="graph" transform="scale(1 1) rotate(0) translate(4 1048)">
<title>noname</title>
<polygon fill="white" stroke="transparent" points="-4,4 -4,-1048 3039.98,-1048 3039.98,4 -4,4"/>
<!-- 1 -->
<g id="node1" class="node">
<title>1</title>
<ellipse fill="none" stroke="black" cx="1981.44" cy="-162" rx="31.7" ry="18"/>
<text text-anchor="start" x="1964.94" y="-158.3" font-family="Times,serif" font-size="14.00">Thing</text>
</g>
<!-- 16 -->
<g id="node16" class="node">
<title>16</title>
<ellipse fill="none" stroke="black" cx="1720.44" cy="-90" rx="104.78" ry="18"/>
<text text-anchor="start" x="1647.94" y="-86.3" font-family="Times,serif" font-size="14.00">wordnetDomain_factotum</text>
</g>
<!-- 1&#45;&#45;16 -->
<g id="edge1" class="edge">
<title>1&#45;&#45;16</title>
<path fill="none" stroke="black" d="M1953.26,-153.44C1910.55,-141.99 1828.66,-120.03 1774.28,-105.44"/>
</g>
<!-- 18 -->
<g id="node18" class="node">
<title>18</title>
<ellipse fill="none" stroke="black" cx="2159.44" cy="-90" rx="105.08" ry="18"/>
<text text-anchor="start" x="2086.44" y="-86.3" font-family="Times,serif" font-size="14.00">wordnetDomain_medicine</text>
</g>
<!-- 1&#45;&#45;18 -->
<g id="edge2" class="edge">
<title>1&#45;&#45;18</title>
<path fill="none" stroke="black" d="M2006.94,-150.97C2036.36,-139.4 2085.08,-120.24 2119.53,-106.69"/>
</g>
<!-- 21 -->
<g id="node21" class="node">
<title>21</title>
<ellipse fill="none" stroke="black" cx="1939.44" cy="-90" rx="96.68" ry="18"/>
<text text-anchor="start" x="1872.94" y="-86.3" font-family="Times,serif" font-size="14.00">wordnetDomain_quality</text>
</g>
<!-- 1&#45;&#45;21 -->
<g id="edge3" class="edge">
<title>1&#45;&#45;21</title>
<path fill="none" stroke="black" d="M1971.7,-144.76C1965.11,-133.78 1956.41,-119.29 1949.71,-108.12"/>
</g>
<!-- 2 -->
<g id="node2" class="node">
<title>2</title>
<ellipse fill="none" stroke="black" cx="1772.44" cy="-1026" rx="55.49" ry="18"/>
<text text-anchor="start" x="1737.94" y="-1022.3" font-family="Times,serif" font-size="14.00">Bill_Murray</text>
</g>
<!-- 3 -->
<g id="node3" class="node">
<title>3</title>
<ellipse fill="none" stroke="black" cx="1872.44" cy="-954" rx="171.67" ry="18"/>
<text text-anchor="start" x="1748.44" y="-950.3" font-family="Times,serif" font-size="14.00">wikicategory_Actors_from_Chicago,_Illinois</text>
</g>
<!-- 2&#45;&#45;3 -->
<g id="edge4" class="edge">
<title>2&#45;&#45;3</title>
<path fill="none" stroke="black" d="M1794.63,-1009.46C1810.51,-998.35 1831.88,-983.39 1848.21,-971.96"/>
</g>
<!-- 4 -->
<g id="node4" class="node">
<title>4</title>
<ellipse fill="none" stroke="black" cx="138.44" cy="-954" rx="138.38" ry="18"/>
<text text-anchor="start" x="39.94" y="-950.3" font-family="Times,serif" font-size="14.00">wikicategory_American_comedians</text>
</g>
<!-- 2&#45;&#45;4 -->
<g id="edge5" class="edge">
<title>2&#45;&#45;4</title>
<path fill="none" stroke="black" d="M1717.03,-1024.6C1521.23,-1022.83 843.76,-1013.88 286.44,-972 269.42,-970.72 251.33,-968.97 233.87,-967.08"/>
</g>
<!-- 5 -->
<g id="node5" class="node">
<title>5</title>
<ellipse fill="none" stroke="black" cx="496.44" cy="-954" rx="201.46" ry="18"/>
<text text-anchor="start" x="349.44" y="-950.3" font-family="Times,serif" font-size="14.00">wikicategory_American_comedians_of_Irish_descent</text>
</g>
<!-- 2&#45;&#45;5 -->
<g id="edge6" class="edge">
<title>2&#45;&#45;5</title>
<path fill="none" stroke="black" d="M1717.81,-1022.87C1560.72,-1016.63 1094.22,-997.2 707.44,-972 684.61,-970.51 660.41,-968.74 636.85,-966.92"/>
</g>
<!-- 6 -->
<g id="node6" class="node">
<title>6</title>
<ellipse fill="none" stroke="black" cx="857.44" cy="-954" rx="141.07" ry="18"/>
<text text-anchor="start" x="756.94" y="-950.3" font-family="Times,serif" font-size="14.00">wikicategory_American_film_actors</text>
</g>
<!-- 2&#45;&#45;6 -->
<g id="edge7" class="edge">
<title>2&#45;&#45;6</title>
<path fill="none" stroke="black" d="M1718.11,-1022.05C1592.75,-1015.08 1273.59,-996.29 1007.44,-972 990.99,-970.5 973.56,-968.71 956.62,-966.86"/>
</g>
<!-- 7 -->
<g id="node7" class="node">
<title>7</title>
<ellipse fill="none" stroke="black" cx="2324.44" cy="-954" rx="147.57" ry="18"/>
<text text-anchor="start" x="2218.94" y="-950.3" font-family="Times,serif" font-size="14.00">wikicategory_American_screenwriters</text>
</g>
<!-- 2&#45;&#45;7 -->
<g id="edge8" class="edge">
<title>2&#45;&#45;7</title>
<path fill="none" stroke="black" d="M1822.89,-1018.6C1914.11,-1007.03 2107.96,-982.45 2226.16,-967.46"/>
</g>
<!-- 8 -->
<g id="node8" class="node">
<title>8</title>
<ellipse fill="none" stroke="black" cx="1176.44" cy="-954" rx="159.77" ry="18"/>
<text text-anchor="start" x="1061.44" y="-950.3" font-family="Times,serif" font-size="14.00">wikicategory_American_television_actors</text>
</g>
<!-- 2&#45;&#45;8 -->
<g id="edge9" class="edge">
<title>2&#45;&#45;8</title>
<path fill="none" stroke="black" d="M1721.37,-1019C1624.38,-1007.61 1411.73,-982.64 1282.62,-967.47"/>
</g>
<!-- 9 -->
<g id="node9" class="node">
<title>9</title>
<ellipse fill="none" stroke="black" cx="1499.44" cy="-954" rx="144.87" ry="18"/>
<text text-anchor="start" x="1395.94" y="-950.3" font-family="Times,serif" font-size="14.00">wikicategory_American_voice_actors</text>
</g>
<!-- 2&#45;&#45;9 -->
<g id="edge10" class="edge">
<title>2&#45;&#45;9</title>
<path fill="none" stroke="black" d="M1730.38,-1014.22C1684.69,-1002.5 1611.3,-983.68 1559.54,-970.41"/>
</g>
<!-- 10 -->
<g id="node10" class="node">
<title>10</title>
<ellipse fill="none" stroke="black" cx="1855.44" cy="-882" rx="112.38" ry="18"/>
<text text-anchor="start" x="1776.94" y="-878.3" font-family="Times,serif" font-size="14.00">wikicategory_Living_people</text>
</g>
<!-- 2&#45;&#45;10 -->
<g id="edge11" class="edge">
<title>2&#45;&#45;10</title>
<path fill="none" stroke="black" d="M1826.95,-1022.71C1900.4,-1018.35 2025.24,-1006.02 2053.44,-972 2090.18,-927.68 2012.58,-904.56 1944.01,-893.13"/>
</g>
<!-- 11 -->
<g id="node11" class="node">
<title>11</title>
<ellipse fill="none" stroke="black" cx="1944.44" cy="-738" rx="176.27" ry="18"/>
<text text-anchor="start" x="1816.94" y="-734.3" font-family="Times,serif" font-size="14.00">wikicategory_People_from_Wilmette,_Illinois</text>
</g>
<!-- 2&#45;&#45;11 -->
<g id="edge12" class="edge">
<title>2&#45;&#45;11</title>
<path fill="none" stroke="black" d="M1827.32,-1023.43C1905.2,-1019.92 2041.76,-1008.57 2072.44,-972 2132.5,-900.4 2017.45,-796.28 1966.74,-755.89"/>
</g>
<!-- 12 -->
<g id="node12" class="node">
<title>12</title>
<ellipse fill="none" stroke="black" cx="2689.44" cy="-882" rx="135.68" ry="18"/>
<text text-anchor="start" x="2592.94" y="-878.3" font-family="Times,serif" font-size="14.00">wikicategory_Second_City_alumni</text>
</g>
<!-- 2&#45;&#45;12 -->
<g id="edge13" class="edge">
<title>2&#45;&#45;12</title>
<path fill="none" stroke="black" d="M1827.04,-1023.24C1970.83,-1018.23 2357.4,-1002.28 2481.44,-972 2547.64,-955.84 2619.65,-920.7 2659.18,-899.74"/>
</g>
<!-- 24 -->
<g id="node24" class="node">
<title>24</title>
<ellipse fill="none" stroke="black" cx="1432.44" cy="-882" rx="105.08" ry="18"/>
<text text-anchor="start" x="1359.44" y="-878.3" font-family="Times,serif" font-size="14.00">wordnet_actor_109765278</text>
</g>
<!-- 2&#45;&#45;24 -->
<g id="edge14" class="edge">
<title>2&#45;&#45;24</title>
<path fill="none" stroke="black" d="M1746.82,-1009.88C1730.47,-999.83 1709.1,-985.96 1691.44,-972 1673.19,-957.57 1673.89,-947.09 1653.44,-936 1611.56,-913.29 1560.02,-900.21 1517.25,-892.73"/>
</g>
<!-- 35 -->
<g id="node35" class="node">
<title>35</title>
<ellipse fill="none" stroke="black" cx="2021.44" cy="-594" rx="111.28" ry="18"/>
<text text-anchor="start" x="1943.94" y="-590.3" font-family="Times,serif" font-size="14.00">wordnet_person_100007846</text>
</g>
<!-- 2&#45;&#45;35 -->
<g id="edge15" class="edge">
<title>2&#45;&#45;35</title>
<path fill="none" stroke="black" d="M1826.1,-1021.65C1906.28,-1015.74 2052.53,-1001.24 2095.44,-972 2133.48,-946.07 2148.44,-929.04 2148.44,-883 2148.44,-883 2148.44,-883 2148.44,-809 2148.44,-768.55 2155.44,-750.98 2129.44,-720 2102,-687.32 2067.87,-716.68 2040.44,-684 2023.37,-663.67 2020.52,-631.69 2020.58,-612.11"/>
</g>
<!-- 3&#45;&#45;24 -->
<g id="edge16" class="edge">
<title>3&#45;&#45;24</title>
<path fill="none" stroke="black" d="M1782.34,-938.67C1701,-925.73 1582.76,-906.92 1506.72,-894.82"/>
</g>
<!-- 27 -->
<g id="node27" class="node">
<title>27</title>
<ellipse fill="none" stroke="black" cx="630.44" cy="-882" rx="122.38" ry="18"/>
<text text-anchor="start" x="544.44" y="-878.3" font-family="Times,serif" font-size="14.00">wordnet_comedian_109940146</text>
</g>
<!-- 4&#45;&#45;27 -->
<g id="edge17" class="edge">
<title>4&#45;&#45;27</title>
<path fill="none" stroke="black" d="M228.11,-940.24C318.6,-927.37 457.29,-907.63 545.91,-895.03"/>
</g>
<!-- 5&#45;&#45;27 -->
<g id="edge18" class="edge">
<title>5&#45;&#45;27</title>
<path fill="none" stroke="black" d="M528.88,-936.05C550.1,-924.97 577.69,-910.55 598.76,-899.55"/>
</g>
<!-- 6&#45;&#45;24 -->
<g id="edge19" class="edge">
<title>6&#45;&#45;24</title>
<path fill="none" stroke="black" d="M955.63,-941.05C1066.45,-927.55 1244.83,-905.84 1349.12,-893.14"/>
</g>
<!-- 38 -->
<g id="node38" class="node">
<title>38</title>
<ellipse fill="none" stroke="black" cx="2324.44" cy="-882" rx="131.08" ry="18"/>
<text text-anchor="start" x="2231.44" y="-878.3" font-family="Times,serif" font-size="14.00">wordnet_screenwriter_110564400</text>
</g>
<!-- 7&#45;&#45;38 -->
<g id="edge20" class="edge">
<title>7&#45;&#45;38</title>
<path fill="none" stroke="black" d="M2324.44,-935.7C2324.44,-924.85 2324.44,-910.92 2324.44,-900.1"/>
</g>
<!-- 8&#45;&#45;24 -->
<g id="edge21" class="edge">
<title>8&#45;&#45;24</title>
<path fill="none" stroke="black" d="M1234.21,-937.2C1277.71,-925.31 1336.89,-909.13 1379.24,-897.55"/>
</g>
<!-- 9&#45;&#45;24 -->
<g id="edge22" class="edge">
<title>9&#45;&#45;24</title>
<path fill="none" stroke="black" d="M1483.22,-936.05C1472.84,-925.21 1459.41,-911.18 1448.97,-900.28"/>
</g>
<!-- 10&#45;&#45;35 -->
<g id="edge23" class="edge">
<title>10&#45;&#45;35</title>
<path fill="none" stroke="black" d="M1832.41,-864.38C1794.59,-834.98 1726.62,-772.02 1759.44,-720 1800.65,-654.68 1886.41,-622.77 1948.61,-607.68"/>
</g>
<!-- 11&#45;&#45;35 -->
<g id="edge24" class="edge">
<title>11&#45;&#45;35</title>
<path fill="none" stroke="black" d="M1953.73,-719.87C1968.53,-692.58 1997.3,-639.52 2012.12,-612.19"/>
</g>
<!-- 25 -->
<g id="node25" class="node">
<title>25</title>
<ellipse fill="none" stroke="black" cx="2727.44" cy="-810" rx="118.08" ry="18"/>
<text text-anchor="start" x="2644.44" y="-806.3" font-family="Times,serif" font-size="14.00">wordnet_alumnus_109786338</text>
</g>
<!-- 12&#45;&#45;25 -->
<g id="edge25" class="edge">
<title>12&#45;&#45;25</title>
<path fill="none" stroke="black" d="M2698.83,-863.7C2704.72,-852.85 2712.28,-838.92 2718.15,-828.1"/>
</g>
<!-- 13 -->
<g id="node13" class="node">
<title>13</title>
<ellipse fill="none" stroke="black" cx="2225.44" cy="-18" rx="68.49" ry="18"/>
<text text-anchor="start" x="2180.94" y="-14.3" font-family="Times,serif" font-size="14.00">wordnetDomain</text>
</g>
<!-- 14 -->
<g id="node14" class="node">
<title>14</title>
<ellipse fill="none" stroke="black" cx="1202.44" cy="-666" rx="81.79" ry="18"/>
<text text-anchor="start" x="1147.44" y="-662.3" font-family="Times,serif" font-size="14.00">wordnetDomain_art</text>
</g>
<!-- 14&#45;&#45;13 -->
<g id="edge26" class="edge">
<title>14&#45;&#45;13</title>
<path fill="none" stroke="black" d="M1207.9,-647.71C1215.79,-621.18 1229.44,-568.67 1229.44,-523 1229.44,-523 1229.44,-523 1229.44,-161 1229.44,-46.4 1359.39,-96.03 1471.44,-72 1601.59,-44.08 1998.99,-27.13 2158.32,-21.29"/>
</g>
<!-- 15 -->
<g id="node15" class="node">
<title>15</title>
<ellipse fill="none" stroke="black" cx="2203.44" cy="-162" rx="99.38" ry="18"/>
<text text-anchor="start" x="2134.94" y="-158.3" font-family="Times,serif" font-size="14.00">wordnetDomain_biology</text>
</g>
<!-- 15&#45;&#45;13 -->
<g id="edge27" class="edge">
<title>15&#45;&#45;13</title>
<path fill="none" stroke="black" d="M2236.28,-144.99C2250.46,-136.2 2265.57,-123.83 2273.44,-108 2280.56,-93.67 2279.19,-86.93 2273.44,-72 2267.9,-57.64 2256.47,-44.75 2246.15,-35.29"/>
</g>
<!-- 16&#45;&#45;13 -->
<g id="edge28" class="edge">
<title>16&#45;&#45;13</title>
<path fill="none" stroke="black" d="M1795.79,-77.5C1808.35,-75.63 1821.26,-73.74 1833.44,-72 1951.05,-55.2 2088.72,-36.9 2165.63,-26.8"/>
</g>
<!-- 17 -->
<g id="node17" class="node">
<title>17</title>
<ellipse fill="none" stroke="black" cx="2451.44" cy="-666" rx="104.78" ry="18"/>
<text text-anchor="start" x="2378.94" y="-662.3" font-family="Times,serif" font-size="14.00">wordnetDomain_literature</text>
</g>
<!-- 17&#45;&#45;13 -->
<g id="edge29" class="edge">
<title>17&#45;&#45;13</title>
<path fill="none" stroke="black" d="M2451.44,-647.95C2451.44,-621.29 2451.44,-568.11 2451.44,-523 2451.44,-523 2451.44,-523 2451.44,-161 2451.44,-80.6 2347.63,-43.96 2280.72,-28.69"/>
</g>
<!-- 18&#45;&#45;13 -->
<g id="edge30" class="edge">
<title>18&#45;&#45;13</title>
<path fill="none" stroke="black" d="M2175.41,-72.05C2185.79,-61.05 2199.26,-46.76 2209.61,-35.79"/>
</g>
<!-- 19 -->
<g id="node19" class="node">
<title>19</title>
<ellipse fill="none" stroke="black" cx="2619.44" cy="-234" rx="106.68" ry="18"/>
<text text-anchor="start" x="2545.44" y="-230.3" font-family="Times,serif" font-size="14.00">wordnetDomain_pedagogy</text>
</g>
<!-- 19&#45;&#45;13 -->
<g id="edge31" class="edge">
<title>19&#45;&#45;13</title>
<path fill="none" stroke="black" d="M2608.4,-215.98C2585.84,-182.66 2531,-108.89 2465.44,-72 2411.42,-41.61 2341.44,-28.64 2291,-23.11"/>
</g>
<!-- 20 -->
<g id="node20" class="node">
<title>20</title>
<ellipse fill="none" stroke="black" cx="2327.44" cy="-522" rx="96.38" ry="18"/>
<text text-anchor="start" x="2261.44" y="-518.3" font-family="Times,serif" font-size="14.00">wordnetDomain_person</text>
</g>
<!-- 20&#45;&#45;13 -->
<g id="edge32" class="edge">
<title>20&#45;&#45;13</title>
<path fill="none" stroke="black" d="M2328.03,-503.95C2328.9,-477.3 2330.44,-424.12 2330.44,-379 2330.44,-379 2330.44,-379 2330.44,-161 2330.44,-117.45 2315.98,-106.53 2289.44,-72 2278.36,-57.59 2262.68,-44.52 2249.62,-34.97"/>
</g>
<!-- 21&#45;&#45;13 -->
<g id="edge33" class="edge">
<title>21&#45;&#45;13</title>
<path fill="none" stroke="black" d="M1995.6,-75.25C2048.47,-62.31 2126.83,-43.14 2177.01,-30.85"/>
</g>
<!-- 22 -->
<g id="node22" class="node">
<title>22</title>
<ellipse fill="none" stroke="black" cx="2940.44" cy="-666" rx="95.58" ry="18"/>
<text text-anchor="start" x="2874.94" y="-662.3" font-family="Times,serif" font-size="14.00">wordnetDomain_school</text>
</g>
<!-- 22&#45;&#45;13 -->
<g id="edge34" class="edge">
<title>22&#45;&#45;13</title>
<path fill="none" stroke="black" d="M2919.8,-648.09C2892.4,-623.62 2847.44,-575.46 2847.44,-523 2847.44,-523 2847.44,-523 2847.44,-161 2847.44,-48.3 2454.4,-25.04 2293.19,-20.25"/>
</g>
<!-- 23 -->
<g id="node23" class="node">
<title>23</title>
<ellipse fill="none" stroke="black" cx="1406.44" cy="-378" rx="96.68" ry="18"/>
<text text-anchor="start" x="1339.94" y="-374.3" font-family="Times,serif" font-size="14.00">wordnetDomain_theatre</text>
</g>
<!-- 23&#45;&#45;13 -->
<g id="edge35" class="edge">
<title>23&#45;&#45;13</title>
<path fill="none" stroke="black" d="M1415.34,-360.04C1428.2,-333.93 1450.44,-281.97 1450.44,-235 1450.44,-235 1450.44,-235 1450.44,-161 1450.44,-81.18 1530.23,-95.74 1606.44,-72 1707.87,-40.41 2019.75,-26.05 2158.12,-21.11"/>
</g>
<!-- 24&#45;&#45;23 -->
<g id="edge37" class="edge">
<title>24&#45;&#45;23</title>
<path fill="none" stroke="black" d="M1432.44,-863.95C1432.44,-837.29 1432.44,-784.11 1432.44,-739 1432.44,-739 1432.44,-739 1432.44,-521 1432.44,-475.39 1419.3,-422.86 1411.7,-396.3"/>
</g>
<!-- 34 -->
<g id="node34" class="node">
<title>34</title>
<ellipse fill="none" stroke="black" cx="1203.44" cy="-810" rx="123.48" ry="18"/>
<text text-anchor="start" x="1116.44" y="-806.3" font-family="Times,serif" font-size="14.00">wordnet_performer_110415638</text>
</g>
<!-- 24&#45;&#45;34 -->
<g id="edge36" class="edge">
<title>24&#45;&#45;34</title>
<path fill="none" stroke="black" d="M1383.31,-865.98C1345.2,-854.33 1292.55,-838.24 1254.07,-826.48"/>
</g>
<!-- 25&#45;&#45;22 -->
<g id="edge39" class="edge">
<title>25&#45;&#45;22</title>
<path fill="none" stroke="black" d="M2774.09,-793.34C2797.73,-784.29 2826.25,-771.59 2849.44,-756 2880.24,-735.28 2909.81,-703.43 2926.49,-683.98"/>
</g>
<!-- 37 -->
<g id="node37" class="node">
<title>37</title>
<ellipse fill="none" stroke="black" cx="2727.44" cy="-738" rx="113.18" ry="18"/>
<text text-anchor="start" x="2648.44" y="-734.3" font-family="Times,serif" font-size="14.00">wordnet_scholar_110557854</text>
</g>
<!-- 25&#45;&#45;37 -->
<g id="edge38" class="edge">
<title>25&#45;&#45;37</title>
<path fill="none" stroke="black" d="M2727.44,-791.7C2727.44,-780.85 2727.44,-766.92 2727.44,-756.1"/>
</g>
<!-- 26 -->
<g id="node26" class="node">
<title>26</title>
<ellipse fill="none" stroke="black" cx="2004.44" cy="-306" rx="133.48" ry="18"/>
<text text-anchor="start" x="1909.94" y="-302.3" font-family="Times,serif" font-size="14.00">wordnet_causal_agent_100007347</text>
</g>
<!-- 26&#45;&#45;16 -->
<g id="edge41" class="edge">
<title>26&#45;&#45;16</title>
<path fill="none" stroke="black" d="M1921.69,-291.81C1890.91,-283.95 1857.03,-271.54 1830.44,-252 1777.65,-213.22 1741.81,-141.08 1727.47,-108.17"/>
</g>
<!-- 36 -->
<g id="node36" class="node">
<title>36</title>
<ellipse fill="none" stroke="black" cx="1981.44" cy="-234" rx="141.88" ry="18"/>
<text text-anchor="start" x="1880.44" y="-230.3" font-family="Times,serif" font-size="14.00">wordnet_physical_entity_100001930</text>
</g>
<!-- 26&#45;&#45;36 -->
<g id="edge40" class="edge">
<title>26&#45;&#45;36</title>
<path fill="none" stroke="black" d="M1998.75,-287.7C1995.19,-276.85 1990.61,-262.92 1987.06,-252.1"/>
</g>
<!-- 27&#45;&#45;14 -->
<g id="edge43" class="edge">
<title>27&#45;&#45;14</title>
<path fill="none" stroke="black" d="M672.96,-865.09C779.89,-825.08 1058.83,-720.73 1162.7,-681.87"/>
</g>
<!-- 27&#45;&#45;34 -->
<g id="edge42" class="edge">
<title>27&#45;&#45;34</title>
<path fill="none" stroke="black" d="M721.23,-869.91C828.21,-856.84 1004.92,-835.25 1112.12,-822.16"/>
</g>
<!-- 28 -->
<g id="node28" class="node">
<title>28</title>
<ellipse fill="none" stroke="black" cx="2189.44" cy="-666" rx="139.98" ry="18"/>
<text text-anchor="start" x="2089.94" y="-662.3" font-family="Times,serif" font-size="14.00">wordnet_communicator_109610660</text>
</g>
<!-- 28&#45;&#45;20 -->
<g id="edge45" class="edge">
<title>28&#45;&#45;20</title>
<path fill="none" stroke="black" d="M2206.08,-647.87C2232.75,-620.43 2284.73,-566.95 2311.16,-539.75"/>
</g>
<!-- 28&#45;&#45;35 -->
<g id="edge44" class="edge">
<title>28&#45;&#45;35</title>
<path fill="none" stroke="black" d="M2150.05,-648.59C2122.8,-637.23 2086.72,-622.2 2059.71,-610.95"/>
</g>
<!-- 29 -->
<g id="node29" class="node">
<title>29</title>
<ellipse fill="none" stroke="black" cx="1279.44" cy="-738" rx="125.38" ry="18"/>
<text text-anchor="start" x="1190.94" y="-734.3" font-family="Times,serif" font-size="14.00">wordnet_entertainer_109616922</text>
</g>
<!-- 29&#45;&#45;14 -->
<g id="edge47" class="edge">
<title>29&#45;&#45;14</title>
<path fill="none" stroke="black" d="M1260.8,-720.05C1248.69,-709.05 1232.98,-694.76 1220.91,-683.79"/>
</g>
<!-- 29&#45;&#45;35 -->
<g id="edge46" class="edge">
<title>29&#45;&#45;35</title>
<path fill="none" stroke="black" d="M1348.28,-722.88C1435.99,-704.98 1592.33,-673.4 1726.44,-648 1802.11,-633.67 1888.88,-618.2 1948.63,-607.69"/>
</g>
<!-- 30 -->
<g id="node30" class="node">
<title>30</title>
<ellipse fill="none" stroke="black" cx="2700.44" cy="-666" rx="126.98" ry="18"/>
<text text-anchor="start" x="2610.94" y="-662.3" font-family="Times,serif" font-size="14.00">wordnet_intellectual_109621545</text>
</g>
<!-- 30&#45;&#45;19 -->
<g id="edge49" class="edge">
<title>30&#45;&#45;19</title>
<path fill="none" stroke="black" d="M2693.76,-647.81C2684.12,-621.4 2667.44,-569.06 2667.44,-523 2667.44,-523 2667.44,-523 2667.44,-377 2667.44,-329.9 2643.44,-278.42 2629.38,-252.29"/>
</g>
<!-- 30&#45;&#45;35 -->
<g id="edge48" class="edge">
<title>30&#45;&#45;35</title>
<path fill="none" stroke="black" d="M2610.43,-653.31C2595.42,-651.46 2579.99,-649.63 2565.44,-648 2408.18,-630.44 2224.98,-613.27 2116.35,-603.43"/>
</g>
<!-- 31 -->
<g id="node31" class="node">
<title>31</title>
<ellipse fill="none" stroke="black" cx="1698.44" cy="-450" rx="130.78" ry="18"/>
<text text-anchor="start" x="1605.94" y="-446.3" font-family="Times,serif" font-size="14.00">wordnet_living_thing_100004258</text>
</g>
<!-- 31&#45;&#45;16 -->
<g id="edge51" class="edge">
<title>31&#45;&#45;16</title>
<path fill="none" stroke="black" d="M1642.84,-433.58C1622.97,-425.45 1602.13,-413.42 1588.44,-396 1563.45,-364.2 1569.44,-347.45 1569.44,-307 1569.44,-307 1569.44,-307 1569.44,-233 1569.44,-171.1 1637.6,-128.28 1682.33,-106.84"/>
</g>
<!-- 40 -->
<g id="node40" class="node">
<title>40</title>
<ellipse fill="none" stroke="black" cx="1706.44" cy="-378" rx="109.38" ry="18"/>
<text text-anchor="start" x="1630.44" y="-374.3" font-family="Times,serif" font-size="14.00">wordnet_whole_100003553</text>
</g>
<!-- 31&#45;&#45;40 -->
<g id="edge50" class="edge">
<title>31&#45;&#45;40</title>
<path fill="none" stroke="black" d="M1700.42,-431.7C1701.66,-420.85 1703.25,-406.92 1704.48,-396.1"/>
</g>
<!-- 32 -->
<g id="node32" class="node">
<title>32</title>
<ellipse fill="none" stroke="black" cx="1744.44" cy="-306" rx="109.38" ry="18"/>
<text text-anchor="start" x="1668.44" y="-302.3" font-family="Times,serif" font-size="14.00">wordnet_object_100002684</text>
</g>
<!-- 32&#45;&#45;16 -->
<g id="edge53" class="edge">
<title>32&#45;&#45;16</title>
<path fill="none" stroke="black" d="M1742.51,-287.85C1738.02,-247.78 1726.87,-148.38 1722.37,-108.23"/>
</g>
<!-- 32&#45;&#45;36 -->
<g id="edge52" class="edge">
<title>32&#45;&#45;36</title>
<path fill="none" stroke="black" d="M1795.28,-289.98C1834.45,-278.41 1888.46,-262.46 1928.21,-250.72"/>
</g>
<!-- 33 -->
<g id="node33" class="node">
<title>33</title>
<ellipse fill="none" stroke="black" cx="1698.44" cy="-522" rx="120.78" ry="18"/>
<text text-anchor="start" x="1613.44" y="-518.3" font-family="Times,serif" font-size="14.00">wordnet_organism_100004475</text>
</g>
<!-- 33&#45;&#45;16 -->
<g id="edge55" class="edge">
<title>33&#45;&#45;16</title>
<path fill="none" stroke="black" d="M1626.69,-507.44C1602.19,-499.59 1576.45,-487.27 1558.44,-468 1530.21,-437.8 1531.44,-420.34 1531.44,-379 1531.44,-379 1531.44,-379 1531.44,-233 1531.44,-186.96 1549.3,-173.75 1584.44,-144 1606.29,-125.49 1635.35,-113 1660.99,-104.81"/>
</g>
<!-- 33&#45;&#45;31 -->
<g id="edge54" class="edge">
<title>33&#45;&#45;31</title>
<path fill="none" stroke="black" d="M1698.44,-503.7C1698.44,-492.85 1698.44,-478.92 1698.44,-468.1"/>
</g>
<!-- 34&#45;&#45;14 -->
<g id="edge57" class="edge">
<title>34&#45;&#45;14</title>
<path fill="none" stroke="black" d="M1176.71,-792.24C1164.76,-783.14 1151.93,-770.73 1145.44,-756 1138.98,-741.36 1139.05,-734.67 1145.44,-720 1151.97,-705.01 1165.06,-692.35 1177.05,-683.17"/>
</g>
<!-- 34&#45;&#45;29 -->
<g id="edge56" class="edge">
<title>34&#45;&#45;29</title>
<path fill="none" stroke="black" d="M1221.84,-792.05C1233.7,-781.13 1249.07,-766.97 1260.95,-756.03"/>
</g>
<!-- 35&#45;&#45;15 -->
<g id="edge61" class="edge">
<title>35&#45;&#45;15</title>
<path fill="none" stroke="black" d="M2087.95,-579.52C2113.7,-571.56 2141.85,-559.15 2162.44,-540 2194.32,-510.34 2203.44,-494.55 2203.44,-451 2203.44,-451 2203.44,-451 2203.44,-305 2203.44,-259.89 2203.44,-206.71 2203.44,-180.05"/>
</g>
<!-- 35&#45;&#45;20 -->
<g id="edge62" class="edge">
<title>35&#45;&#45;20</title>
<path fill="none" stroke="black" d="M2082.99,-578.92C2137.27,-566.5 2215.8,-548.54 2269.09,-536.35"/>
</g>
<!-- 35&#45;&#45;26 -->
<g id="edge58" class="edge">
<title>35&#45;&#45;26</title>
<path fill="none" stroke="black" d="M2016.65,-575.93C2013.91,-565.6 2010.59,-552.13 2008.44,-540 2002.81,-508.3 2002.22,-500.15 2000.44,-468 1997.55,-415.79 2001.01,-353.95 2003.09,-324.41"/>
</g>
<!-- 35&#45;&#45;33 -->
<g id="edge59" class="edge">
<title>35&#45;&#45;33</title>
<path fill="none" stroke="black" d="M1957.62,-579.17C1901.55,-567.02 1820.31,-549.41 1763.78,-537.16"/>
</g>
<!-- 42 -->
<g id="node42" class="node">
<title>42</title>
<ellipse fill="none" stroke="black" cx="2085.44" cy="-522" rx="67.69" ry="18"/>
<text text-anchor="start" x="2041.44" y="-518.3" font-family="Times,serif" font-size="14.00">yagoLegalActor</text>
</g>
<!-- 35&#45;&#45;42 -->
<g id="edge60" class="edge">
<title>35&#45;&#45;42</title>
<path fill="none" stroke="black" d="M2036.93,-576.05C2046.99,-565.05 2060.05,-550.76 2070.09,-539.79"/>
</g>
<!-- 36&#45;&#45;1 -->
<g id="edge63" class="edge">
<title>36&#45;&#45;1</title>
<path fill="none" stroke="black" d="M1981.44,-215.7C1981.44,-204.85 1981.44,-190.92 1981.44,-180.1"/>
</g>
<!-- 37&#45;&#45;22 -->
<g id="edge65" class="edge">
<title>37&#45;&#45;22</title>
<path fill="none" stroke="black" d="M2774.45,-721.55C2810.34,-709.75 2859.51,-693.59 2895.01,-681.93"/>
</g>
<!-- 37&#45;&#45;30 -->
<g id="edge64" class="edge">
<title>37&#45;&#45;30</title>
<path fill="none" stroke="black" d="M2720.76,-719.7C2716.58,-708.85 2711.21,-694.92 2707.04,-684.1"/>
</g>
<!-- 38&#45;&#45;17 -->
<g id="edge67" class="edge">
<title>38&#45;&#45;17</title>
<path fill="none" stroke="black" d="M2397.02,-866.89C2418.12,-859.06 2438.85,-846.89 2451.44,-828 2481.04,-783.57 2466.47,-715.82 2457.16,-684.27"/>
</g>
<!-- 39 -->
<g id="node39" class="node">
<title>39</title>
<ellipse fill="none" stroke="black" cx="2314.44" cy="-810" rx="128.08" ry="18"/>
<text text-anchor="start" x="2223.94" y="-806.3" font-family="Times,serif" font-size="14.00">wordnet_scriptwriter_110564905</text>
</g>
<!-- 38&#45;&#45;39 -->
<g id="edge66" class="edge">
<title>38&#45;&#45;39</title>
<path fill="none" stroke="black" d="M2321.97,-863.7C2320.42,-852.85 2318.43,-838.92 2316.88,-828.1"/>
</g>
<!-- 39&#45;&#45;17 -->
<g id="edge69" class="edge">
<title>39&#45;&#45;17</title>
<path fill="none" stroke="black" d="M2358.67,-793.07C2377.53,-784.48 2398.56,-772.25 2413.44,-756 2432.39,-735.31 2442.78,-703.74 2447.72,-684.29"/>
</g>
<!-- 41 -->
<g id="node41" class="node">
<title>41</title>
<ellipse fill="none" stroke="black" cx="2295.44" cy="-738" rx="108.58" ry="18"/>
<text text-anchor="start" x="2219.94" y="-734.3" font-family="Times,serif" font-size="14.00">wordnet_writer_110794014</text>
</g>
<!-- 39&#45;&#45;41 -->
<g id="edge68" class="edge">
<title>39&#45;&#45;41</title>
<path fill="none" stroke="black" d="M2309.74,-791.7C2306.8,-780.85 2303.02,-766.92 2300.08,-756.1"/>
</g>
<!-- 40&#45;&#45;16 -->
<g id="edge71" class="edge">
<title>40&#45;&#45;16</title>
<path fill="none" stroke="black" d="M1667.36,-361.16C1651.68,-352.64 1635.27,-340.44 1626.44,-324 1618.87,-309.9 1622.91,-303.61 1626.44,-288 1642.58,-216.67 1687.81,-140.92 1709.09,-107.96"/>
</g>
<!-- 40&#45;&#45;32 -->
<g id="edge70" class="edge">
<title>40&#45;&#45;32</title>
<path fill="none" stroke="black" d="M1715.64,-360.05C1721.52,-349.21 1729.14,-335.18 1735.06,-324.28"/>
</g>
<!-- 41&#45;&#45;17 -->
<g id="edge73" class="edge">
<title>41&#45;&#45;17</title>
<path fill="none" stroke="black" d="M2331.23,-720.94C2356.59,-709.56 2390.49,-694.35 2415.81,-682.98"/>
</g>
<!-- 41&#45;&#45;28 -->
<g id="edge72" class="edge">
<title>41&#45;&#45;28</title>
<path fill="none" stroke="black" d="M2270.32,-720.41C2253.54,-709.33 2231.56,-694.82 2214.75,-683.71"/>
</g>
<!-- 43 -->
<g id="node43" class="node">
<title>43</title>
<ellipse fill="none" stroke="black" cx="2092.44" cy="-450" rx="82.59" ry="18"/>
<text text-anchor="start" x="2036.94" y="-446.3" font-family="Times,serif" font-size="14.00">yagoLegalActorGeo</text>
</g>
<!-- 42&#45;&#45;43 -->
<g id="edge74" class="edge">
<title>42&#45;&#45;43</title>
<path fill="none" stroke="black" d="M2087.17,-503.7C2088.25,-492.85 2089.65,-478.92 2090.73,-468.1"/>
</g>
<!-- 43&#45;&#45;1 -->
<g id="edge75" class="edge">
<title>43&#45;&#45;1</title>
<path fill="none" stroke="black" d="M2103.49,-431.91C2129.28,-389.69 2187.18,-279.35 2132.44,-216 2102.28,-181.1 2047.74,-169.18 2013.12,-165.11"/>
</g>
</g>
</svg>
