<?xml version="1.0" encoding="UTF-8" standalone="no"?>
<!DOCTYPE svg PUBLIC "-//W3C//DTD SVG 1.1//EN"
 "http://www.w3.org/Graphics/SVG/1.1/DTD/svg11.dtd">
<!-- Generated by graphviz version 3.0.0 (20220226.1711)
 -->
<!-- Title: noname Pages: 1 -->
<svg width="2404pt" height="1130pt"
 viewBox="0.00 0.00 2404.00 1130.00" xmlns="http://www.w3.org/2000/svg" xmlns:xlink="http://www.w3.org/1999/xlink">
<g id="graph0" class="graph" transform="scale(1 1) rotate(0) translate(4 1126)">
<title>noname</title>
<polygon fill="white" stroke="transparent" points="-4,4 -4,-1126 2400,-1126 2400,4 -4,4"/>
<!-- 1 -->
<g id="node1" class="node">
<title>1</title>
<ellipse fill="none" stroke="black" cx="1261" cy="-192" rx="31.7" ry="18"/>
<text text-anchor="start" x="1244.5" y="-188.3" font-family="Times,serif" font-size="14.00">Thing</text>
</g>
<!-- 9 -->
<g id="node9" class="node">
<title>9</title>
<ellipse fill="none" stroke="black" cx="1833" cy="-105" rx="104.78" ry="18"/>
<text text-anchor="start" x="1760.5" y="-101.3" font-family="Times,serif" font-size="14.00">wordnetDomain_factotum</text>
</g>
<!-- 1&#45;&#45;9 -->
<g id="edge1" class="edge">
<title>1&#45;&#45;9</title>
<path fill="none" stroke="black" d="M1290.4,-184.76C1339.32,-174.53 1440.58,-154.05 1527,-141 1599.7,-130.02 1682.58,-120.74 1743.73,-114.5"/>
<text text-anchor="start" x="1527" y="-144.8" font-family="Times,serif" font-size="14.00">hasWordnetDomain</text>
</g>
<!-- 11 -->
<g id="node11" class="node">
<title>11</title>
<ellipse fill="none" stroke="black" cx="1053" cy="-105" rx="105.08" ry="18"/>
<text text-anchor="start" x="980" y="-101.3" font-family="Times,serif" font-size="14.00">wordnetDomain_medicine</text>
</g>
<!-- 1&#45;&#45;11 -->
<g id="edge2" class="edge">
<title>1&#45;&#45;11</title>
<path fill="none" stroke="black" d="M1233.07,-183.21C1211.01,-176.75 1179.63,-166.9 1153,-156 1128.75,-146.07 1102.27,-132.71 1082.65,-122.3"/>
<text text-anchor="start" x="1153" y="-144.8" font-family="Times,serif" font-size="14.00">hasWordnetDomain</text>
</g>
<!-- 12 -->
<g id="node12" class="node">
<title>12</title>
<ellipse fill="none" stroke="black" cx="1273" cy="-105" rx="96.68" ry="18"/>
<text text-anchor="start" x="1206.5" y="-101.3" font-family="Times,serif" font-size="14.00">wordnetDomain_quality</text>
</g>
<!-- 1&#45;&#45;12 -->
<g id="edge3" class="edge">
<title>1&#45;&#45;12</title>
<path fill="none" stroke="black" d="M1263.43,-173.8C1265.51,-159.05 1268.49,-137.92 1270.58,-123.18"/>
<text text-anchor="start" x="1267" y="-144.8" font-family="Times,serif" font-size="14.00">hasWordnetDomain</text>
</g>
<!-- 2 -->
<g id="node2" class="node">
<title>2</title>
<ellipse fill="none" stroke="black" cx="1025" cy="-1104" rx="94.78" ry="18"/>
<text text-anchor="start" x="960" y="-1100.3" font-family="Times,serif" font-size="14.00">Fort_Collins,_Colorado</text>
</g>
<!-- 3 -->
<g id="node3" class="node">
<title>3</title>
<ellipse fill="none" stroke="black" cx="446" cy="-1017" rx="129.98" ry="18"/>
<text text-anchor="start" x="354" y="-1013.3" font-family="Times,serif" font-size="14.00">wikicategory_Cities_in_Colorado</text>
</g>
<!-- 2&#45;&#45;3 -->
<g id="edge4" class="edge">
<title>2&#45;&#45;3</title>
<path fill="none" stroke="black" d="M932.74,-1099.43C819.21,-1094.44 633.22,-1084.13 566,-1068 534.84,-1060.52 501.32,-1045.96 477.66,-1034.47"/>
<text text-anchor="start" x="566" y="-1056.8" font-family="Times,serif" font-size="14.00">type</text>
</g>
<!-- 4 -->
<g id="node4" class="node">
<title>4</title>
<ellipse fill="none" stroke="black" cx="1287" cy="-1017" rx="156.77" ry="18"/>
<text text-anchor="start" x="1174.5" y="-1013.3" font-family="Times,serif" font-size="14.00">wikicategory_County_seats_in_Colorado</text>
</g>
<!-- 2&#45;&#45;4 -->
<g id="edge5" class="edge">
<title>2&#45;&#45;4</title>
<path fill="none" stroke="black" d="M1070.64,-1088.19C1117.26,-1073.07 1189.43,-1049.65 1237.43,-1034.08"/>
<text text-anchor="start" x="1172" y="-1056.8" font-family="Times,serif" font-size="14.00">type</text>
</g>
<!-- 5 -->
<g id="node5" class="node">
<title>5</title>
<ellipse fill="none" stroke="black" cx="1652" cy="-963" rx="235.86" ry="18"/>
<text text-anchor="start" x="1478.5" y="-959.3" font-family="Times,serif" font-size="14.00">wikicategory_Populated_places_in_Larimer_County,_Colorado</text>
</g>
<!-- 2&#45;&#45;5 -->
<g id="edge6" class="edge">
<title>2&#45;&#45;5</title>
<path fill="none" stroke="black" d="M1106.37,-1094.62C1193.15,-1084.62 1334.18,-1065.36 1453,-1035 1509.33,-1020.61 1572.19,-996.82 1611.9,-980.79"/>
<text text-anchor="start" x="1370" y="-1056.8" font-family="Times,serif" font-size="14.00">type</text>
</g>
<!-- 6 -->
<g id="node6" class="node">
<title>6</title>
<ellipse fill="none" stroke="black" cx="852" cy="-1017" rx="203.36" ry="18"/>
<text text-anchor="start" x="703.5" y="-1013.3" font-family="Times,serif" font-size="14.00">wikicategory_University_towns_in_the_United_States</text>
</g>
<!-- 2&#45;&#45;6 -->
<g id="edge7" class="edge">
<title>2&#45;&#45;6</title>
<path fill="none" stroke="black" d="M992.46,-1087.01C962.12,-1072.1 917.03,-1049.95 886.17,-1034.79"/>
<text text-anchor="start" x="949" y="-1056.8" font-family="Times,serif" font-size="14.00">type</text>
</g>
<!-- 14 -->
<g id="node14" class="node">
<title>14</title>
<ellipse fill="none" stroke="black" cx="622" cy="-735" rx="167.07" ry="18"/>
<text text-anchor="start" x="501.5" y="-731.3" font-family="Times,serif" font-size="14.00">wordnet_administrative_district_108491826</text>
</g>
<!-- 2&#45;&#45;14 -->
<g id="edge8" class="edge">
<title>2&#45;&#45;14</title>
<path fill="none" stroke="black" d="M930.26,-1102.59C806.11,-1099.43 604,-1084.13 604,-1018 604,-1018 604,-1018 604,-821 604,-797.02 610.94,-770.04 616.21,-753.03"/>
<text text-anchor="start" x="604" y="-905.3" font-family="Times,serif" font-size="14.00">type</text>
</g>
<!-- 22 -->
<g id="node22" class="node">
<title>22</title>
<ellipse fill="none" stroke="black" cx="792" cy="-822" rx="132.68" ry="18"/>
<text text-anchor="start" x="698" y="-818.3" font-family="Times,serif" font-size="14.00">wordnet_municipality_108626283</text>
</g>
<!-- 2&#45;&#45;22 -->
<g id="edge9" class="edge">
<title>2&#45;&#45;22</title>
<path fill="none" stroke="black" d="M1038.16,-1085.94C1047.41,-1072.82 1058.99,-1053.81 1064,-1035 1075.94,-990.2 1041.21,-892.32 1040,-891 1017.66,-866.66 938.26,-847.73 875.25,-836.1"/>
<text text-anchor="start" x="1064" y="-959.3" font-family="Times,serif" font-size="14.00">type</text>
</g>
<!-- 17 -->
<g id="node17" class="node">
<title>17</title>
<ellipse fill="none" stroke="black" cx="446" cy="-909" rx="100.98" ry="18"/>
<text text-anchor="start" x="376.5" y="-905.3" font-family="Times,serif" font-size="14.00">wordnet_city_108524735</text>
</g>
<!-- 3&#45;&#45;17 -->
<g id="edge10" class="edge">
<title>3&#45;&#45;17</title>
<path fill="none" stroke="black" d="M446,-998.97C446,-979.31 446,-947.13 446,-927.34"/>
<text text-anchor="start" x="446" y="-959.3" font-family="Times,serif" font-size="14.00">subClassOf</text>
</g>
<!-- 18 -->
<g id="node18" class="node">
<title>18</title>
<ellipse fill="none" stroke="black" cx="1463" cy="-909" rx="129.98" ry="18"/>
<text text-anchor="start" x="1371" y="-905.3" font-family="Times,serif" font-size="14.00">wordnet_county_seat_108547143</text>
</g>
<!-- 4&#45;&#45;18 -->
<g id="edge11" class="edge">
<title>4&#45;&#45;18</title>
<path fill="none" stroke="black" d="M1296.54,-998.86C1306.4,-982.69 1323.25,-958.9 1344,-945 1357.69,-935.83 1373.82,-929.02 1389.72,-923.97"/>
<text text-anchor="start" x="1344" y="-959.3" font-family="Times,serif" font-size="14.00">subClassOf</text>
</g>
<!-- 27 -->
<g id="node27" class="node">
<title>27</title>
<ellipse fill="none" stroke="black" cx="2156" cy="-822" rx="100.18" ry="18"/>
<text text-anchor="start" x="2087" y="-818.3" font-family="Times,serif" font-size="14.00">wordnet_site_108651247</text>
</g>
<!-- 5&#45;&#45;27 -->
<g id="edge12" class="edge">
<title>5&#45;&#45;27</title>
<path fill="none" stroke="black" d="M1711.79,-945.51C1811.4,-918.04 2009.65,-863.36 2103.9,-837.37"/>
<text text-anchor="start" x="1904" y="-905.3" font-family="Times,serif" font-size="14.00">subClassOf</text>
</g>
<!-- 28 -->
<g id="node28" class="node">
<title>28</title>
<ellipse fill="none" stroke="black" cx="926" cy="-909" rx="105.08" ry="18"/>
<text text-anchor="start" x="853" y="-905.3" font-family="Times,serif" font-size="14.00">wordnet_town_108665504</text>
</g>
<!-- 6&#45;&#45;28 -->
<g id="edge13" class="edge">
<title>6&#45;&#45;28</title>
<path fill="none" stroke="black" d="M863.89,-998.97C877.7,-979.19 900.34,-946.75 914.14,-926.99"/>
<text text-anchor="start" x="900" y="-959.3" font-family="Times,serif" font-size="14.00">subClassOf</text>
</g>
<!-- 7 -->
<g id="node7" class="node">
<title>7</title>
<ellipse fill="none" stroke="black" cx="961" cy="-18" rx="68.49" ry="18"/>
<text text-anchor="start" x="916.5" y="-14.3" font-family="Times,serif" font-size="14.00">wordnetDomain</text>
</g>
<!-- 8 -->
<g id="node8" class="node">
<title>8</title>
<ellipse fill="none" stroke="black" cx="697" cy="-561" rx="124.28" ry="18"/>
<text text-anchor="start" x="609.5" y="-557.3" font-family="Times,serif" font-size="14.00">wordnetDomain_administration</text>
</g>
<!-- 8&#45;&#45;7 -->
<g id="edge14" class="edge">
<title>8&#45;&#45;7</title>
<path fill="none" stroke="black" d="M715.54,-543.03C730.82,-527.1 750,-501.78 750,-475 750,-475 750,-475 750,-104 750,-41.31 831.14,-23.68 892.79,-19.34"/>
<text text-anchor="start" x="750" y="-275.3" font-family="Times,serif" font-size="14.00">type</text>
</g>
<!-- 9&#45;&#45;7 -->
<g id="edge15" class="edge">
<title>9&#45;&#45;7</title>
<path fill="none" stroke="black" d="M1744.18,-95.34C1567.63,-78.13 1176.44,-40 1023.76,-25.12"/>
<text text-anchor="start" x="1449" y="-57.8" font-family="Times,serif" font-size="14.00">type</text>
</g>
<!-- 10 -->
<g id="node10" class="node">
<title>10</title>
<ellipse fill="none" stroke="black" cx="1223" cy="-561" rx="109.68" ry="18"/>
<text text-anchor="start" x="1146.5" y="-557.3" font-family="Times,serif" font-size="14.00">wordnetDomain_geography</text>
</g>
<!-- 10&#45;&#45;7 -->
<g id="edge16" class="edge">
<title>10&#45;&#45;7</title>
<path fill="none" stroke="black" d="M1128.79,-551.74C1039.84,-541.26 920,-518.98 920,-475 920,-475 920,-475 920,-104 920,-78.28 935.42,-52.14 947.35,-35.76"/>
<text text-anchor="start" x="920" y="-275.3" font-family="Times,serif" font-size="14.00">type</text>
</g>
<!-- 11&#45;&#45;7 -->
<g id="edge17" class="edge">
<title>11&#45;&#45;7</title>
<path fill="none" stroke="black" d="M1034.82,-87.21C1018.59,-72.21 994.95,-50.37 978.83,-35.47"/>
<text text-anchor="start" x="1013" y="-57.8" font-family="Times,serif" font-size="14.00">type</text>
</g>
<!-- 12&#45;&#45;7 -->
<g id="edge18" class="edge">
<title>12&#45;&#45;7</title>
<path fill="none" stroke="black" d="M1220.78,-89.77C1160.93,-73.47 1063.79,-47 1006.78,-31.47"/>
<text text-anchor="start" x="1136" y="-57.8" font-family="Times,serif" font-size="14.00">type</text>
</g>
<!-- 13 -->
<g id="node13" class="node">
<title>13</title>
<ellipse fill="none" stroke="black" cx="408" cy="-561" rx="125.38" ry="18"/>
<text text-anchor="start" x="319.5" y="-557.3" font-family="Times,serif" font-size="14.00">wordnetDomain_town_planning</text>
</g>
<!-- 13&#45;&#45;7 -->
<g id="edge19" class="edge">
<title>13&#45;&#45;7</title>
<path fill="none" stroke="black" d="M428.26,-542.99C444.64,-527.24 465,-502.18 465,-475 465,-475 465,-475 465,-104 465,-60.78 761.34,-33.59 895.9,-23.47"/>
<text text-anchor="start" x="465" y="-275.3" font-family="Times,serif" font-size="14.00">type</text>
</g>
<!-- 14&#45;&#45;8 -->
<g id="edge21" class="edge">
<title>14&#45;&#45;8</title>
<path fill="none" stroke="black" d="M641.71,-717.09C647.17,-711.71 652.76,-705.47 657,-699 682,-660.87 691.73,-606.78 695.22,-579.37"/>
<text text-anchor="start" x="686" y="-644.3" font-family="Times,serif" font-size="14.00">hasWordnetDomain</text>
</g>
<!-- 19 -->
<g id="node19" class="node">
<title>19</title>
<ellipse fill="none" stroke="black" cx="549" cy="-648" rx="112.38" ry="18"/>
<text text-anchor="start" x="470.5" y="-644.3" font-family="Times,serif" font-size="14.00">wordnet_district_108552138</text>
</g>
<!-- 14&#45;&#45;19 -->
<g id="edge20" class="edge">
<title>14&#45;&#45;19</title>
<path fill="none" stroke="black" d="M607.23,-716.8C594.48,-701.95 576.17,-680.64 563.5,-665.89"/>
<text text-anchor="start" x="590" y="-687.8" font-family="Times,serif" font-size="14.00">subClassOf</text>
</g>
<!-- 15 -->
<g id="node15" class="node">
<title>15</title>
<ellipse fill="none" stroke="black" cx="1461" cy="-648" rx="102.88" ry="18"/>
<text text-anchor="start" x="1390" y="-644.3" font-family="Times,serif" font-size="14.00">wordnet_area_108497294</text>
</g>
<!-- 15&#45;&#45;10 -->
<g id="edge23" class="edge">
<title>15&#45;&#45;10</title>
<path fill="none" stroke="black" d="M1451.75,-629.91C1444.79,-618.75 1434.19,-604.83 1421,-597 1402.42,-585.98 1355.54,-577.43 1312.06,-571.55"/>
<text text-anchor="start" x="1438" y="-600.8" font-family="Times,serif" font-size="14.00">hasWordnetDomain</text>
</g>
<!-- 25 -->
<g id="node25" class="node">
<title>25</title>
<ellipse fill="none" stroke="black" cx="1707" cy="-561" rx="110.48" ry="18"/>
<text text-anchor="start" x="1630" y="-557.3" font-family="Times,serif" font-size="14.00">wordnet_region_108630985</text>
</g>
<!-- 15&#45;&#45;25 -->
<g id="edge22" class="edge">
<title>15&#45;&#45;25</title>
<path fill="none" stroke="black" d="M1535.56,-635.56C1600.43,-625.58 1684.24,-612.59 1685,-612 1695.22,-604.14 1700.79,-590.52 1703.77,-579.48"/>
<text text-anchor="start" x="1696" y="-600.8" font-family="Times,serif" font-size="14.00">subClassOf</text>
</g>
<!-- 16 -->
<g id="node16" class="node">
<title>16</title>
<ellipse fill="none" stroke="black" cx="1793" cy="-735" rx="109.38" ry="18"/>
<text text-anchor="start" x="1717" y="-731.3" font-family="Times,serif" font-size="14.00">wordnet_center_108523483</text>
</g>
<!-- 16&#45;&#45;9 -->
<g id="edge25" class="edge">
<title>16&#45;&#45;9</title>
<path fill="none" stroke="black" d="M1846.07,-719.19C1878.58,-706.52 1914,-684.56 1914,-649 1914,-649 1914,-649 1914,-191 1914,-160.63 1886.56,-136.82 1863.62,-122.22"/>
<text text-anchor="start" x="1914" y="-426.8" font-family="Times,serif" font-size="14.00">hasWordnetDomain</text>
</g>
<!-- 16&#45;&#45;15 -->
<g id="edge24" class="edge">
<title>16&#45;&#45;15</title>
<path fill="none" stroke="black" d="M1736.3,-719.48C1674.82,-703.74 1577.31,-678.78 1516.36,-663.17"/>
<text text-anchor="start" x="1646" y="-687.8" font-family="Times,serif" font-size="14.00">subClassOf</text>
</g>
<!-- 17&#45;&#45;8 -->
<g id="edge27" class="edge">
<title>17&#45;&#45;8</title>
<path fill="none" stroke="black" d="M383.49,-894.83C281.84,-870.38 97.87,-811.64 159,-717 229.37,-608.05 300.21,-632.33 425,-597 442.04,-592.18 531.11,-581.14 602.75,-572.74"/>
<text text-anchor="start" x="159" y="-731.3" font-family="Times,serif" font-size="14.00">hasWordnetDomain</text>
</g>
<!-- 17&#45;&#45;10 -->
<g id="edge28" class="edge">
<title>17&#45;&#45;10</title>
<path fill="none" stroke="black" d="M524.53,-897.68C661.63,-879.59 930.49,-843.7 934,-840 955.17,-817.7 953.95,-797.87 939,-771 931.63,-757.74 917.37,-766.26 910,-753 902.22,-739.02 899.39,-728.97 910,-717 932.12,-692.04 1028.56,-712.62 1059,-699 1121.66,-670.96 1121.43,-639.94 1175,-597 1182.73,-590.81 1191.41,-584.34 1199.24,-578.67"/>
<text text-anchor="start" x="910" y="-731.3" font-family="Times,serif" font-size="14.00">hasWordnetDomain</text>
</g>
<!-- 17&#45;&#45;13 -->
<g id="edge29" class="edge">
<title>17&#45;&#45;13</title>
<path fill="none" stroke="black" d="M345.07,-908.65C213.51,-906.71 0,-892.81 0,-823 0,-823 0,-823 0,-647 0,-588.21 164.39,-569.81 284.48,-564.21"/>
<text text-anchor="start" x="0" y="-731.3" font-family="Times,serif" font-size="14.00">hasWordnetDomain</text>
</g>
<!-- 17&#45;&#45;22 -->
<g id="edge26" class="edge">
<title>17&#45;&#45;22</title>
<path fill="none" stroke="black" d="M502.75,-894.06C565.53,-878.63 666.35,-853.87 730.85,-838.02"/>
<text text-anchor="start" x="640" y="-861.8" font-family="Times,serif" font-size="14.00">subClassOf</text>
</g>
<!-- 18&#45;&#45;10 -->
<g id="edge31" class="edge">
<title>18&#45;&#45;10</title>
<path fill="none" stroke="black" d="M1465.83,-890.95C1471.67,-849.43 1480.24,-742.23 1425,-684 1401.11,-658.82 1377.19,-686.25 1349,-666 1319.65,-644.92 1333.49,-620.45 1306,-597 1296.36,-588.78 1284.52,-582.26 1272.82,-577.18"/>
<text text-anchor="start" x="1460" y="-731.3" font-family="Times,serif" font-size="14.00">hasWordnetDomain</text>
</g>
<!-- 26 -->
<g id="node26" class="node">
<title>26</title>
<ellipse fill="none" stroke="black" cx="1793" cy="-822" rx="101.28" ry="18"/>
<text text-anchor="start" x="1723" y="-818.3" font-family="Times,serif" font-size="14.00">wordnet_seat_108647945</text>
</g>
<!-- 18&#45;&#45;26 -->
<g id="edge30" class="edge">
<title>18&#45;&#45;26</title>
<path fill="none" stroke="black" d="M1510.46,-892.19C1542.81,-881.72 1586.73,-868.12 1626,-858 1658.7,-849.58 1695.4,-841.71 1726.04,-835.58"/>
<text text-anchor="start" x="1626" y="-861.8" font-family="Times,serif" font-size="14.00">subClassOf</text>
</g>
<!-- 19&#45;&#45;8 -->
<g id="edge33" class="edge">
<title>19&#45;&#45;8</title>
<path fill="none" stroke="black" d="M553.63,-629.89C557.42,-619.01 563.84,-605.42 574,-597 586.05,-587.01 600.79,-579.87 615.83,-574.76"/>
<text text-anchor="start" x="574" y="-600.8" font-family="Times,serif" font-size="14.00">hasWordnetDomain</text>
</g>
<!-- 19&#45;&#45;13 -->
<g id="edge34" class="edge">
<title>19&#45;&#45;13</title>
<path fill="none" stroke="black" d="M483.98,-633.25C469.25,-628.17 454.34,-621.28 442,-612 430.59,-603.42 421.71,-589.84 415.89,-579"/>
<text text-anchor="start" x="442" y="-600.8" font-family="Times,serif" font-size="14.00">hasWordnetDomain</text>
</g>
<!-- 19&#45;&#45;25 -->
<g id="edge32" class="edge">
<title>19&#45;&#45;25</title>
<path fill="none" stroke="black" d="M629.23,-635.34C644.41,-633.37 660.17,-631.49 675,-630 1012.89,-596.11 1414.78,-575.18 1601.69,-566.56"/>
<text text-anchor="start" x="1072" y="-600.8" font-family="Times,serif" font-size="14.00">subClassOf</text>
</g>
<!-- 20 -->
<g id="node20" class="node">
<title>20</title>
<ellipse fill="none" stroke="black" cx="1734" cy="-648" rx="152.17" ry="18"/>
<text text-anchor="start" x="1625" y="-644.3" font-family="Times,serif" font-size="14.00">wordnet_geographical_area_108574314</text>
</g>
<!-- 20&#45;&#45;10 -->
<g id="edge36" class="edge">
<title>20&#45;&#45;10</title>
<path fill="none" stroke="black" d="M1641.12,-633.7C1617.95,-628.57 1593.58,-621.55 1572,-612 1561.51,-607.36 1561.72,-601.08 1551,-597 1511.12,-581.84 1406.55,-572.47 1326.1,-567.29"/>
<text text-anchor="start" x="1572" y="-600.8" font-family="Times,serif" font-size="14.00">hasWordnetDomain</text>
</g>
<!-- 20&#45;&#45;25 -->
<g id="edge35" class="edge">
<title>20&#45;&#45;25</title>
<path fill="none" stroke="black" d="M1758.81,-630.02C1769.36,-620.61 1777.83,-608.52 1771,-597 1766.22,-588.94 1758.86,-582.61 1750.8,-577.69"/>
<text text-anchor="start" x="1773" y="-600.8" font-family="Times,serif" font-size="14.00">subClassOf</text>
</g>
<!-- 21 -->
<g id="node21" class="node">
<title>21</title>
<ellipse fill="none" stroke="black" cx="1530" cy="-474" rx="116.18" ry="18"/>
<text text-anchor="start" x="1448.5" y="-470.3" font-family="Times,serif" font-size="14.00">wordnet_location_100027167</text>
</g>
<!-- 21&#45;&#45;9 -->
<g id="edge40" class="edge">
<title>21&#45;&#45;9</title>
<path fill="none" stroke="black" d="M1572.63,-457.12C1597.58,-445.91 1628.01,-428.66 1648,-405 1692.97,-351.77 1659.25,-308.75 1710,-261 1727.2,-244.82 1742.14,-258.46 1760,-243 1779.77,-225.89 1811.5,-156.04 1825.71,-123.2"/>
<text text-anchor="start" x="1710" y="-275.3" font-family="Times,serif" font-size="14.00">hasWordnetDomain</text>
</g>
<!-- 23 -->
<g id="node23" class="node">
<title>23</title>
<ellipse fill="none" stroke="black" cx="1530" cy="-387" rx="109.38" ry="18"/>
<text text-anchor="start" x="1454" y="-383.3" font-family="Times,serif" font-size="14.00">wordnet_object_100002684</text>
</g>
<!-- 21&#45;&#45;23 -->
<g id="edge37" class="edge">
<title>21&#45;&#45;23</title>
<path fill="none" stroke="black" d="M1530,-455.8C1530,-441.05 1530,-419.92 1530,-405.18"/>
<text text-anchor="start" x="1530" y="-426.8" font-family="Times,serif" font-size="14.00">subClassOf</text>
</g>
<!-- 31 -->
<g id="node31" class="node">
<title>31</title>
<ellipse fill="none" stroke="black" cx="1128" cy="-387" rx="63.89" ry="18"/>
<text text-anchor="start" x="1087" y="-383.3" font-family="Times,serif" font-size="14.00">yagoGeoEntity</text>
</g>
<!-- 21&#45;&#45;31 -->
<g id="edge38" class="edge">
<title>21&#45;&#45;31</title>
<path fill="none" stroke="black" d="M1424.37,-466.43C1371.4,-461.47 1306.62,-452.86 1250,-438 1217.67,-429.52 1182.54,-414.45 1158.31,-403.06"/>
<text text-anchor="start" x="1250" y="-426.8" font-family="Times,serif" font-size="14.00">subClassOf</text>
</g>
<!-- 32 -->
<g id="node32" class="node">
<title>32</title>
<ellipse fill="none" stroke="black" cx="1296" cy="-333" rx="82.59" ry="18"/>
<text text-anchor="start" x="1240.5" y="-329.3" font-family="Times,serif" font-size="14.00">yagoLegalActorGeo</text>
</g>
<!-- 21&#45;&#45;32 -->
<g id="edge39" class="edge">
<title>21&#45;&#45;32</title>
<path fill="none" stroke="black" d="M1497.36,-456.58C1486.35,-450.87 1474.05,-444.32 1463,-438 1411.55,-408.6 1353.13,-371.28 1320.82,-350.28"/>
<text text-anchor="start" x="1463" y="-426.8" font-family="Times,serif" font-size="14.00">subClassOf</text>
</g>
<!-- 22&#45;&#45;8 -->
<g id="edge43" class="edge">
<title>22&#45;&#45;8</title>
<path fill="none" stroke="black" d="M798.03,-803.89C809.28,-768.84 829.69,-687.34 799,-630 786.15,-605.98 760.65,-588.98 738.36,-577.99"/>
<text text-anchor="start" x="816" y="-687.8" font-family="Times,serif" font-size="14.00">hasWordnetDomain</text>
</g>
<!-- 22&#45;&#45;10 -->
<g id="edge44" class="edge">
<title>22&#45;&#45;10</title>
<path fill="none" stroke="black" d="M805.83,-804.02C829.2,-775.37 874.46,-720.22 879,-717 897.59,-703.83 907.1,-710.09 927,-699 959.38,-680.96 1025.37,-612.59 1059,-597 1083.7,-585.55 1112.23,-577.8 1138.5,-572.57"/>
<text text-anchor="start" x="948" y="-687.8" font-family="Times,serif" font-size="14.00">hasWordnetDomain</text>
</g>
<!-- 22&#45;&#45;13 -->
<g id="edge45" class="edge">
<title>22&#45;&#45;13</title>
<path fill="none" stroke="black" d="M679.94,-812.29C591.81,-803.1 478.63,-785.3 446,-753 398.19,-705.66 401.75,-616.51 405.7,-579.15"/>
<text text-anchor="start" x="415" y="-687.8" font-family="Times,serif" font-size="14.00">hasWordnetDomain</text>
</g>
<!-- 22&#45;&#45;14 -->
<g id="edge41" class="edge">
<title>22&#45;&#45;14</title>
<path fill="none" stroke="black" d="M758.82,-804.41C728.96,-789.48 685.31,-767.65 655.39,-752.69"/>
<text text-anchor="start" x="718" y="-774.8" font-family="Times,serif" font-size="14.00">subClassOf</text>
</g>
<!-- 30 -->
<g id="node30" class="node">
<title>30</title>
<ellipse fill="none" stroke="black" cx="1155" cy="-735" rx="126.98" ry="18"/>
<text text-anchor="start" x="1065.5" y="-731.3" font-family="Times,serif" font-size="14.00">wordnet_urban_area_108675967</text>
</g>
<!-- 22&#45;&#45;30 -->
<g id="edge42" class="edge">
<title>22&#45;&#45;30</title>
<path fill="none" stroke="black" d="M855.65,-806.1C922.24,-790.5 1026.12,-766.18 1092.34,-750.67"/>
<text text-anchor="start" x="996" y="-774.8" font-family="Times,serif" font-size="14.00">subClassOf</text>
</g>
<!-- 23&#45;&#45;9 -->
<g id="edge47" class="edge">
<title>23&#45;&#45;9</title>
<path fill="none" stroke="black" d="M1555.1,-369.41C1562.98,-363.85 1571.56,-357.42 1579,-351 1604.22,-329.22 1614.32,-325.84 1631,-297 1646.98,-269.36 1633.25,-254.54 1651,-228 1685.47,-176.48 1707.5,-173.94 1760,-141 1771.19,-133.98 1784.01,-127.39 1795.74,-121.87"/>
<text text-anchor="start" x="1651" y="-231.8" font-family="Times,serif" font-size="14.00">hasWordnetDomain</text>
</g>
<!-- 24 -->
<g id="node24" class="node">
<title>24</title>
<ellipse fill="none" stroke="black" cx="1480" cy="-279" rx="141.88" ry="18"/>
<text text-anchor="start" x="1379" y="-275.3" font-family="Times,serif" font-size="14.00">wordnet_physical_entity_100001930</text>
</g>
<!-- 23&#45;&#45;24 -->
<g id="edge46" class="edge">
<title>23&#45;&#45;24</title>
<path fill="none" stroke="black" d="M1521.97,-368.97C1512.64,-349.19 1497.34,-316.75 1488.01,-296.99"/>
<text text-anchor="start" x="1512" y="-329.3" font-family="Times,serif" font-size="14.00">subClassOf</text>
</g>
<!-- 24&#45;&#45;1 -->
<g id="edge48" class="edge">
<title>24&#45;&#45;1</title>
<path fill="none" stroke="black" d="M1438.03,-261.71C1393.2,-244.31 1323.58,-217.29 1286.41,-202.86"/>
<text text-anchor="start" x="1383" y="-231.8" font-family="Times,serif" font-size="14.00">subClassOf</text>
</g>
<!-- 25&#45;&#45;9 -->
<g id="edge50" class="edge">
<title>25&#45;&#45;9</title>
<path fill="none" stroke="black" d="M1708.98,-542.72C1714.67,-499.9 1734.41,-387.19 1791,-315 1800.13,-303.36 1811.44,-309.72 1819,-297 1852.38,-240.84 1842.77,-158.36 1836.49,-123.06"/>
<text text-anchor="start" x="1791" y="-329.3" font-family="Times,serif" font-size="14.00">hasWordnetDomain</text>
</g>
<!-- 25&#45;&#45;21 -->
<g id="edge49" class="edge">
<title>25&#45;&#45;21</title>
<path fill="none" stroke="black" d="M1673.29,-543.81C1641.9,-528.74 1595.34,-506.38 1563.88,-491.27"/>
<text text-anchor="start" x="1629" y="-513.8" font-family="Times,serif" font-size="14.00">subClassOf</text>
</g>
<!-- 26&#45;&#45;9 -->
<g id="edge52" class="edge">
<title>26&#45;&#45;9</title>
<path fill="none" stroke="black" d="M1863.87,-809.09C1932.1,-795.55 2025,-770.75 2025,-736 2025,-736 2025,-736 2025,-516.5 2025,-459.1 2038,-445.4 2038,-388 2038,-388 2038,-388 2038,-191 2038,-140.53 1984.32,-119.45 1931.9,-110.91"/>
<text text-anchor="start" x="2030" y="-470.3" font-family="Times,serif" font-size="14.00">hasWordnetDomain</text>
</g>
<!-- 26&#45;&#45;16 -->
<g id="edge51" class="edge">
<title>26&#45;&#45;16</title>
<path fill="none" stroke="black" d="M1793,-803.8C1793,-789.05 1793,-767.92 1793,-753.18"/>
<text text-anchor="start" x="1793" y="-774.8" font-family="Times,serif" font-size="14.00">subClassOf</text>
</g>
<!-- 27&#45;&#45;9 -->
<g id="edge54" class="edge">
<title>27&#45;&#45;9</title>
<path fill="none" stroke="black" d="M2214.22,-807.19C2249.21,-795.03 2287,-773.28 2287,-736 2287,-736 2287,-736 2287,-191 2287,-154.44 2056.59,-126.83 1924.05,-113.98"/>
<text text-anchor="start" x="2287" y="-470.3" font-family="Times,serif" font-size="14.00">hasWordnetDomain</text>
</g>
<!-- 29 -->
<g id="node29" class="node">
<title>29</title>
<ellipse fill="none" stroke="black" cx="2156" cy="-735" rx="103.18" ry="18"/>
<text text-anchor="start" x="2084.5" y="-731.3" font-family="Times,serif" font-size="14.00">wordnet_tract_108673395</text>
</g>
<!-- 27&#45;&#45;29 -->
<g id="edge53" class="edge">
<title>27&#45;&#45;29</title>
<path fill="none" stroke="black" d="M2156,-803.8C2156,-789.05 2156,-767.92 2156,-753.18"/>
<text text-anchor="start" x="2156" y="-774.8" font-family="Times,serif" font-size="14.00">subClassOf</text>
</g>
<!-- 28&#45;&#45;10 -->
<g id="edge56" class="edge">
<title>28&#45;&#45;10</title>
<path fill="none" stroke="black" d="M1011.8,-898.41C1098.83,-883.6 1229.26,-846.29 1291,-753 1304.6,-732.45 1291.53,-660.78 1278,-630 1269.38,-610.4 1253.57,-591.76 1241.11,-578.97"/>
<text text-anchor="start" x="1296" y="-731.3" font-family="Times,serif" font-size="14.00">hasWordnetDomain</text>
</g>
<!-- 28&#45;&#45;13 -->
<g id="edge57" class="edge">
<title>28&#45;&#45;13</title>
<path fill="none" stroke="black" d="M856.36,-895.47C702.2,-867.03 342.96,-796.72 309,-753 263.97,-695.04 346.4,-613.53 387.15,-578.76"/>
<text text-anchor="start" x="309" y="-731.3" font-family="Times,serif" font-size="14.00">hasWordnetDomain</text>
</g>
<!-- 28&#45;&#45;22 -->
<g id="edge55" class="edge">
<title>28&#45;&#45;22</title>
<path fill="none" stroke="black" d="M899.85,-891.41C876.39,-876.53 842.12,-854.8 818.55,-839.84"/>
<text text-anchor="start" x="868" y="-861.8" font-family="Times,serif" font-size="14.00">subClassOf</text>
</g>
<!-- 29&#45;&#45;9 -->
<g id="edge59" class="edge">
<title>29&#45;&#45;9</title>
<path fill="none" stroke="black" d="M2157.93,-716.77C2159.69,-699.61 2162,-672.52 2162,-649 2162,-649 2162,-649 2162,-191 2162,-142.48 2026.15,-121.22 1929.04,-112.22"/>
<text text-anchor="start" x="2162" y="-426.8" font-family="Times,serif" font-size="14.00">hasWordnetDomain</text>
</g>
<!-- 29&#45;&#45;20 -->
<g id="edge58" class="edge">
<title>29&#45;&#45;20</title>
<path fill="none" stroke="black" d="M2090.99,-720.91C2014.46,-705.49 1887.68,-679.95 1807.61,-663.83"/>
<text text-anchor="start" x="1970" y="-687.8" font-family="Times,serif" font-size="14.00">subClassOf</text>
</g>
<!-- 30&#45;&#45;10 -->
<g id="edge61" class="edge">
<title>30&#45;&#45;10</title>
<path fill="none" stroke="black" d="M1154.57,-716.7C1154.65,-695.44 1156.8,-658.66 1169,-630 1177.33,-610.44 1192.86,-591.8 1205.14,-579"/>
<text text-anchor="start" x="1169" y="-644.3" font-family="Times,serif" font-size="14.00">hasWordnetDomain</text>
</g>
<!-- 30&#45;&#45;20 -->
<g id="edge60" class="edge">
<title>30&#45;&#45;20</title>
<path fill="none" stroke="black" d="M1239.81,-721.55C1347.24,-705.78 1531.65,-678.71 1642.26,-662.47"/>
<text text-anchor="start" x="1479" y="-687.8" font-family="Times,serif" font-size="14.00">subClassOf</text>
</g>
<!-- 33 -->
<g id="node33" class="node">
<title>33</title>
<ellipse fill="none" stroke="black" cx="1099" cy="-279" rx="122.38" ry="18"/>
<text text-anchor="start" x="1013" y="-275.3" font-family="Times,serif" font-size="14.00">yagoPermanentlyLocatedEntity</text>
</g>
<!-- 31&#45;&#45;33 -->
<g id="edge62" class="edge">
<title>31&#45;&#45;33</title>
<path fill="none" stroke="black" d="M1123.34,-368.97C1117.93,-349.19 1109.05,-316.75 1103.65,-296.99"/>
<text text-anchor="start" x="1118" y="-329.3" font-family="Times,serif" font-size="14.00">subClassOf</text>
</g>
<!-- 32&#45;&#45;1 -->
<g id="edge63" class="edge">
<title>32&#45;&#45;1</title>
<path fill="none" stroke="black" d="M1277.87,-315.38C1273.16,-310.01 1268.66,-303.69 1266,-297 1254.58,-268.28 1256.19,-231.52 1258.51,-210.28"/>
<text text-anchor="start" x="1266" y="-275.3" font-family="Times,serif" font-size="14.00">subClassOf</text>
</g>
<!-- 33&#45;&#45;1 -->
<g id="edge64" class="edge">
<title>33&#45;&#45;1</title>
<path fill="none" stroke="black" d="M1123.99,-261.27C1139.72,-251.06 1160.66,-238.08 1180,-228 1198.07,-218.58 1219.22,-209.5 1235.38,-202.95"/>
<text text-anchor="start" x="1180" y="-231.8" font-family="Times,serif" font-size="14.00">subClassOf</text>
</g>
</g>
</svg>
