<?xml version="1.0" encoding="UTF-8" standalone="no"?>
<!DOCTYPE svg PUBLIC "-//W3C//DTD SVG 1.1//EN"
 "http://www.w3.org/Graphics/SVG/1.1/DTD/svg11.dtd">
<!-- Generated by graphviz version 3.0.0 (20220226.1711)
 -->
<!-- Title: noname Pages: 1 -->
<svg width="1655pt" height="908pt"
 viewBox="0.00 0.00 1654.55 908.00" xmlns="http://www.w3.org/2000/svg" xmlns:xlink="http://www.w3.org/1999/xlink">
<g id="graph0" class="graph" transform="scale(1 1) rotate(0) translate(4 904)">
<title>noname</title>
<polygon fill="white" stroke="transparent" points="-4,4 -4,-904 1650.55,-904 1650.55,4 -4,4"/>
<!-- 1 -->
<g id="node1" class="node">
<title>1</title>
<ellipse fill="none" stroke="black" cx="756.64" cy="-162" rx="31.7" ry="18"/>
<text text-anchor="start" x="740.14" y="-158.3" font-family="Times,serif" font-size="14.00">Thing</text>
</g>
<!-- 9 -->
<g id="node9" class="node">
<title>9</title>
<ellipse fill="none" stroke="black" cx="405.64" cy="-90" rx="104.78" ry="18"/>
<text text-anchor="start" x="333.14" y="-86.3" font-family="Times,serif" font-size="14.00">wordnetDomain_factotum</text>
</g>
<!-- 1&#45;&#45;9 -->
<g id="edge1" class="edge">
<title>1&#45;&#45;9</title>
<path fill="none" stroke="black" d="M727.01,-155.09C670.9,-143.9 547.9,-119.37 471.39,-104.11"/>
</g>
<!-- 11 -->
<g id="node11" class="node">
<title>11</title>
<ellipse fill="none" stroke="black" cx="642.64" cy="-90" rx="105.08" ry="18"/>
<text text-anchor="start" x="569.64" y="-86.3" font-family="Times,serif" font-size="14.00">wordnetDomain_medicine</text>
</g>
<!-- 1&#45;&#45;11 -->
<g id="edge2" class="edge">
<title>1&#45;&#45;11</title>
<path fill="none" stroke="black" d="M735.73,-148.16C717.09,-136.71 689.7,-119.9 669.45,-107.46"/>
</g>
<!-- 12 -->
<g id="node12" class="node">
<title>12</title>
<ellipse fill="none" stroke="black" cx="862.64" cy="-90" rx="96.68" ry="18"/>
<text text-anchor="start" x="796.14" y="-86.3" font-family="Times,serif" font-size="14.00">wordnetDomain_quality</text>
</g>
<!-- 1&#45;&#45;12 -->
<g id="edge3" class="edge">
<title>1&#45;&#45;12</title>
<path fill="none" stroke="black" d="M776.57,-147.83C793.85,-136.43 818.92,-119.87 837.55,-107.57"/>
</g>
<!-- 2 -->
<g id="node2" class="node">
<title>2</title>
<ellipse fill="none" stroke="black" cx="1199.64" cy="-882" rx="94.78" ry="18"/>
<text text-anchor="start" x="1134.64" y="-878.3" font-family="Times,serif" font-size="14.00">Fort_Collins,_Colorado</text>
</g>
<!-- 3 -->
<g id="node3" class="node">
<title>3</title>
<ellipse fill="none" stroke="black" cx="1375.64" cy="-810" rx="129.98" ry="18"/>
<text text-anchor="start" x="1283.64" y="-806.3" font-family="Times,serif" font-size="14.00">wikicategory_Cities_in_Colorado</text>
</g>
<!-- 2&#45;&#45;3 -->
<g id="edge4" class="edge">
<title>2&#45;&#45;3</title>
<path fill="none" stroke="black" d="M1238.7,-865.46C1267.25,-854.11 1305.9,-838.74 1334.85,-827.22"/>
</g>
<!-- 4 -->
<g id="node4" class="node">
<title>4</title>
<ellipse fill="none" stroke="black" cx="156.64" cy="-810" rx="156.77" ry="18"/>
<text text-anchor="start" x="44.14" y="-806.3" font-family="Times,serif" font-size="14.00">wikicategory_County_seats_in_Colorado</text>
</g>
<!-- 2&#45;&#45;4 -->
<g id="edge5" class="edge">
<title>2&#45;&#45;4</title>
<path fill="none" stroke="black" d="M1108.65,-876.75C949.25,-869.04 609.22,-851.32 322.64,-828 304.45,-826.52 285.15,-824.74 266.41,-822.89"/>
</g>
<!-- 5 -->
<g id="node5" class="node">
<title>5</title>
<ellipse fill="none" stroke="black" cx="567.64" cy="-810" rx="235.86" ry="18"/>
<text text-anchor="start" x="394.14" y="-806.3" font-family="Times,serif" font-size="14.00">wikicategory_Populated_places_in_Larimer_County,_Colorado</text>
</g>
<!-- 2&#45;&#45;5 -->
<g id="edge6" class="edge">
<title>2&#45;&#45;5</title>
<path fill="none" stroke="black" d="M1119.91,-872.17C1013.14,-860.34 822.47,-839.22 695.5,-825.16"/>
</g>
<!-- 6 -->
<g id="node6" class="node">
<title>6</title>
<ellipse fill="none" stroke="black" cx="1024.64" cy="-810" rx="203.36" ry="18"/>
<text text-anchor="start" x="876.14" y="-806.3" font-family="Times,serif" font-size="14.00">wikicategory_University_towns_in_the_United_States</text>
</g>
<!-- 2&#45;&#45;6 -->
<g id="edge7" class="edge">
<title>2&#45;&#45;6</title>
<path fill="none" stroke="black" d="M1160.8,-865.46C1132.8,-854.27 1095.07,-839.17 1066.42,-827.71"/>
</g>
<!-- 14 -->
<g id="node14" class="node">
<title>14</title>
<ellipse fill="none" stroke="black" cx="1459.64" cy="-594" rx="167.07" ry="18"/>
<text text-anchor="start" x="1339.14" y="-590.3" font-family="Times,serif" font-size="14.00">wordnet_administrative_district_108491826</text>
</g>
<!-- 2&#45;&#45;14 -->
<g id="edge8" class="edge">
<title>2&#45;&#45;14</title>
<path fill="none" stroke="black" d="M1293.83,-879.35C1382.14,-875.57 1505.04,-863.8 1535.64,-828 1591.89,-762.18 1510.68,-653.77 1475.01,-612.07"/>
</g>
<!-- 22 -->
<g id="node22" class="node">
<title>22</title>
<ellipse fill="none" stroke="black" cx="1264.64" cy="-666" rx="132.68" ry="18"/>
<text text-anchor="start" x="1170.64" y="-662.3" font-family="Times,serif" font-size="14.00">wordnet_municipality_108626283</text>
</g>
<!-- 2&#45;&#45;22 -->
<g id="edge9" class="edge">
<title>2&#45;&#45;22</title>
<path fill="none" stroke="black" d="M1292.7,-878.22C1375.13,-873.56 1486.61,-861.13 1514.64,-828 1575.23,-756.36 1423.77,-705.29 1330.82,-681.7"/>
</g>
<!-- 17 -->
<g id="node17" class="node">
<title>17</title>
<ellipse fill="none" stroke="black" cx="1264.64" cy="-738" rx="100.98" ry="18"/>
<text text-anchor="start" x="1195.14" y="-734.3" font-family="Times,serif" font-size="14.00">wordnet_city_108524735</text>
</g>
<!-- 3&#45;&#45;17 -->
<g id="edge10" class="edge">
<title>3&#45;&#45;17</title>
<path fill="none" stroke="black" d="M1349.05,-792.23C1331.48,-781.15 1308.54,-766.68 1291.01,-755.63"/>
</g>
<!-- 18 -->
<g id="node18" class="node">
<title>18</title>
<ellipse fill="none" stroke="black" cx="156.64" cy="-738" rx="129.98" ry="18"/>
<text text-anchor="start" x="64.64" y="-734.3" font-family="Times,serif" font-size="14.00">wordnet_county_seat_108547143</text>
</g>
<!-- 4&#45;&#45;18 -->
<g id="edge11" class="edge">
<title>4&#45;&#45;18</title>
<path fill="none" stroke="black" d="M156.64,-791.7C156.64,-780.85 156.64,-766.92 156.64,-756.1"/>
</g>
<!-- 27 -->
<g id="node27" class="node">
<title>27</title>
<ellipse fill="none" stroke="black" cx="565.64" cy="-666" rx="100.18" ry="18"/>
<text text-anchor="start" x="496.64" y="-662.3" font-family="Times,serif" font-size="14.00">wordnet_site_108651247</text>
</g>
<!-- 5&#45;&#45;27 -->
<g id="edge12" class="edge">
<title>5&#45;&#45;27</title>
<path fill="none" stroke="black" d="M567.39,-791.87C567.01,-764.58 566.26,-711.52 565.88,-684.19"/>
</g>
<!-- 28 -->
<g id="node28" class="node">
<title>28</title>
<ellipse fill="none" stroke="black" cx="1025.64" cy="-738" rx="105.08" ry="18"/>
<text text-anchor="start" x="952.64" y="-734.3" font-family="Times,serif" font-size="14.00">wordnet_town_108665504</text>
</g>
<!-- 6&#45;&#45;28 -->
<g id="edge13" class="edge">
<title>6&#45;&#45;28</title>
<path fill="none" stroke="black" d="M1024.88,-791.7C1025.04,-780.85 1025.24,-766.92 1025.39,-756.1"/>
</g>
<!-- 7 -->
<g id="node7" class="node">
<title>7</title>
<ellipse fill="none" stroke="black" cx="752.64" cy="-18" rx="68.49" ry="18"/>
<text text-anchor="start" x="708.14" y="-14.3" font-family="Times,serif" font-size="14.00">wordnetDomain</text>
</g>
<!-- 8 -->
<g id="node8" class="node">
<title>8</title>
<ellipse fill="none" stroke="black" cx="1459.64" cy="-450" rx="124.28" ry="18"/>
<text text-anchor="start" x="1372.14" y="-446.3" font-family="Times,serif" font-size="14.00">wordnetDomain_administration</text>
</g>
<!-- 8&#45;&#45;7 -->
<g id="edge14" class="edge">
<title>8&#45;&#45;7</title>
<path fill="none" stroke="black" d="M1442.93,-431.81C1420.28,-406.62 1382.64,-357.2 1382.64,-307 1382.64,-307 1382.64,-307 1382.64,-161 1382.64,-46.78 983.56,-24.42 820.66,-20.06"/>
</g>
<!-- 9&#45;&#45;7 -->
<g id="edge15" class="edge">
<title>9&#45;&#45;7</title>
<path fill="none" stroke="black" d="M470.9,-75.83C537.26,-62.45 638.79,-41.97 700.13,-29.59"/>
</g>
<!-- 10 -->
<g id="node10" class="node">
<title>10</title>
<ellipse fill="none" stroke="black" cx="564.64" cy="-450" rx="109.68" ry="18"/>
<text text-anchor="start" x="488.14" y="-446.3" font-family="Times,serif" font-size="14.00">wordnetDomain_geography</text>
</g>
<!-- 10&#45;&#45;7 -->
<g id="edge16" class="edge">
<title>10&#45;&#45;7</title>
<path fill="none" stroke="black" d="M514.8,-433.9C492.25,-425.34 466.31,-412.9 446.64,-396 325.55,-291.98 185.4,-191.15 291.64,-72 317.4,-43.1 564.46,-27.72 685.9,-21.85"/>
</g>
<!-- 11&#45;&#45;7 -->
<g id="edge17" class="edge">
<title>11&#45;&#45;7</title>
<path fill="none" stroke="black" d="M668.7,-72.41C686.49,-61.09 709.93,-46.18 727.51,-34.99"/>
</g>
<!-- 12&#45;&#45;7 -->
<g id="edge18" class="edge">
<title>12&#45;&#45;7</title>
<path fill="none" stroke="black" d="M836.85,-72.59C818.94,-61.19 795.21,-46.09 777.51,-34.83"/>
</g>
<!-- 13 -->
<g id="node13" class="node">
<title>13</title>
<ellipse fill="none" stroke="black" cx="1179.64" cy="-450" rx="125.38" ry="18"/>
<text text-anchor="start" x="1091.14" y="-446.3" font-family="Times,serif" font-size="14.00">wordnetDomain_town_planning</text>
</g>
<!-- 13&#45;&#45;7 -->
<g id="edge19" class="edge">
<title>13&#45;&#45;7</title>
<path fill="none" stroke="black" d="M1199.17,-431.86C1225.09,-407.11 1267.64,-358.63 1267.64,-307 1267.64,-307 1267.64,-307 1267.64,-161 1267.64,-68.78 956.83,-34.14 818.12,-23.28"/>
</g>
<!-- 14&#45;&#45;8 -->
<g id="edge21" class="edge">
<title>14&#45;&#45;8</title>
<path fill="none" stroke="black" d="M1465.46,-575.56C1468.57,-565.33 1472.07,-552.08 1473.64,-540 1475.7,-524.13 1475.7,-519.87 1473.64,-504 1472.07,-491.92 1468.57,-478.67 1465.46,-468.44"/>
</g>
<!-- 19 -->
<g id="node19" class="node">
<title>19</title>
<ellipse fill="none" stroke="black" cx="1319.64" cy="-522" rx="112.38" ry="18"/>
<text text-anchor="start" x="1241.14" y="-518.3" font-family="Times,serif" font-size="14.00">wordnet_district_108552138</text>
</g>
<!-- 14&#45;&#45;19 -->
<g id="edge20" class="edge">
<title>14&#45;&#45;19</title>
<path fill="none" stroke="black" d="M1426.1,-576.23C1403.78,-565.07 1374.58,-550.47 1352.41,-539.39"/>
</g>
<!-- 15 -->
<g id="node15" class="node">
<title>15</title>
<ellipse fill="none" stroke="black" cx="536.64" cy="-522" rx="102.88" ry="18"/>
<text text-anchor="start" x="465.64" y="-518.3" font-family="Times,serif" font-size="14.00">wordnet_area_108497294</text>
</g>
<!-- 15&#45;&#45;10 -->
<g id="edge23" class="edge">
<title>15&#45;&#45;10</title>
<path fill="none" stroke="black" d="M543.56,-503.7C547.9,-492.85 553.47,-478.92 557.79,-468.1"/>
</g>
<!-- 25 -->
<g id="node25" class="node">
<title>25</title>
<ellipse fill="none" stroke="black" cx="830.64" cy="-450" rx="110.48" ry="18"/>
<text text-anchor="start" x="753.64" y="-446.3" font-family="Times,serif" font-size="14.00">wordnet_region_108630985</text>
</g>
<!-- 15&#45;&#45;25 -->
<g id="edge22" class="edge">
<title>15&#45;&#45;25</title>
<path fill="none" stroke="black" d="M595.07,-507.09C646.06,-494.95 719.72,-477.41 771.05,-465.19"/>
</g>
<!-- 16 -->
<g id="node16" class="node">
<title>16</title>
<ellipse fill="none" stroke="black" cx="293.64" cy="-594" rx="109.38" ry="18"/>
<text text-anchor="start" x="217.64" y="-590.3" font-family="Times,serif" font-size="14.00">wordnet_center_108523483</text>
</g>
<!-- 16&#45;&#45;9 -->
<g id="edge25" class="edge">
<title>16&#45;&#45;9</title>
<path fill="none" stroke="black" d="M285.14,-575.99C272.86,-549.82 251.64,-497.79 251.64,-451 251.64,-451 251.64,-451 251.64,-233 251.64,-170.63 320.75,-128.1 366.38,-106.81"/>
</g>
<!-- 16&#45;&#45;15 -->
<g id="edge24" class="edge">
<title>16&#45;&#45;15</title>
<path fill="none" stroke="black" d="M345.47,-578.07C386.87,-566.14 444.56,-549.52 485.72,-537.67"/>
</g>
<!-- 17&#45;&#45;8 -->
<g id="edge27" class="edge">
<title>17&#45;&#45;8</title>
<path fill="none" stroke="black" d="M1363.19,-733.98C1450.74,-725.43 1574.08,-697.7 1635.64,-612 1680.33,-549.78 1568.52,-493.41 1503.05,-466.92"/>
</g>
<!-- 17&#45;&#45;10 -->
<g id="edge28" class="edge">
<title>17&#45;&#45;10</title>
<path fill="none" stroke="black" d="M1202.05,-723.84C1073.8,-696.59 789.88,-634.6 750.64,-612 712.23,-589.88 711.95,-572.34 681.64,-540 666.79,-524.16 665.29,-517.91 648.64,-504 631.96,-490.07 611.35,-477.02 594.72,-467.35"/>
</g>
<!-- 17&#45;&#45;13 -->
<g id="edge29" class="edge">
<title>17&#45;&#45;13</title>
<path fill="none" stroke="black" d="M1188.17,-726.25C1163.09,-718.69 1137.79,-705.83 1122.64,-684 1074.55,-614.72 1138.2,-509.26 1166.91,-468.2"/>
</g>
<!-- 17&#45;&#45;22 -->
<g id="edge26" class="edge">
<title>17&#45;&#45;22</title>
<path fill="none" stroke="black" d="M1264.64,-719.7C1264.64,-708.85 1264.64,-694.92 1264.64,-684.1"/>
</g>
<!-- 18&#45;&#45;10 -->
<g id="edge31" class="edge">
<title>18&#45;&#45;10</title>
<path fill="none" stroke="black" d="M153.21,-719.7C147.89,-687.52 141.52,-617.91 175.64,-576 243.82,-492.24 368.49,-463.9 458.34,-454.68"/>
</g>
<!-- 26 -->
<g id="node26" class="node">
<title>26</title>
<ellipse fill="none" stroke="black" cx="285.64" cy="-666" rx="101.28" ry="18"/>
<text text-anchor="start" x="215.64" y="-662.3" font-family="Times,serif" font-size="14.00">wordnet_seat_108647945</text>
</g>
<!-- 18&#45;&#45;26 -->
<g id="edge30" class="edge">
<title>18&#45;&#45;26</title>
<path fill="none" stroke="black" d="M187.21,-720.41C207.92,-709.17 235.16,-694.39 255.73,-683.23"/>
</g>
<!-- 19&#45;&#45;8 -->
<g id="edge33" class="edge">
<title>19&#45;&#45;8</title>
<path fill="none" stroke="black" d="M1352.11,-504.76C1374.56,-493.54 1404.33,-478.65 1426.86,-467.39"/>
</g>
<!-- 19&#45;&#45;13 -->
<g id="edge34" class="edge">
<title>19&#45;&#45;13</title>
<path fill="none" stroke="black" d="M1287.17,-504.76C1264.71,-493.54 1234.94,-478.65 1212.42,-467.39"/>
</g>
<!-- 19&#45;&#45;25 -->
<g id="edge32" class="edge">
<title>19&#45;&#45;25</title>
<path fill="none" stroke="black" d="M1238.89,-509.44C1148.01,-496.43 1001.28,-475.43 910.69,-462.46"/>
</g>
<!-- 20 -->
<g id="node20" class="node">
<title>20</title>
<ellipse fill="none" stroke="black" cx="885.64" cy="-522" rx="152.17" ry="18"/>
<text text-anchor="start" x="776.64" y="-518.3" font-family="Times,serif" font-size="14.00">wordnet_geographical_area_108574314</text>
</g>
<!-- 20&#45;&#45;10 -->
<g id="edge36" class="edge">
<title>20&#45;&#45;10</title>
<path fill="none" stroke="black" d="M816.38,-505.9C760.35,-493.68 682.11,-476.62 627.78,-464.77"/>
</g>
<!-- 20&#45;&#45;25 -->
<g id="edge35" class="edge">
<title>20&#45;&#45;25</title>
<path fill="none" stroke="black" d="M872.32,-504.05C863.8,-493.21 852.78,-479.18 844.21,-468.28"/>
</g>
<!-- 21 -->
<g id="node21" class="node">
<title>21</title>
<ellipse fill="none" stroke="black" cx="830.64" cy="-378" rx="116.18" ry="18"/>
<text text-anchor="start" x="749.14" y="-374.3" font-family="Times,serif" font-size="14.00">wordnet_location_100027167</text>
</g>
<!-- 21&#45;&#45;9 -->
<g id="edge40" class="edge">
<title>21&#45;&#45;9</title>
<path fill="none" stroke="black" d="M736.32,-367.43C662.63,-358.62 567.27,-343.92 533.64,-324 498.28,-303.06 496.91,-287.16 475.64,-252 445.82,-202.71 421.87,-138.45 411.38,-108.18"/>
</g>
<!-- 23 -->
<g id="node23" class="node">
<title>23</title>
<ellipse fill="none" stroke="black" cx="651.64" cy="-306" rx="109.38" ry="18"/>
<text text-anchor="start" x="575.64" y="-302.3" font-family="Times,serif" font-size="14.00">wordnet_object_100002684</text>
</g>
<!-- 21&#45;&#45;23 -->
<g id="edge37" class="edge">
<title>21&#45;&#45;23</title>
<path fill="none" stroke="black" d="M790.02,-361.12C760.72,-349.66 721.35,-334.26 692.09,-322.82"/>
</g>
<!-- 31 -->
<g id="node31" class="node">
<title>31</title>
<ellipse fill="none" stroke="black" cx="909.64" cy="-306" rx="63.89" ry="18"/>
<text text-anchor="start" x="868.64" y="-302.3" font-family="Times,serif" font-size="14.00">yagoGeoEntity</text>
</g>
<!-- 21&#45;&#45;31 -->
<g id="edge38" class="edge">
<title>21&#45;&#45;31</title>
<path fill="none" stroke="black" d="M849.76,-360.05C862.36,-348.89 878.78,-334.34 891.23,-323.31"/>
</g>
<!-- 32 -->
<g id="node32" class="node">
<title>32</title>
<ellipse fill="none" stroke="black" cx="1156.64" cy="-234" rx="82.59" ry="18"/>
<text text-anchor="start" x="1101.14" y="-230.3" font-family="Times,serif" font-size="14.00">yagoLegalActorGeo</text>
</g>
<!-- 21&#45;&#45;32 -->
<g id="edge39" class="edge">
<title>21&#45;&#45;32</title>
<path fill="none" stroke="black" d="M880.23,-361.62C910.26,-351.83 949.1,-338.34 982.64,-324 1035.36,-301.45 1094.3,-269.89 1128.27,-251.04"/>
</g>
<!-- 22&#45;&#45;8 -->
<g id="edge43" class="edge">
<title>22&#45;&#45;8</title>
<path fill="none" stroke="black" d="M1263.24,-647.74C1262.62,-627.72 1264.9,-595.02 1283.64,-576 1333.87,-525 1390.4,-591 1440.64,-540 1459.37,-520.98 1461.65,-488.28 1461.04,-468.26"/>
</g>
<!-- 22&#45;&#45;10 -->
<g id="edge44" class="edge">
<title>22&#45;&#45;10</title>
<path fill="none" stroke="black" d="M1248.48,-648.13C1214.7,-614.07 1132.56,-537.48 1046.64,-504 907.11,-449.63 860.46,-484.6 711.64,-468 692.1,-465.82 671.12,-463.43 651.29,-461.14"/>
</g>
<!-- 22&#45;&#45;13 -->
<g id="edge45" class="edge">
<title>22&#45;&#45;13</title>
<path fill="none" stroke="black" d="M1253.64,-647.9C1239.04,-624.46 1213.37,-580.6 1198.64,-540 1189.85,-515.79 1184.55,-486.33 1181.86,-468.12"/>
</g>
<!-- 22&#45;&#45;14 -->
<g id="edge41" class="edge">
<title>22&#45;&#45;14</title>
<path fill="none" stroke="black" d="M1309.37,-648.94C1340.74,-637.68 1382.55,-622.67 1414.09,-611.35"/>
</g>
<!-- 30 -->
<g id="node30" class="node">
<title>30</title>
<ellipse fill="none" stroke="black" cx="886.64" cy="-594" rx="126.98" ry="18"/>
<text text-anchor="start" x="797.14" y="-590.3" font-family="Times,serif" font-size="14.00">wordnet_urban_area_108675967</text>
</g>
<!-- 22&#45;&#45;30 -->
<g id="edge42" class="edge">
<title>22&#45;&#45;30</title>
<path fill="none" stroke="black" d="M1189.5,-651.09C1122.97,-638.77 1026.43,-620.89 960.34,-608.65"/>
</g>
<!-- 23&#45;&#45;9 -->
<g id="edge47" class="edge">
<title>23&#45;&#45;9</title>
<path fill="none" stroke="black" d="M578.36,-292.63C551.15,-284.86 521.79,-272.29 500.64,-252 463.36,-216.23 485.84,-187.29 457.64,-144 448.84,-130.5 436.24,-117.55 425.64,-107.83"/>
</g>
<!-- 24 -->
<g id="node24" class="node">
<title>24</title>
<ellipse fill="none" stroke="black" cx="651.64" cy="-234" rx="141.88" ry="18"/>
<text text-anchor="start" x="550.64" y="-230.3" font-family="Times,serif" font-size="14.00">wordnet_physical_entity_100001930</text>
</g>
<!-- 23&#45;&#45;24 -->
<g id="edge46" class="edge">
<title>23&#45;&#45;24</title>
<path fill="none" stroke="black" d="M651.64,-287.7C651.64,-276.85 651.64,-262.92 651.64,-252.1"/>
</g>
<!-- 24&#45;&#45;1 -->
<g id="edge48" class="edge">
<title>24&#45;&#45;1</title>
<path fill="none" stroke="black" d="M676.79,-216.23C695.11,-204.02 719.6,-187.69 736.6,-176.36"/>
</g>
<!-- 25&#45;&#45;9 -->
<g id="edge50" class="edge">
<title>25&#45;&#45;9</title>
<path fill="none" stroke="black" d="M746.42,-438.27C622.52,-420.1 405.64,-378.13 405.64,-307 405.64,-307 405.64,-307 405.64,-233 405.64,-187.89 405.64,-134.71 405.64,-108.05"/>
</g>
<!-- 25&#45;&#45;21 -->
<g id="edge49" class="edge">
<title>25&#45;&#45;21</title>
<path fill="none" stroke="black" d="M830.64,-431.7C830.64,-420.85 830.64,-406.92 830.64,-396.1"/>
</g>
<!-- 26&#45;&#45;9 -->
<g id="edge52" class="edge">
<title>26&#45;&#45;9</title>
<path fill="none" stroke="black" d="M228.33,-651.11C208.11,-643.15 187.48,-630.85 175.64,-612 156.72,-581.89 88.39,-729.85 237.64,-216 247.31,-182.71 242.78,-168.17 267.64,-144 287.6,-124.59 315.43,-112.11 340.87,-104.18"/>
</g>
<!-- 26&#45;&#45;16 -->
<g id="edge51" class="edge">
<title>26&#45;&#45;16</title>
<path fill="none" stroke="black" d="M287.61,-647.7C288.85,-636.85 290.45,-622.92 291.68,-612.1"/>
</g>
<!-- 27&#45;&#45;9 -->
<g id="edge54" class="edge">
<title>27&#45;&#45;9</title>
<path fill="none" stroke="black" d="M599.31,-648.87C613.57,-640.11 628.71,-627.81 636.64,-612 643.81,-597.7 647.01,-588.18 636.64,-576 571.55,-499.56 494.94,-598.9 413.64,-540 377.58,-513.88 367.64,-495.53 367.64,-451 367.64,-451 367.64,-451 367.64,-233 367.64,-186.55 386.84,-134.38 397.95,-108.09"/>
</g>
<!-- 29 -->
<g id="node29" class="node">
<title>29</title>
<ellipse fill="none" stroke="black" cx="524.64" cy="-594" rx="103.18" ry="18"/>
<text text-anchor="start" x="453.14" y="-590.3" font-family="Times,serif" font-size="14.00">wordnet_tract_108673395</text>
</g>
<!-- 27&#45;&#45;29 -->
<g id="edge53" class="edge">
<title>27&#45;&#45;29</title>
<path fill="none" stroke="black" d="M555.71,-648.05C549.36,-637.21 541.14,-623.18 534.75,-612.28"/>
</g>
<!-- 28&#45;&#45;10 -->
<g id="edge56" class="edge">
<title>28&#45;&#45;10</title>
<path fill="none" stroke="black" d="M977.72,-721.86C915.6,-701.29 804.92,-661.34 717.64,-612 694.42,-598.88 694.25,-586.25 669.64,-576 618.84,-554.84 460.61,-581.64 424.64,-540 414.18,-527.89 415.54,-517.17 424.64,-504 439.04,-483.15 462.78,-470.49 486.65,-462.82"/>
</g>
<!-- 28&#45;&#45;13 -->
<g id="edge57" class="edge">
<title>28&#45;&#45;13</title>
<path fill="none" stroke="black" d="M1030.14,-720C1041.33,-679.82 1073.18,-576.88 1123.64,-504 1133.08,-490.35 1146.52,-477.49 1157.86,-467.86"/>
</g>
<!-- 28&#45;&#45;22 -->
<g id="edge55" class="edge">
<title>28&#45;&#45;22</title>
<path fill="none" stroke="black" d="M1076.32,-722.15C1116.06,-710.52 1171.2,-694.37 1211.54,-682.55"/>
</g>
<!-- 29&#45;&#45;9 -->
<g id="edge59" class="edge">
<title>29&#45;&#45;9</title>
<path fill="none" stroke="black" d="M456.33,-580.4C414.35,-571.11 366.27,-557.14 353.64,-540 249.22,-398.32 287.06,-306.92 353.64,-144 359.54,-129.56 371.48,-116.93 382.43,-107.63"/>
</g>
<!-- 29&#45;&#45;20 -->
<g id="edge58" class="edge">
<title>29&#45;&#45;20</title>
<path fill="none" stroke="black" d="M590.85,-580.16C652.83,-568.14 745.35,-550.2 810.17,-537.63"/>
</g>
<!-- 30&#45;&#45;10 -->
<g id="edge61" class="edge">
<title>30&#45;&#45;10</title>
<path fill="none" stroke="black" d="M823.17,-578.28C792.29,-569.63 755.3,-557.01 724.64,-540 702.84,-527.91 702.74,-517.26 681.64,-504 657.94,-489.11 629.36,-476.08 606.38,-466.67"/>
</g>
<!-- 30&#45;&#45;20 -->
<g id="edge60" class="edge">
<title>30&#45;&#45;20</title>
<path fill="none" stroke="black" d="M886.39,-575.7C886.23,-564.85 886.03,-550.92 885.88,-540.1"/>
</g>
<!-- 33 -->
<g id="node33" class="node">
<title>33</title>
<ellipse fill="none" stroke="black" cx="933.64" cy="-234" rx="122.38" ry="18"/>
<text text-anchor="start" x="847.64" y="-230.3" font-family="Times,serif" font-size="14.00">yagoPermanentlyLocatedEntity</text>
</g>
<!-- 31&#45;&#45;33 -->
<g id="edge62" class="edge">
<title>31&#45;&#45;33</title>
<path fill="none" stroke="black" d="M915.45,-288.05C919.16,-277.21 923.97,-263.18 927.71,-252.28"/>
</g>
<!-- 32&#45;&#45;1 -->
<g id="edge63" class="edge">
<title>32&#45;&#45;1</title>
<path fill="none" stroke="black" d="M1095.79,-221.65C1085.4,-219.74 1074.71,-217.8 1064.64,-216 962.88,-197.84 842.01,-177.36 786.82,-168.07"/>
</g>
<!-- 33&#45;&#45;1 -->
<g id="edge64" class="edge">
<title>33&#45;&#45;1</title>
<path fill="none" stroke="black" d="M893.03,-216.94C858.84,-203.42 811,-184.5 782.01,-173.03"/>
</g>
</g>
</svg>
